<?xml version="1.0" encoding="UTF-8"?>
<svg width="71px" height="56px" viewBox="0 0 71 56" xmlns="http://www.w3.org/2000/svg" xmlns:xlink="http://www.w3.org/1999/xlink" version="1.1">
 <!-- Generated by Pixelmator Pro 1.8 -->
 <path id="Path" d="M15.863 8.684 L8.029 8.648 C5.951 8.639 3.955 9.455 2.479 10.918 1.003 12.38 0.168 14.369 0.159 16.447 L0.016 47.785 7.85 47.82 7.922 32.152 15.756 32.187 15.685 47.856 23.519 47.892 23.662 16.554 C23.672 14.476 22.855 12.48 21.393 11.004 19.93 9.528 17.941 8.694 15.863 8.684 Z M15.792 24.353 L7.957 24.317 7.993 16.483 15.828 16.518 Z M43.284 8.809 L27.615 8.738 27.436 47.91 35.271 47.945 35.342 32.277 43.176 32.312 C45.254 32.322 47.251 31.506 48.727 30.043 50.203 28.581 51.037 26.592 51.047 24.514 L51.082 16.679 C51.092 14.602 50.276 12.605 48.813 11.129 47.351 9.653 45.362 8.819 43.284 8.809 Z M43.212 24.478 L35.378 24.442 35.414 16.608 43.248 16.644 Z M66.751 16.751 L66.644 40.254 70.561 40.272 70.525 48.106 54.857 48.035 54.892 40.201 58.81 40.218 58.917 16.715 55 16.697 55.035 8.863 70.704 8.934 70.668 16.769 Z" fill="#5845cf" fill-opacity="1" stroke="none"/>
</svg>
