<svg width="24" height="24" viewBox="0 0 24 24" fill="none" xmlns="http://www.w3.org/2000/svg">
<path d="M12 2C6.486 2 2 6.486 2 12C2 17.514 6.486 22 12 22C17.514 22 22 17.514 22 12C22 6.486 17.514 2 12 2ZM12 20C7.589 20 4 16.411 4 12C4 7.589 7.589 4 12 4C16.411 4 20 7.589 20 12C20 16.411 16.411 20 12 20Z" fill="white"/>
<path d="M12 11.0002C10 11.0002 10 10.3742 10 10.0002C10 9.51621 10.701 9.00021 12 9.00021C13.185 9.00021 13.386 9.63821 13.4 10.0182L14.4 10.0002H15.4C15.4 8.97421 14.734 7.53121 13 7.12121V6.01221H11V7.08521C9.029 7.41621 8 8.71221 8 10.0002C8 11.1202 8.52 13.0002 12 13.0002C14 13.0002 14 13.6762 14 14.0002C14 14.4152 13.38 15.0002 12 15.0002C10.159 15.0002 10.011 14.1432 10 14.0002H8C8 14.9182 8.661 16.5532 11 16.9202V18.0002H13V16.9152C14.971 16.5842 16 15.2882 16 14.0002C16 12.8802 15.48 11.0002 12 11.0002Z" fill="white"/>
</svg>
