<svg width="20" height="20" viewBox="0 0 20 20" fill="none" xmlns="http://www.w3.org/2000/svg">
<path d="M9.99901 20C5.05569 19.9349 1.06417 15.9433 0.999016 11C1.06417 6.05669 5.05569 2.06517 9.99901 2.00002C14.9423 2.06517 18.9339 6.05669 18.999 11C18.9339 15.9433 14.9423 19.9349 9.99901 20ZM9.99901 4.00002C6.15418 4.05063 3.04963 7.15518 2.99902 11C3.04963 14.8448 6.15418 17.9494 9.99901 18C13.8438 17.9494 16.9484 14.8448 16.999 11C16.9484 7.15518 13.8438 4.05063 9.99901 4.00002ZM14.999 12H8.99901V6.00002H10.999V10H14.999V12ZM18.291 4.70802L15.282 1.70802L16.691 0.291016L19.701 3.29102L18.291 4.70702V4.70802ZM1.70602 4.70802L0.291016 3.29102L3.28202 0.291016L4.69702 1.70802L1.70802 4.70802H1.70602Z" fill="white"/>
</svg>
