<svg width="38" height="38" viewBox="0 0 38 38" fill="none" xmlns="http://www.w3.org/2000/svg">
<path d="M25.3181 33.8015L19.6981 35.0785C19.3459 35.1586 18.977 35.1159 18.6525 34.9575C18.328 34.7991 18.0674 34.5346 17.9138 34.2077L16.6245 31.4417C15.7027 31.2649 14.8035 30.9862 13.9433 30.6107L11.3122 32.1584C11.0008 32.3418 10.6361 32.4131 10.2786 32.3605C9.92108 32.308 9.5923 32.1347 9.34685 31.8695L5.42515 27.6444C5.18149 27.3784 5.03528 27.0377 5.01045 26.6779C4.98561 26.3181 5.08363 25.9605 5.28845 25.6637L7.03252 23.1565C6.72587 22.2701 6.51739 21.3526 6.41084 20.4206L3.75564 18.918C3.44225 18.7388 3.19904 18.4585 3.06586 18.1229C2.93268 17.7874 2.91743 17.4166 3.02261 17.0712L4.72645 11.5645C4.83319 11.2193 5.05481 10.921 5.3545 10.7191C5.65419 10.5172 6.01393 10.4239 6.37398 10.4546L9.4155 10.7134C9.72907 10.3499 10.0623 10.0014 10.4135 9.67476C10.7543 9.36675 11.1105 9.07636 11.4808 8.80548L11.4505 5.75658C11.4473 5.39554 11.5676 5.04425 11.7915 4.76097C12.0154 4.47769 12.3293 4.27943 12.6813 4.19905L18.3014 2.922C18.6535 2.84237 19.0223 2.88549 19.3466 3.04422C19.6709 3.20294 19.9312 3.46773 20.0844 3.79469L21.3811 6.55745C21.857 6.65067 22.3288 6.76915 22.7923 6.9155C23.2238 7.04963 23.6479 7.20818 24.0623 7.38842L26.6949 5.84036C27.0062 5.65746 27.3706 5.58642 27.7278 5.63904C28.085 5.69165 28.4134 5.86476 28.6588 6.12965L32.575 10.3593C33.076 10.9063 33.1331 11.7295 32.7117 12.34L30.9676 14.8471C31.2743 15.7336 31.4827 16.651 31.5893 17.583L34.2455 19.0902C34.8898 19.4602 35.1936 20.2257 34.9782 20.9355L33.2744 26.4422C33.1676 26.7874 32.946 27.0857 32.6463 27.2876C32.3466 27.4895 31.9869 27.5828 31.6269 27.5521L28.5853 27.2933C27.9723 28.0031 27.2822 28.6424 26.5277 29.1995L26.5493 32.2455C26.5521 32.6063 26.4316 32.9573 26.2077 33.2403C25.9838 33.5232 25.6699 33.7212 25.3181 33.8015ZM17.5902 12.8258C15.9522 13.198 14.5292 14.2056 13.6342 15.627C12.7392 17.0484 12.4455 18.7671 12.8176 20.405C13.1898 22.043 14.1975 23.466 15.6188 24.361C17.0402 25.256 18.7589 25.5498 20.3969 25.1776C22.0348 24.8054 23.4579 23.7978 24.3529 22.3764C25.2479 20.955 25.5416 19.2363 25.1694 17.5983C24.7972 15.9604 23.7896 14.5374 22.3682 13.6423C20.9469 12.7473 19.2281 12.4536 17.5902 12.8258Z" fill="#5845CF"/>
</svg>
