<?xml version="1.0" encoding="UTF-8"?>
<svg width="490px" height="444px" viewBox="0 0 490 444" xmlns="http://www.w3.org/2000/svg" xmlns:xlink="http://www.w3.org/1999/xlink" version="1.1">
 <!-- Generated by Pixelmator Pro 1.8 -->
 <g id="group">
  <defs>
   <linearGradient id="linear-gradient" gradientUnits="userSpaceOnUse" x1="287.163" y1="412.898" x2="138.437" y2="152.772">
    <stop offset="0" stop-color="#567cff" stop-opacity="0"/>
    <stop offset="0.521" stop-color="#42ffff" stop-opacity="1"/>
    <stop offset="1" stop-color="#5778ff" stop-opacity="0"/>
   </linearGradient>
  </defs>
  <path id="Path" d="M-9.469 238.346 L-10.896 239.163 C-16.149 242.169 -15.523 247.479 -9.484 251.01 L265.107 411.851 C271.146 415.382 280.299 415.82 285.553 412.814 L286.979 411.997 C292.232 408.992 291.607 403.682 285.567 400.151 L10.977 239.295 C4.937 235.764 -4.216 235.341 -9.469 238.346 Z" fill-opacity="1" fill="url(#linear-gradient)" stroke="none"/>
 </g>
 <g id="group-1">
  <defs>
   <linearGradient id="linear-gradient-1" gradientUnits="userSpaceOnUse" x1="256.578" y1="343.876" x2="179.506" y2="209.108">
    <stop offset="0" stop-color="#5778ff" stop-opacity="1"/>
    <stop offset="0.01" stop-color="#567cff" stop-opacity="1"/>
    <stop offset="0.126" stop-color="#4fabff" stop-opacity="1"/>
    <stop offset="0.238" stop-color="#49cfff" stop-opacity="1"/>
    <stop offset="0.341" stop-color="#45eaff" stop-opacity="1"/>
    <stop offset="0.433" stop-color="#43f9ff" stop-opacity="1"/>
    <stop offset="0.505" stop-color="#42ffff" stop-opacity="1"/>
    <stop offset="0.572" stop-color="#43f7ff" stop-opacity="1"/>
    <stop offset="0.673" stop-color="#46e3ff" stop-opacity="1"/>
    <stop offset="0.795" stop-color="#4cc0ff" stop-opacity="1"/>
    <stop offset="0.934" stop-color="#5391ff" stop-opacity="1"/>
    <stop offset="1" stop-color="#5778ff" stop-opacity="1"/>
   </linearGradient>
  </defs>
  <path id="Path-1" d="M102.791 252.974 L101.365 253.791 C96.111 256.796 96.737 262.106 102.776 265.637 L235.407 343.322 C241.447 346.853 250.6 347.29 255.854 344.285 L257.28 343.468 C262.533 340.463 261.907 335.152 255.868 331.622 L123.237 253.937 C117.212 250.406 108.059 249.968 102.791 252.974 Z" fill-opacity="1" fill="url(#linear-gradient-1)" stroke="none"/>
 </g>
 <g id="group-2">
  <defs>
   <linearGradient id="linear-gradient-2" gradientUnits="userSpaceOnUse" x1="367.964" y1="364.651" x2="269.415" y2="192.196">
    <stop offset="0" stop-color="#567cff" stop-opacity="0"/>
    <stop offset="0.521" stop-color="#42ffff" stop-opacity="1"/>
    <stop offset="1" stop-color="#5778ff" stop-opacity="0"/>
   </linearGradient>
  </defs>
  <path id="Path-2" d="M172.933 249.633 L171.507 250.45 C166.254 253.456 166.88 258.766 172.919 262.296 L344.769 362.959 C350.808 366.49 359.962 366.927 365.215 363.922 L366.641 363.105 C371.895 360.1 371.269 354.79 365.23 351.259 L193.38 250.596 C187.34 247.051 178.187 246.628 172.933 249.633 Z" fill-opacity="1" fill="url(#linear-gradient-2)" stroke="none"/>
 </g>
 <g id="group-3">
  <defs>
   <linearGradient id="linear-gradient-3" gradientUnits="userSpaceOnUse" x1="404.313" y1="341.561" x2="216.498" y2="13.138">
    <stop offset="0" stop-color="#567cff" stop-opacity="0"/>
    <stop offset="0.521" stop-color="#42ffff" stop-opacity="1"/>
    <stop offset="1" stop-color="#5778ff" stop-opacity="0"/>
   </linearGradient>
  </defs>
  <path id="Path-3" d="M28.529 120.624 L27.103 121.441 C21.849 124.446 22.475 129.757 28.515 133.287 L383.144 341.017 C389.183 344.548 398.336 344.986 403.59 341.98 L405.016 341.163 C410.269 338.158 409.644 332.848 403.604 329.317 L48.975 121.587 C42.936 118.056 33.783 117.619 28.529 120.624 Z" fill-opacity="1" fill="url(#linear-gradient-3)" stroke="none"/>
 </g>
 <g id="group-4">
  <defs>
   <linearGradient id="linear-gradient-4" gradientUnits="userSpaceOnUse" x1="545.734" y1="295.796" x2="357.918" y2="-32.627">
    <stop offset="0" stop-color="#567cff" stop-opacity="0"/>
    <stop offset="0.521" stop-color="#42ffff" stop-opacity="1"/>
    <stop offset="1" stop-color="#5778ff" stop-opacity="0"/>
   </linearGradient>
  </defs>
  <path id="Path-4" d="M169.95 74.859 L168.524 75.676 C163.27 78.681 163.896 83.992 169.935 87.522 L524.564 295.252 C530.604 298.783 539.757 299.22 545.011 296.215 L546.437 295.398 C551.69 292.393 551.064 287.083 545.025 283.552 L190.411 75.822 C184.371 72.291 175.218 71.854 169.95 74.859 Z" fill-opacity="1" fill="url(#linear-gradient-4)" stroke="none"/>
 </g>
 <g id="group-5">
  <defs>
   <linearGradient id="linear-gradient-5" gradientUnits="userSpaceOnUse" x1="391.054" y1="421.346" x2="203.238" y2="92.923">
    <stop offset="0" stop-color="#567cff" stop-opacity="0"/>
    <stop offset="0.521" stop-color="#42ffff" stop-opacity="1"/>
    <stop offset="1" stop-color="#5778ff" stop-opacity="0"/>
   </linearGradient>
  </defs>
  <path id="Path-5" d="M15.27 200.409 L13.844 201.226 C8.59 204.231 9.216 209.542 15.255 213.072 L369.884 420.803 C375.924 424.333 385.077 424.771 390.331 421.765 L391.757 420.948 C397.01 417.943 396.384 412.633 390.345 409.102 L35.731 201.372 C29.691 197.842 20.538 197.404 15.27 200.409 Z" fill-opacity="1" fill="url(#linear-gradient-5)" stroke="none"/>
 </g>
 <g id="group-6">
  <defs>
   <linearGradient id="linear-gradient-6" gradientUnits="userSpaceOnUse" x1="493.972" y1="222.939" x2="306.15" y2="-105.488">
    <stop offset="0" stop-color="#567cff" stop-opacity="0"/>
    <stop offset="0.521" stop-color="#42ffff" stop-opacity="1"/>
    <stop offset="1" stop-color="#5778ff" stop-opacity="0"/>
   </linearGradient>
  </defs>
  <path id="Path-6" d="M118.187 2.002 L116.761 2.819 C111.508 5.825 112.133 11.135 118.173 14.665 L472.802 222.396 C478.841 225.926 487.995 226.364 493.248 223.359 L494.674 222.542 C499.928 219.536 499.302 214.226 493.263 210.696 L138.634 2.965 C132.594 -0.58 123.441 -1.003 118.187 2.002 Z" fill-opacity="1" fill="url(#linear-gradient-6)" stroke="none"/>
 </g>
 <g id="group-7">
  <defs>
   <linearGradient id="linear-gradient-7" gradientUnits="userSpaceOnUse" x1="443.3" y1="319.974" x2="283.078" y2="39.767">
    <stop offset="0" stop-color="#567cff" stop-opacity="0"/>
    <stop offset="0.521" stop-color="#42ffff" stop-opacity="1"/>
    <stop offset="1" stop-color="#5778ff" stop-opacity="0"/>
   </linearGradient>
  </defs>
  <path id="Path-7" d="M123.397 131.784 L121.971 132.601 C116.717 135.607 117.343 140.917 123.382 144.448 L421.504 319.076 C427.543 322.606 436.697 323.044 441.95 320.039 L443.376 319.222 C448.63 316.216 448.004 310.906 441.965 307.376 L143.858 132.733 C137.818 129.202 128.665 128.779 123.397 131.784 Z" fill-opacity="1" fill="url(#linear-gradient-7)" stroke="none"/>
 </g>
 <g id="group-8">
  <defs>
   <linearGradient id="linear-gradient-8" gradientUnits="userSpaceOnUse" x1="318.18" y1="202.269" x2="251.541" y2="85.744">
    <stop offset="0" stop-color="#5778ff" stop-opacity="1"/>
    <stop offset="0.01" stop-color="#567cff" stop-opacity="1"/>
    <stop offset="0.126" stop-color="#4fabff" stop-opacity="1"/>
    <stop offset="0.238" stop-color="#49cfff" stop-opacity="1"/>
    <stop offset="0.341" stop-color="#45eaff" stop-opacity="1"/>
    <stop offset="0.433" stop-color="#43f9ff" stop-opacity="1"/>
    <stop offset="0.505" stop-color="#42ffff" stop-opacity="1"/>
    <stop offset="0.572" stop-color="#43f7ff" stop-opacity="1"/>
    <stop offset="0.673" stop-color="#46e3ff" stop-opacity="1"/>
    <stop offset="0.795" stop-color="#4cc0ff" stop-opacity="1"/>
    <stop offset="0.934" stop-color="#5391ff" stop-opacity="1"/>
    <stop offset="1" stop-color="#5778ff" stop-opacity="1"/>
   </linearGradient>
  </defs>
  <path id="Path-8" d="M185.303 123.615 L183.877 124.432 C178.623 127.438 179.249 132.748 185.288 136.278 L297.008 201.724 C303.047 205.254 312.201 205.692 317.454 202.687 L318.88 201.87 C324.134 198.864 323.508 193.554 317.469 190.024 L205.749 124.578 C199.725 121.048 190.571 120.61 185.303 123.615 Z" fill-opacity="1" fill="url(#linear-gradient-8)" stroke="none"/>
 </g>
 <defs>
  <linearGradient id="linear-gradient-9" gradientUnits="userSpaceOnUse" x1="160.166" y1="155.321" x2="392.291" y2="155.321">
   <stop offset="0" stop-color="#c0d6ff" stop-opacity="1"/>
   <stop offset="0.298" stop-color="#c5dbff" stop-opacity="1"/>
   <stop offset="0.649" stop-color="#d3e9ff" stop-opacity="1"/>
   <stop offset="1" stop-color="#e9ffff" stop-opacity="1"/>
  </linearGradient>
 </defs>
 <path id="Path-9" d="M386.956 306.982 C384.89 308.178 382.765 308.995 380.568 307.711 353.02 291.765 191.691 200.819 164.158 184.888 161.96 183.618 160.17 180.511 160.17 177.958 L160.17 9.194 C160.17 6.102 163.59 5.037 165.744 4.015 168.756 2.6 170.168 1.856 171.638 2.542 L388.295 127.947 C390.492 129.217 392.282 132.324 392.282 134.877 L392.282 301.088 C392.297 303.641 389.023 305.785 386.956 306.982 Z" fill-opacity="1" fill="url(#linear-gradient-9)" stroke="none"/>
 <path id="Path-10" d="M272.487 251.588 C274.553 252.784 276.227 255.702 276.227 258.095 276.227 260.487 274.553 261.465 272.487 260.268 270.42 259.072 268.747 256.154 268.747 253.762 268.747 251.369 270.42 250.392 272.487 251.588 Z" fill="#455a64" fill-opacity="1" stroke="none"/>
 <defs>
  <linearGradient id="linear-gradient-10" gradientUnits="userSpaceOnUse" x1="386.9" y1="126.028" x2="389.791" y2="427.142">
   <stop offset="0" stop-color="#5778ff" stop-opacity="1"/>
   <stop offset="0.178" stop-color="#5c7dff" stop-opacity="1"/>
   <stop offset="0.388" stop-color="#6a8aff" stop-opacity="1"/>
   <stop offset="0.613" stop-color="#82a0ff" stop-opacity="1"/>
   <stop offset="0.849" stop-color="#a3beff" stop-opacity="1"/>
   <stop offset="1" stop-color="#bcd5ff" stop-opacity="1"/>
  </linearGradient>
 </defs>
 <path id="Path-11" d="M383.624 135.242 C384.337 136.497 384.788 137.926 384.802 139.196 L383.333 311.154 389.896 306.019 C391.249 304.969 392.282 303.816 392.282 302.197 L392.297 134.936 C392.297 133.667 391.817 132.178 391.104 130.924 Z" fill-opacity="1" fill="url(#linear-gradient-10)" stroke="none"/>
 <path id="Path-12" d="M380.815 310.731 L164.158 185.34 C161.96 184.071 160.17 180.963 160.17 178.41 L160.17 9.18 C160.17 6.627 161.96 5.591 164.158 6.875 L380.815 132.266 C383.012 133.535 384.802 136.643 384.802 139.196 L384.802 308.426 C384.802 310.979 383.012 312.015 380.815 310.731 Z" fill="#242993" fill-opacity="1" stroke="none"/>
 <path id="Path-13" d="M377.323 292.16 L377.323 141.691 C377.323 140.159 376.246 138.292 374.922 137.533 L170.052 18.955 C168.728 18.196 167.651 18.809 167.651 20.341 L167.651 170.81 C167.651 172.342 168.728 174.209 170.052 174.968 L374.922 293.546 C376.246 294.304 377.323 293.692 377.323 292.16 Z" fill="#4553c7" fill-opacity="1" stroke="none"/>
 <path id="Path-14" d="M229.994 75.661 L272.894 100.447 C273.491 100.797 273.986 101.614 273.986 102.271 273.986 102.927 273.491 103.175 272.894 102.825 L229.994 78.039 C229.397 77.689 228.902 76.872 228.902 76.215 228.902 75.559 229.397 75.311 229.994 75.661 Z" fill="#27debf" fill-opacity="1" stroke="none"/>
 <path id="Path-15" d="M246.394 123.118 L262.664 132.498 C263.26 132.849 263.755 133.666 263.755 134.322 263.755 134.979 263.26 135.227 262.664 134.876 L246.394 125.496 C245.798 125.146 245.303 124.329 245.303 123.672 245.303 123.016 245.783 122.768 246.394 123.118 Z" fill="#e6e6e6" fill-opacity="1" stroke="none"/>
 <path id="Path-16" d="M246.394 132.601 L262.664 141.981 C263.26 142.331 263.755 143.148 263.755 143.805 263.755 144.461 263.26 144.709 262.664 144.359 L246.394 134.979 C245.798 134.629 245.303 133.812 245.303 133.155 245.303 132.499 245.783 132.251 246.394 132.601 Z" fill="#e6e6e6" fill-opacity="1" stroke="none"/>
 <path id="Path-17" d="M277.129 102.899 L363.032 152.501 C363.629 152.851 364.124 153.668 364.124 154.324 364.124 154.981 363.629 155.229 363.032 154.879 L277.129 105.277 C276.532 104.926 276.038 104.109 276.038 103.453 276.038 102.796 276.532 102.548 277.129 102.899 Z" fill="#27debf" fill-opacity="1" stroke="none"/>
 <path id="Path-18" d="M246.743 189.658 L272.894 204.831 C273.491 205.181 273.986 205.998 273.986 206.654 273.986 207.311 273.491 207.559 272.894 207.209 L246.743 192.036 C246.147 191.686 245.652 190.869 245.652 190.213 245.652 189.556 246.147 189.308 246.743 189.658 Z" fill="#27debf" fill-opacity="1" stroke="none"/>
 <path id="Path-19" d="M277.129 207.281 L363.032 256.942 C363.629 257.292 364.124 258.109 364.124 258.765 364.124 259.422 363.629 259.67 363.032 259.32 L277.129 209.659 C276.532 209.309 276.038 208.492 276.038 207.836 276.038 207.179 276.532 206.931 277.129 207.281 Z" fill="#27debf" fill-opacity="1" stroke="none"/>
 <path id="Path-20" d="M229.993 85.172 L251.604 97.617 C252.2 97.967 252.695 98.784 252.695 99.44 252.695 100.097 252.2 100.345 251.604 99.995 L229.993 87.551 C229.397 87.2 228.902 86.383 228.902 85.727 228.902 85.07 229.397 84.822 229.993 85.172 Z" fill="#27debf" fill-opacity="1" stroke="none"/>
 <path id="Path-21" d="M229.993 85.172 L251.604 97.617 C252.2 97.967 252.695 98.784 252.695 99.44 252.695 100.097 252.2 100.345 251.604 99.995 L229.993 87.551 C229.397 87.2 228.902 86.383 228.902 85.727 228.902 85.07 229.397 84.822 229.993 85.172 Z" fill="#ffffff" fill-opacity="1" stroke="none"/>
 <path id="Path-22" d="M229.993 94.641 L240.107 100.491 C240.704 100.841 241.199 101.658 241.199 102.315 241.199 102.971 240.704 103.219 240.107 102.869 L229.993 97.019 C229.397 96.669 228.902 95.852 228.902 95.196 228.902 94.539 229.397 94.291 229.993 94.641 Z" fill="#27debf" fill-opacity="1" stroke="none"/>
 <path id="Path-23" d="M229.993 94.641 L240.107 100.491 C240.704 100.841 241.199 101.658 241.199 102.315 241.199 102.971 240.704 103.219 240.107 102.869 L229.993 97.019 C229.397 96.669 228.902 95.852 228.902 95.196 228.902 94.539 229.397 94.291 229.993 94.641 Z" fill="#ffffff" fill-opacity="1" stroke="none"/>
 <path id="Path-24" d="M229.993 113.621 L240.107 119.471 C240.704 119.821 241.199 120.638 241.199 121.294 241.199 121.951 240.704 122.199 240.107 121.849 L229.993 115.999 C229.397 115.649 228.902 114.832 228.902 114.175 228.902 113.519 229.397 113.271 229.993 113.621 Z" fill="#27debf" fill-opacity="1" stroke="none"/>
 <path id="Path-25" d="M229.993 113.621 L240.107 119.471 C240.704 119.821 241.199 120.638 241.199 121.294 241.199 121.951 240.704 122.199 240.107 121.849 L229.993 115.999 C229.397 115.649 228.902 114.832 228.902 114.175 228.902 113.519 229.397 113.271 229.993 113.621 Z" fill="#ffffff" fill-opacity="1" stroke="none"/>
 <path id="Path-26" d="M229.993 123.118 L240.107 128.968 C240.704 129.318 241.199 130.135 241.199 130.792 241.199 131.448 240.704 131.696 240.107 131.346 L229.993 125.496 C229.397 125.146 228.902 124.329 228.902 123.672 228.902 123.016 229.397 122.768 229.993 123.118 Z" fill="#27debf" fill-opacity="1" stroke="none"/>
 <path id="Path-27" d="M229.993 123.118 L240.107 128.968 C240.704 129.318 241.199 130.135 241.199 130.792 241.199 131.448 240.704 131.696 240.107 131.346 L229.993 125.496 C229.397 125.146 228.902 124.329 228.902 123.672 228.902 123.016 229.397 122.768 229.993 123.118 Z" fill="#ffffff" fill-opacity="1" stroke="none"/>
 <path id="Path-28" d="M255.839 100.068 L268.805 107.596 C269.402 107.946 269.897 108.763 269.897 109.419 269.897 110.076 269.402 110.324 268.805 109.974 L255.839 102.446 C255.242 102.096 254.748 101.279 254.748 100.622 254.748 99.966 255.242 99.718 255.839 100.068 Z" fill="#27debf" fill-opacity="1" stroke="none"/>
 <path id="Path-29" d="M255.839 100.068 L268.805 107.596 C269.402 107.946 269.897 108.763 269.897 109.419 269.897 110.076 269.402 110.324 268.805 109.974 L255.839 102.446 C255.242 102.096 254.748 101.279 254.748 100.622 254.748 99.966 255.242 99.718 255.839 100.068 Z" fill="#ffffff" fill-opacity="1" stroke="none"/>
 <path id="Path-30" d="M275.877 168.679 L363.031 218.982 C363.628 219.332 364.123 220.149 364.123 220.805 364.123 221.462 363.628 221.71 363.031 221.36 L275.877 171.057 C275.28 170.707 274.785 169.89 274.785 169.234 274.785 168.577 275.28 168.329 275.877 168.679 Z" fill="#ffffff" fill-opacity="1" stroke="none"/>
 <path id="Path-31" d="M350.081 201.942 L363.047 209.469 C363.643 209.82 364.138 210.637 364.138 211.293 364.138 211.95 363.643 212.198 363.047 211.847 L350.081 204.32 C349.484 203.969 348.989 203.152 348.989 202.496 348.975 201.839 349.469 201.591 350.081 201.942 Z" fill="#ffffff" fill-opacity="1" stroke="none"/>
 <path id="Path-32" d="M258.691 149.189 L345.846 199.491 C346.442 199.841 346.937 200.658 346.937 201.315 346.937 201.971 346.442 202.219 345.846 201.869 L258.691 151.567 C258.094 151.216 257.6 150.399 257.6 149.743 257.6 149.086 258.08 148.838 258.691 149.189 Z" fill="#ffffff" fill-opacity="1" stroke="none"/>
 <path id="Path-33" d="M246.394 104.139 L268.005 116.583 C268.601 116.933 269.096 117.75 269.096 118.407 269.096 119.063 268.601 119.311 268.005 118.961 L246.394 106.502 C245.798 106.152 245.303 105.335 245.303 104.679 245.303 104.037 245.783 103.789 246.394 104.139 Z" fill="#27debf" fill-opacity="1" stroke="none"/>
 <path id="Path-34" d="M246.394 104.139 L268.005 116.583 C268.601 116.933 269.096 117.75 269.096 118.407 269.096 119.063 268.601 119.311 268.005 118.961 L246.394 106.502 C245.798 106.152 245.303 105.335 245.303 104.679 245.303 104.037 245.783 103.789 246.394 104.139 Z" fill="#ffffff" fill-opacity="1" stroke="none"/>
 <path id="Path-35" d="M272.239 119.034 L362.391 171.32 C362.988 171.67 363.483 172.487 363.483 173.144 363.483 173.8 362.988 174.048 362.391 173.698 L272.239 121.412 C271.642 121.062 271.147 120.245 271.147 119.588 271.147 118.932 271.628 118.684 272.239 119.034 Z" fill="#27debf" fill-opacity="1" stroke="none"/>
 <path id="Path-36" d="M272.239 119.034 L362.391 171.32 C362.988 171.67 363.483 172.487 363.483 173.144 363.483 173.8 362.988 174.048 362.391 173.698 L272.239 121.412 C271.642 121.062 271.147 120.245 271.147 119.588 271.147 118.932 271.628 118.684 272.239 119.034 Z" fill="#ffffff" fill-opacity="1" stroke="none"/>
 <path id="Path-37" d="M246.394 161.268 L363.047 228.698 C363.643 229.048 364.138 229.865 364.138 230.521 364.138 231.178 363.643 231.426 363.047 231.076 L246.394 163.646 C245.798 163.296 245.303 162.479 245.303 161.823 245.303 161.166 245.783 160.918 246.394 161.268 Z" fill="#e6e6e6" fill-opacity="1" stroke="none"/>
 <path id="Path-38" d="M229.993 151.785 L240.107 157.635 C240.704 157.986 241.199 158.803 241.199 159.459 241.199 160.116 240.704 160.364 240.107 160.013 L229.993 154.163 C229.397 153.813 228.902 152.996 228.902 152.34 228.902 151.683 229.397 151.435 229.993 151.785 Z" fill="#27debf" fill-opacity="1" stroke="none"/>
 <path id="Path-39" d="M229.993 151.785 L240.107 157.635 C240.704 157.986 241.199 158.803 241.199 159.459 241.199 160.116 240.704 160.364 240.107 160.013 L229.993 154.163 C229.397 153.813 228.902 152.996 228.902 152.34 228.902 151.683 229.397 151.435 229.993 151.785 Z" fill="#ffffff" fill-opacity="1" stroke="none"/>
 <path id="Path-40" d="M246.394 170.751 L363.047 238.181 C363.643 238.531 364.138 239.348 364.138 240.004 364.138 240.661 363.643 240.909 363.047 240.559 L246.394 173.129 C245.798 172.779 245.303 171.962 245.303 171.305 245.303 170.649 245.783 170.401 246.394 170.751 Z" fill="#e6e6e6" fill-opacity="1" stroke="none"/>
 <path id="Path-41" d="M229.993 161.268 L240.107 167.118 C240.704 167.468 241.199 168.285 241.199 168.942 241.199 169.598 240.704 169.846 240.107 169.496 L229.993 163.646 C229.397 163.296 228.902 162.479 228.902 161.823 228.902 161.166 229.397 160.918 229.993 161.268 Z" fill="#27debf" fill-opacity="1" stroke="none"/>
 <path id="Path-42" d="M229.993 161.268 L240.107 167.118 C240.704 167.468 241.199 168.285 241.199 168.942 241.199 169.598 240.704 169.846 240.107 169.496 L229.993 163.646 C229.397 163.296 228.902 162.479 228.902 161.823 228.902 161.166 229.397 160.918 229.993 161.268 Z" fill="#ffffff" fill-opacity="1" stroke="none"/>
 <path id="Path-43" d="M246.394 180.234 L363.047 247.664 C363.643 248.014 364.138 248.831 364.138 249.487 364.138 250.144 363.643 250.392 363.047 250.042 L246.394 182.612 C245.798 182.262 245.303 181.445 245.303 180.788 245.303 180.132 245.783 179.884 246.394 180.234 Z" fill="#e6e6e6" fill-opacity="1" stroke="none"/>
 <path id="Path-44" d="M229.993 170.751 L240.107 176.601 C240.704 176.951 241.199 177.768 241.199 178.425 241.199 179.081 240.704 179.329 240.107 178.979 L229.993 173.129 C229.397 172.779 228.902 171.962 228.902 171.305 228.902 170.649 229.397 170.401 229.993 170.751 Z" fill="#27debf" fill-opacity="1" stroke="none"/>
 <path id="Path-45" d="M229.993 170.751 L240.107 176.601 C240.704 176.951 241.199 177.768 241.199 178.425 241.199 179.081 240.704 179.329 240.107 178.979 L229.993 173.129 C229.397 172.779 228.902 171.962 228.902 171.305 228.902 170.649 229.397 170.401 229.993 170.751 Z" fill="#ffffff" fill-opacity="1" stroke="none"/>
 <g id="group-9">
  <path id="Path-46" d="M214.234 66.149 L220.171 69.592 C220.768 69.942 221.248 70.774 221.248 71.46 L221.248 73.648 C221.248 74.333 220.768 74.611 220.171 74.275 L214.234 70.832 C213.637 70.482 213.157 69.651 213.157 68.965 L213.157 66.776 C213.157 66.091 213.637 65.799 214.234 66.149 Z" fill="#ffffff" fill-opacity="1" stroke="none"/>
  <path id="Path-47" d="M214.233 75.734 L220.17 79.177 C220.767 79.527 221.247 80.359 221.247 81.044 L221.247 83.232 C221.247 83.918 220.767 84.195 220.17 83.86 L214.233 80.417 C213.636 80.067 213.156 79.235 213.156 78.549 L213.156 76.361 C213.156 75.661 213.636 75.384 214.233 75.734 Z" fill="#ffffff" fill-opacity="1" stroke="none"/>
  <path id="Path-48" d="M214.233 85.304 L220.17 88.747 C220.767 89.097 221.247 89.929 221.247 90.614 L221.247 92.803 C221.247 93.488 220.767 93.766 220.17 93.43 L214.233 89.987 C213.636 89.637 213.156 88.805 213.156 88.12 L213.156 85.931 C213.156 85.246 213.636 84.968 214.233 85.304 Z" fill="#ffffff" fill-opacity="1" stroke="none"/>
  <path id="Path-49" d="M214.233 94.889 L220.17 98.332 C220.767 98.682 221.247 99.514 221.247 100.199 L221.247 102.388 C221.247 103.073 220.767 103.351 220.17 103.015 L214.233 99.572 C213.636 99.222 213.156 98.39 213.156 97.69 L213.156 95.502 C213.156 94.816 213.636 94.539 214.233 94.889 Z" fill="#ffffff" fill-opacity="1" stroke="none"/>
  <path id="Path-50" d="M214.233 104.46 L220.17 107.903 C220.767 108.253 221.247 109.084 221.247 109.77 L221.247 111.958 C221.247 112.644 220.767 112.921 220.17 112.586 L214.233 109.143 C213.636 108.793 213.156 107.961 213.156 107.275 L213.156 105.087 C213.156 104.401 213.636 104.124 214.233 104.46 Z" fill="#ffffff" fill-opacity="1" stroke="none"/>
  <path id="Path-51" d="M214.233 114.044 L220.17 117.487 C220.767 117.837 221.247 118.669 221.247 119.355 L221.247 121.543 C221.247 122.229 220.767 122.506 220.17 122.17 L214.233 118.727 C213.636 118.377 213.156 117.546 213.156 116.86 L213.156 114.672 C213.156 113.971 213.636 113.694 214.233 114.044 Z" fill="#ffffff" fill-opacity="1" stroke="none"/>
  <path id="Path-52" d="M214.233 123.614 L220.17 127.057 C220.767 127.407 221.247 128.239 221.247 128.925 L221.247 131.113 C221.247 131.799 220.767 132.076 220.17 131.74 L214.233 128.297 C213.636 127.947 213.156 127.116 213.156 126.415 L213.156 124.227 C213.156 123.556 213.636 123.279 214.233 123.614 Z" fill="#ffffff" fill-opacity="1" stroke="none"/>
  <path id="Path-53" d="M214.233 133.199 L220.17 136.642 C220.767 136.992 221.247 137.824 221.247 138.51 L221.247 140.698 C221.247 141.384 220.767 141.661 220.17 141.325 L214.233 137.882 C213.636 137.532 213.156 136.701 213.156 136 L213.156 133.812 C213.156 133.141 213.636 132.849 214.233 133.199 Z" fill="#ffffff" fill-opacity="1" stroke="none"/>
  <path id="Path-54" d="M214.233 142.784 L220.17 146.227 C220.767 146.577 221.247 147.409 221.247 148.094 L221.247 150.283 C221.247 150.968 220.767 151.246 220.17 150.91 L214.233 147.467 C213.636 147.117 213.156 146.285 213.156 145.6 L213.156 143.411 C213.156 142.711 213.636 142.434 214.233 142.784 Z" fill="#ffffff" fill-opacity="1" stroke="none"/>
  <path id="Path-55" d="M214.233 152.354 L220.17 155.797 C220.767 156.147 221.247 156.979 221.247 157.665 L221.247 159.853 C221.247 160.539 220.767 160.816 220.17 160.48 L214.233 157.037 C213.636 156.687 213.156 155.856 213.156 155.17 L213.156 152.982 C213.156 152.296 213.636 152.019 214.233 152.354 Z" fill="#ffffff" fill-opacity="1" stroke="none"/>
  <path id="Path-56" d="M214.233 161.939 L220.17 165.382 C220.767 165.732 221.247 166.564 221.247 167.249 L221.247 169.438 C221.247 170.123 220.767 170.4 220.17 170.065 L214.233 166.622 C213.636 166.272 213.156 165.44 213.156 164.755 L213.156 162.566 C213.156 161.866 213.636 161.589 214.233 161.939 Z" fill="#ffffff" fill-opacity="1" stroke="none"/>
  <path id="Path-57" d="M214.233 171.51 L220.17 174.952 C220.767 175.303 221.247 176.134 221.247 176.82 L221.247 179.008 C221.247 179.694 220.767 179.971 220.17 179.635 L214.233 176.193 C213.636 175.842 213.156 175.011 213.156 174.325 L213.156 172.137 C213.156 171.451 213.636 171.174 214.233 171.51 Z" fill="#ffffff" fill-opacity="1" stroke="none"/>
 </g>
 <path id="Path-58" d="M174.81 35.031 L206.942 53.632 C208.135 54.317 209.096 55.995 209.096 57.381 L209.096 94.582 C209.096 95.969 208.135 96.523 206.942 95.837 L174.81 77.236 C173.617 76.551 172.656 74.873 172.656 73.487 L172.656 36.286 C172.642 34.9 173.617 34.345 174.81 35.031 Z" fill="#37474f" fill-opacity="1" stroke="none"/>
 <path id="Path-59" d="M177.793 71.911 L180.747 73.633 C181.344 73.983 181.839 74.8 181.839 75.456 181.839 76.113 181.344 76.361 180.747 76.011 L177.793 74.289 C177.196 73.939 176.702 73.122 176.702 72.466 176.702 71.809 177.182 71.561 177.793 71.911 Z" fill="#27debf" fill-opacity="1" stroke="none"/>
 <path id="Path-60" d="M177.793 71.911 L180.747 73.633 C181.344 73.983 181.839 74.8 181.839 75.456 181.839 76.113 181.344 76.361 180.747 76.011 L177.793 74.289 C177.196 73.939 176.702 73.122 176.702 72.466 176.702 71.809 177.182 71.561 177.793 71.911 Z" fill="#ffffff" fill-opacity="1" stroke="none"/>
 <path id="Path-61" d="M177.793 41.45 L180.747 43.172 C181.344 43.522 181.839 44.339 181.839 44.995 181.839 45.652 181.344 45.9 180.747 45.55 L177.793 43.828 C177.196 43.478 176.702 42.661 176.702 42.005 176.702 41.348 177.182 41.1 177.793 41.45 Z" fill="#27debf" fill-opacity="1" stroke="none"/>
 <path id="Path-62" d="M177.793 41.45 L180.747 43.172 C181.344 43.522 181.839 44.339 181.839 44.995 181.839 45.652 181.344 45.9 180.747 45.55 L177.793 43.828 C177.196 43.478 176.702 42.661 176.702 42.005 176.702 41.348 177.182 41.1 177.793 41.45 Z" fill="#ffffff" fill-opacity="1" stroke="none"/>
 <path id="Path-63" d="M181.941 49.926 L184.91 51.647 C185.506 51.997 186.001 52.815 186.001 53.471 186.001 54.128 185.506 54.375 184.91 54.025 L181.956 52.304 C181.359 51.954 180.864 51.137 180.864 50.48 180.85 49.824 181.344 49.576 181.941 49.926 Z" fill="#27debf" fill-opacity="1" stroke="none"/>
 <path id="Path-64" d="M181.941 49.926 L184.91 51.647 C185.506 51.997 186.001 52.815 186.001 53.471 186.001 54.128 185.506 54.375 184.91 54.025 L181.956 52.304 C181.359 51.954 180.864 51.137 180.864 50.48 180.85 49.824 181.344 49.576 181.941 49.926 Z" fill="#ffffff" fill-opacity="1" stroke="none"/>
 <path id="Path-65" d="M181.941 56.009 L184.895 57.731 C185.491 58.081 185.986 58.898 185.986 59.555 185.986 60.211 185.491 60.459 184.895 60.109 L181.941 58.387 C181.344 58.037 180.849 57.22 180.849 56.564 180.849 55.907 181.344 55.659 181.941 56.009 Z" fill="#27debf" fill-opacity="1" stroke="none"/>
 <path id="Path-66" d="M181.941 56.009 L184.895 57.731 C185.491 58.081 185.986 58.898 185.986 59.555 185.986 60.211 185.491 60.459 184.895 60.109 L181.941 58.387 C181.344 58.037 180.849 57.22 180.849 56.564 180.849 55.907 181.344 55.659 181.941 56.009 Z" fill="#ffffff" fill-opacity="1" stroke="none"/>
 <path id="Path-67" d="M177.793 59.716 L180.747 61.437 C181.344 61.787 181.839 62.604 181.839 63.261 181.839 63.917 181.344 64.165 180.747 63.815 L177.793 62.094 C177.196 61.743 176.702 60.926 176.702 60.27 176.702 59.613 177.182 59.365 177.793 59.716 Z" fill="#27debf" fill-opacity="1" stroke="none"/>
 <path id="Path-68" d="M177.793 59.716 L180.747 61.437 C181.344 61.787 181.839 62.604 181.839 63.261 181.839 63.917 181.344 64.165 180.747 63.815 L177.793 62.094 C177.196 61.743 176.702 60.926 176.702 60.27 176.702 59.613 177.182 59.365 177.793 59.716 Z" fill="#ffffff" fill-opacity="1" stroke="none"/>
 <path id="Path-69" d="M181.941 68.206 L184.895 69.927 C185.491 70.277 185.986 71.094 185.986 71.751 185.986 72.407 185.491 72.655 184.895 72.305 L181.941 70.584 C181.344 70.234 180.849 69.417 180.849 68.76 180.849 68.118 181.344 67.87 181.941 68.206 Z" fill="#27debf" fill-opacity="1" stroke="none"/>
 <path id="Path-70" d="M181.941 68.206 L184.895 69.927 C185.491 70.277 185.986 71.094 185.986 71.751 185.986 72.407 185.491 72.655 184.895 72.305 L181.941 70.584 C181.344 70.234 180.849 69.417 180.849 68.76 180.849 68.118 181.344 67.87 181.941 68.206 Z" fill="#ffffff" fill-opacity="1" stroke="none"/>
 <path id="Path-71" d="M185.884 46.133 L203.959 56.593 C204.555 56.943 205.05 57.76 205.05 58.417 205.05 59.073 204.555 59.321 203.959 58.971 L185.884 48.511 C185.288 48.161 184.793 47.344 184.793 46.687 184.793 46.031 185.288 45.783 185.884 46.133 Z" fill="#27debf" fill-opacity="1" stroke="none"/>
 <path id="Path-72" d="M185.884 46.133 L203.959 56.593 C204.555 56.943 205.05 57.76 205.05 58.417 205.05 59.073 204.555 59.321 203.959 58.971 L185.884 48.511 C185.288 48.161 184.793 47.344 184.793 46.687 184.793 46.031 185.288 45.783 185.884 46.133 Z" fill="#ffffff" fill-opacity="1" stroke="none"/>
 <path id="Path-73" d="M185.884 76.609 L203.959 87.07 C204.555 87.42 205.05 88.237 205.05 88.893 205.05 89.55 204.555 89.798 203.959 89.448 L185.884 78.987 C185.288 78.637 184.793 77.82 184.793 77.164 184.793 76.507 185.288 76.259 185.884 76.609 Z" fill="#27debf" fill-opacity="1" stroke="none"/>
 <path id="Path-74" d="M185.884 76.609 L203.959 87.07 C204.555 87.42 205.05 88.237 205.05 88.893 205.05 89.55 204.555 89.798 203.959 89.448 L185.884 78.987 C185.288 78.637 184.793 77.82 184.793 77.164 184.793 76.507 185.288 76.259 185.884 76.609 Z" fill="#ffffff" fill-opacity="1" stroke="none"/>
 <path id="Path-75" d="M190.047 54.624 L203.959 62.691 C204.555 63.041 205.05 63.858 205.05 64.515 205.05 65.171 204.555 65.419 203.959 65.069 L190.047 57.002 C189.45 56.651 188.955 55.835 188.955 55.178 188.955 54.522 189.45 54.273 190.047 54.624 Z" fill="#27debf" fill-opacity="1" stroke="none"/>
 <path id="Path-76" d="M190.047 54.624 L203.959 62.691 C204.555 63.041 205.05 63.858 205.05 64.515 205.05 65.171 204.555 65.419 203.959 65.069 L190.047 57.002 C189.45 56.651 188.955 55.835 188.955 55.178 188.955 54.522 189.45 54.273 190.047 54.624 Z" fill="#ffffff" fill-opacity="1" stroke="none"/>
 <path id="Path-77" d="M190.047 60.722 L203.959 68.79 C204.555 69.14 205.05 69.957 205.05 70.613 205.05 71.27 204.555 71.518 203.959 71.168 L190.047 63.1 C189.45 62.75 188.955 61.933 188.955 61.277 188.955 60.62 189.45 60.372 190.047 60.722 Z" fill="#27debf" fill-opacity="1" stroke="none"/>
 <path id="Path-78" d="M190.047 60.722 L203.959 68.79 C204.555 69.14 205.05 69.957 205.05 70.613 205.05 71.27 204.555 71.518 203.959 71.168 L190.047 63.1 C189.45 62.75 188.955 61.933 188.955 61.277 188.955 60.62 189.45 60.372 190.047 60.722 Z" fill="#ffffff" fill-opacity="1" stroke="none"/>
 <path id="Path-79" d="M185.884 64.413 L203.959 74.873 C204.555 75.223 205.05 76.04 205.05 76.697 205.05 77.353 204.555 77.601 203.959 77.251 L185.884 66.791 C185.288 66.441 184.793 65.624 184.793 64.967 184.793 64.311 185.288 64.063 185.884 64.413 Z" fill="#27debf" fill-opacity="1" stroke="none"/>
 <path id="Path-80" d="M185.884 64.413 L203.959 74.873 C204.555 75.223 205.05 76.04 205.05 76.697 205.05 77.353 204.555 77.601 203.959 77.251 L185.884 66.791 C185.288 66.441 184.793 65.624 184.793 64.967 184.793 64.311 185.288 64.063 185.884 64.413 Z" fill="#ffffff" fill-opacity="1" stroke="none"/>
 <path id="Path-81" d="M190.047 72.904 L203.959 80.971 C204.555 81.321 205.05 82.138 205.05 82.795 205.05 83.451 204.555 83.699 203.959 83.349 L190.047 75.281 C189.45 74.931 188.955 74.114 188.955 73.458 188.955 72.801 189.45 72.553 190.047 72.904 Z" fill="#27debf" fill-opacity="1" stroke="none"/>
 <path id="Path-82" d="M190.047 72.904 L203.959 80.971 C204.555 81.321 205.05 82.138 205.05 82.795 205.05 83.451 204.555 83.699 203.959 83.349 L190.047 75.281 C189.45 74.931 188.955 74.114 188.955 73.458 188.955 72.801 189.45 72.553 190.047 72.904 Z" fill="#ffffff" fill-opacity="1" stroke="none"/>
 <path id="Path-83" d="M174.81 84.239 L206.942 102.84 C208.135 103.526 209.096 105.204 209.096 106.589 L209.096 180.103 C209.096 181.488 208.135 182.043 206.942 181.357 L174.81 162.756 C173.617 162.071 172.656 160.393 172.656 159.007 L172.656 85.479 C172.642 84.108 173.617 83.539 174.81 84.239 Z" fill="#37474f" fill-opacity="1" stroke="none"/>
 <path id="Path-84" d="M177.793 90.644 L180.747 92.365 C181.344 92.715 181.839 93.532 181.839 94.189 181.839 94.845 181.344 95.093 180.747 94.743 L177.793 93.022 C177.196 92.672 176.702 91.855 176.702 91.198 176.702 90.542 177.182 90.294 177.793 90.644 Z" fill="#27debf" fill-opacity="1" stroke="none"/>
 <path id="Path-85" d="M177.793 90.644 L180.747 92.365 C181.344 92.715 181.839 93.532 181.839 94.189 181.839 94.845 181.344 95.093 180.747 94.743 L177.793 93.022 C177.196 92.672 176.702 91.855 176.702 91.198 176.702 90.542 177.182 90.294 177.793 90.644 Z" fill="#ffffff" fill-opacity="1" stroke="none"/>
 <path id="Path-86" d="M181.941 99.134 L184.895 100.856 C185.491 101.206 185.986 102.023 185.986 102.679 185.986 103.336 185.491 103.584 184.895 103.234 L181.941 101.512 C181.344 101.162 180.849 100.345 180.849 99.689 180.849 99.032 181.344 98.784 181.941 99.134 Z" fill="#27debf" fill-opacity="1" stroke="none"/>
 <path id="Path-87" d="M181.941 99.134 L184.895 100.856 C185.491 101.206 185.986 102.023 185.986 102.679 185.986 103.336 185.491 103.584 184.895 103.234 L181.941 101.512 C181.344 101.162 180.849 100.345 180.849 99.689 180.849 99.032 181.344 98.784 181.941 99.134 Z" fill="#ffffff" fill-opacity="1" stroke="none"/>
 <path id="Path-88" d="M181.941 105.203 L184.895 106.925 C185.491 107.275 185.986 108.092 185.986 108.748 185.986 109.405 185.491 109.653 184.895 109.303 L181.941 107.581 C181.344 107.231 180.849 106.414 180.849 105.758 180.849 105.116 181.344 104.868 181.941 105.203 Z" fill="#27debf" fill-opacity="1" stroke="none"/>
 <path id="Path-89" d="M181.941 105.203 L184.895 106.925 C185.491 107.275 185.986 108.092 185.986 108.748 185.986 109.405 185.491 109.653 184.895 109.303 L181.941 107.581 C181.344 107.231 180.849 106.414 180.849 105.758 180.849 105.116 181.344 104.868 181.941 105.203 Z" fill="#ffffff" fill-opacity="1" stroke="none"/>
 <path id="Path-90" d="M177.793 108.923 L180.747 110.645 C181.344 110.995 181.839 111.812 181.839 112.469 181.839 113.125 181.344 113.373 180.747 113.023 L177.793 111.301 C177.196 110.951 176.702 110.134 176.702 109.478 176.702 108.821 177.182 108.573 177.793 108.923 Z" fill="#27debf" fill-opacity="1" stroke="none"/>
 <path id="Path-91" d="M177.793 108.923 L180.747 110.645 C181.344 110.995 181.839 111.812 181.839 112.469 181.839 113.125 181.344 113.373 180.747 113.023 L177.793 111.301 C177.196 110.951 176.702 110.134 176.702 109.478 176.702 108.821 177.182 108.573 177.793 108.923 Z" fill="#ffffff" fill-opacity="1" stroke="none"/>
 <path id="Path-92" d="M185.884 95.342 L203.959 105.802 C204.555 106.152 205.05 106.969 205.05 107.626 205.05 108.282 204.555 108.53 203.959 108.18 L185.884 97.72 C185.288 97.37 184.793 96.553 184.793 95.896 184.793 95.24 185.288 94.992 185.884 95.342 Z" fill="#27debf" fill-opacity="1" stroke="none"/>
 <path id="Path-93" d="M185.884 95.342 L203.959 105.802 C204.555 106.152 205.05 106.969 205.05 107.626 205.05 108.282 204.555 108.53 203.959 108.18 L185.884 97.72 C185.288 97.37 184.793 96.553 184.793 95.896 184.793 95.24 185.288 94.992 185.884 95.342 Z" fill="#ffffff" fill-opacity="1" stroke="none"/>
 <path id="Path-94" d="M190.047 103.818 L203.959 111.886 C204.555 112.236 205.05 113.053 205.05 113.709 205.05 114.366 204.555 114.614 203.959 114.264 L190.047 106.196 C189.45 105.846 188.955 105.029 188.955 104.372 188.955 103.716 189.45 103.468 190.047 103.818 Z" fill="#27debf" fill-opacity="1" stroke="none"/>
 <path id="Path-95" d="M190.047 103.818 L203.959 111.886 C204.555 112.236 205.05 113.053 205.05 113.709 205.05 114.366 204.555 114.614 203.959 114.264 L190.047 106.196 C189.45 105.846 188.955 105.029 188.955 104.372 188.955 103.716 189.45 103.468 190.047 103.818 Z" fill="#ffffff" fill-opacity="1" stroke="none"/>
 <path id="Path-96" d="M190.047 109.917 L203.959 117.984 C204.555 118.334 205.05 119.151 205.05 119.808 205.05 120.464 204.555 120.712 203.959 120.362 L190.047 112.295 C189.45 111.945 188.955 111.128 188.955 110.471 188.955 109.815 189.45 109.567 190.047 109.917 Z" fill="#27debf" fill-opacity="1" stroke="none"/>
 <path id="Path-97" d="M190.047 109.917 L203.959 117.984 C204.555 118.334 205.05 119.151 205.05 119.808 205.05 120.464 204.555 120.712 203.959 120.362 L190.047 112.295 C189.45 111.945 188.955 111.128 188.955 110.471 188.955 109.815 189.45 109.567 190.047 109.917 Z" fill="#ffffff" fill-opacity="1" stroke="none"/>
 <path id="Path-98" d="M185.884 113.622 L203.959 124.082 C204.555 124.432 205.05 125.249 205.05 125.906 205.05 126.562 204.555 126.81 203.959 126.46 L185.884 116 C185.288 115.65 184.793 114.833 184.793 114.176 184.793 113.52 185.288 113.272 185.884 113.622 Z" fill="#27debf" fill-opacity="1" stroke="none"/>
 <path id="Path-99" d="M185.884 113.622 L203.959 124.082 C204.555 124.432 205.05 125.249 205.05 125.906 205.05 126.562 204.555 126.81 203.959 126.46 L185.884 116 C185.288 115.65 184.793 114.833 184.793 114.176 184.793 113.52 185.288 113.272 185.884 113.622 Z" fill="#ffffff" fill-opacity="1" stroke="none"/>
 <path id="Path-100" d="M181.941 117.444 L184.895 119.165 C185.491 119.516 185.986 120.333 185.986 120.989 185.986 121.646 185.491 121.894 184.895 121.543 L181.941 119.822 C181.344 119.472 180.849 118.655 180.849 117.998 180.849 117.342 181.344 117.094 181.941 117.444 Z" fill="#27debf" fill-opacity="1" stroke="none"/>
 <path id="Path-101" d="M181.941 117.444 L184.895 119.165 C185.491 119.516 185.986 120.333 185.986 120.989 185.986 121.646 185.491 121.894 184.895 121.543 L181.941 119.822 C181.344 119.472 180.849 118.655 180.849 117.998 180.849 117.342 181.344 117.094 181.941 117.444 Z" fill="#ffffff" fill-opacity="1" stroke="none"/>
 <path id="Path-102" d="M181.941 123.527 L184.895 125.249 C185.491 125.599 185.986 126.416 185.986 127.073 185.986 127.729 185.491 127.977 184.895 127.627 L181.941 125.905 C181.344 125.555 180.849 124.738 180.849 124.082 180.849 123.425 181.344 123.177 181.941 123.527 Z" fill="#27debf" fill-opacity="1" stroke="none"/>
 <path id="Path-103" d="M181.941 123.527 L184.895 125.249 C185.491 125.599 185.986 126.416 185.986 127.073 185.986 127.729 185.491 127.977 184.895 127.627 L181.941 125.905 C181.344 125.555 180.849 124.738 180.849 124.082 180.849 123.425 181.344 123.177 181.941 123.527 Z" fill="#ffffff" fill-opacity="1" stroke="none"/>
 <path id="Path-104" d="M190.047 122.141 L203.959 130.209 C204.555 130.559 205.05 131.376 205.05 132.032 205.05 132.689 204.555 132.937 203.959 132.587 L190.047 124.519 C189.45 124.169 188.955 123.352 188.955 122.696 188.955 122.039 189.45 121.791 190.047 122.141 Z" fill="#27debf" fill-opacity="1" stroke="none"/>
 <path id="Path-105" d="M190.047 122.141 L203.959 130.209 C204.555 130.559 205.05 131.376 205.05 132.032 205.05 132.689 204.555 132.937 203.959 132.587 L190.047 124.519 C189.45 124.169 188.955 123.352 188.955 122.696 188.955 122.039 189.45 121.791 190.047 122.141 Z" fill="#ffffff" fill-opacity="1" stroke="none"/>
 <path id="Path-106" d="M190.047 128.24 L203.959 136.308 C204.555 136.658 205.05 137.475 205.05 138.131 205.05 138.788 204.555 139.036 203.959 138.685 L190.047 130.618 C189.45 130.268 188.955 129.451 188.955 128.794 188.955 128.138 189.45 127.89 190.047 128.24 Z" fill="#27debf" fill-opacity="1" stroke="none"/>
 <path id="Path-107" d="M190.047 128.24 L203.959 136.308 C204.555 136.658 205.05 137.475 205.05 138.131 205.05 138.788 204.555 139.036 203.959 138.685 L190.047 130.618 C189.45 130.268 188.955 129.451 188.955 128.794 188.955 128.138 189.45 127.89 190.047 128.24 Z" fill="#ffffff" fill-opacity="1" stroke="none"/>
 <path id="Path-108" d="M177.793 139.458 L180.747 141.18 C181.344 141.53 181.839 142.347 181.839 143.003 181.839 143.66 181.344 143.908 180.747 143.558 L177.793 141.836 C177.196 141.486 176.702 140.669 176.702 140.013 176.702 139.356 177.182 139.108 177.793 139.458 Z" fill="#27debf" fill-opacity="1" stroke="none"/>
 <path id="Path-109" d="M177.793 139.458 L180.747 141.18 C181.344 141.53 181.839 142.347 181.839 143.003 181.839 143.66 181.344 143.908 180.747 143.558 L177.793 141.836 C177.196 141.486 176.702 140.669 176.702 140.013 176.702 139.356 177.182 139.108 177.793 139.458 Z" fill="#ffffff" fill-opacity="1" stroke="none"/>
 <path id="Path-110" d="M185.884 144.156 L203.959 154.617 C204.555 154.967 205.05 155.784 205.05 156.44 205.05 157.097 204.555 157.345 203.959 156.995 L185.884 146.534 C185.288 146.184 184.793 145.367 184.793 144.711 184.793 144.054 185.288 143.806 185.884 144.156 Z" fill="#27debf" fill-opacity="1" stroke="none"/>
 <path id="Path-111" d="M185.884 144.156 L203.959 154.617 C204.555 154.967 205.05 155.784 205.05 156.44 205.05 157.097 204.555 157.345 203.959 156.995 L185.884 146.534 C185.288 146.184 184.793 145.367 184.793 144.711 184.793 144.054 185.288 143.806 185.884 144.156 Z" fill="#ffffff" fill-opacity="1" stroke="none"/>
 <path id="Path-112" d="M181.941 147.992 L184.895 149.714 C185.491 150.064 185.986 150.881 185.986 151.537 185.986 152.194 185.491 152.442 184.895 152.092 L181.941 150.37 C181.344 150.02 180.849 149.203 180.849 148.547 180.849 147.89 181.344 147.642 181.941 147.992 Z" fill="#27debf" fill-opacity="1" stroke="none"/>
 <path id="Path-113" d="M181.941 147.992 L184.895 149.714 C185.491 150.064 185.986 150.881 185.986 151.537 185.986 152.194 185.491 152.442 184.895 152.092 L181.941 150.37 C181.344 150.02 180.849 149.203 180.849 148.547 180.849 147.89 181.344 147.642 181.941 147.992 Z" fill="#ffffff" fill-opacity="1" stroke="none"/>
 <path id="Path-114" d="M181.941 154.062 L184.895 155.783 C185.491 156.133 185.986 156.95 185.986 157.607 185.986 158.263 185.491 158.511 184.895 158.161 L181.941 156.44 C181.344 156.09 180.849 155.273 180.849 154.616 180.849 153.96 181.344 153.712 181.941 154.062 Z" fill="#27debf" fill-opacity="1" stroke="none"/>
 <path id="Path-115" d="M181.941 154.062 L184.895 155.783 C185.491 156.133 185.986 156.95 185.986 157.607 185.986 158.263 185.491 158.511 184.895 158.161 L181.941 156.44 C181.344 156.09 180.849 155.273 180.849 154.616 180.849 153.96 181.344 153.712 181.941 154.062 Z" fill="#ffffff" fill-opacity="1" stroke="none"/>
 <path id="Path-116" d="M190.047 152.676 L203.959 160.744 C204.555 161.094 205.05 161.911 205.05 162.568 205.05 163.224 204.555 163.472 203.959 163.122 L190.047 155.054 C189.45 154.704 188.955 153.887 188.955 153.231 188.955 152.574 189.45 152.326 190.047 152.676 Z" fill="#27debf" fill-opacity="1" stroke="none"/>
 <path id="Path-117" d="M190.047 152.676 L203.959 160.744 C204.555 161.094 205.05 161.911 205.05 162.568 205.05 163.224 204.555 163.472 203.959 163.122 L190.047 155.054 C189.45 154.704 188.955 153.887 188.955 153.231 188.955 152.574 189.45 152.326 190.047 152.676 Z" fill="#ffffff" fill-opacity="1" stroke="none"/>
 <path id="Path-118" d="M190.047 158.774 L203.959 166.842 C204.555 167.192 205.05 168.009 205.05 168.665 205.05 169.322 204.555 169.57 203.959 169.22 L190.047 161.152 C189.45 160.802 188.955 159.985 188.955 159.328 188.955 158.672 189.45 158.424 190.047 158.774 Z" fill="#27debf" fill-opacity="1" stroke="none"/>
 <path id="Path-119" d="M190.047 158.774 L203.959 166.842 C204.555 167.192 205.05 168.009 205.05 168.665 205.05 169.322 204.555 169.57 203.959 169.22 L190.047 161.152 C189.45 160.802 188.955 159.985 188.955 159.328 188.955 158.672 189.45 158.424 190.047 158.774 Z" fill="#ffffff" fill-opacity="1" stroke="none"/>
 <path id="Path-120" d="M181.941 129.568 L184.895 131.289 C185.491 131.639 185.986 132.456 185.986 133.113 185.986 133.769 185.491 134.017 184.895 133.667 L181.941 131.946 C181.344 131.595 180.849 130.778 180.849 130.122 180.849 129.465 181.344 129.217 181.941 129.568 Z" fill="#27debf" fill-opacity="1" stroke="none"/>
 <path id="Path-121" d="M181.941 129.568 L184.895 131.289 C185.491 131.639 185.986 132.456 185.986 133.113 185.986 133.769 185.491 134.017 184.895 133.667 L181.941 131.946 C181.344 131.595 180.849 130.778 180.849 130.122 180.849 129.465 181.344 129.217 181.941 129.568 Z" fill="#ffffff" fill-opacity="1" stroke="none"/>
 <path id="Path-122" d="M177.793 133.287 L180.747 135.009 C181.344 135.359 181.839 136.176 181.839 136.832 181.839 137.489 181.344 137.737 180.747 137.387 L177.793 135.665 C177.196 135.315 176.702 134.498 176.702 133.842 176.702 133.185 177.182 132.937 177.793 133.287 Z" fill="#27debf" fill-opacity="1" stroke="none"/>
 <path id="Path-123" d="M177.793 133.287 L180.747 135.009 C181.344 135.359 181.839 136.176 181.839 136.832 181.839 137.489 181.344 137.737 180.747 137.387 L177.793 135.665 C177.196 135.315 176.702 134.498 176.702 133.842 176.702 133.185 177.182 132.937 177.793 133.287 Z" fill="#ffffff" fill-opacity="1" stroke="none"/>
 <path id="Path-124" d="M190.047 134.279 L203.959 142.347 C204.555 142.697 205.05 143.514 205.05 144.171 205.05 144.827 204.555 145.075 203.959 144.725 L190.047 136.657 C189.45 136.307 188.955 135.49 188.955 134.834 188.955 134.177 189.45 133.929 190.047 134.279 Z" fill="#27debf" fill-opacity="1" stroke="none"/>
 <path id="Path-125" d="M190.047 134.279 L203.959 142.347 C204.555 142.697 205.05 143.514 205.05 144.171 205.05 144.827 204.555 145.075 203.959 144.725 L190.047 136.657 C189.45 136.307 188.955 135.49 188.955 134.834 188.955 134.177 189.45 133.929 190.047 134.279 Z" fill="#ffffff" fill-opacity="1" stroke="none"/>
 <path id="Path-126" d="M185.884 137.985 L203.959 148.445 C204.555 148.795 205.05 149.612 205.05 150.268 205.05 150.925 204.555 151.173 203.959 150.823 L185.884 140.362 C185.288 140.012 184.793 139.195 184.793 138.539 184.793 137.882 185.288 137.634 185.884 137.985 Z" fill="#27debf" fill-opacity="1" stroke="none"/>
 <path id="Path-127" d="M185.884 137.985 L203.959 148.445 C204.555 148.795 205.05 149.612 205.05 150.268 205.05 150.925 204.555 151.173 203.959 150.823 L185.884 140.362 C185.288 140.012 184.793 139.195 184.793 138.539 184.793 137.882 185.288 137.634 185.884 137.985 Z" fill="#ffffff" fill-opacity="1" stroke="none"/>
 <path id="Path-128" d="M177.793 157.87 L180.747 159.591 C181.344 159.941 181.839 160.758 181.839 161.415 181.839 162.071 181.344 162.319 180.747 161.969 L177.793 160.248 C177.196 159.898 176.702 159.081 176.702 158.424 176.702 157.768 177.182 157.52 177.793 157.87 Z" fill="#27debf" fill-opacity="1" stroke="none"/>
 <path id="Path-129" d="M177.793 157.87 L180.747 159.591 C181.344 159.941 181.839 160.758 181.839 161.415 181.839 162.071 181.344 162.319 180.747 161.969 L177.793 160.248 C177.196 159.898 176.702 159.081 176.702 158.424 176.702 157.768 177.182 157.52 177.793 157.87 Z" fill="#ffffff" fill-opacity="1" stroke="none"/>
 <path id="Path-130" d="M185.884 162.553 L203.959 173.013 C204.555 173.363 205.05 174.18 205.05 174.837 205.05 175.493 204.555 175.741 203.959 175.391 L185.884 164.931 C185.288 164.581 184.793 163.764 184.793 163.107 184.793 162.451 185.288 162.203 185.884 162.553 Z" fill="#27debf" fill-opacity="1" stroke="none"/>
 <path id="Path-131" d="M185.884 162.553 L203.959 173.013 C204.555 173.363 205.05 174.18 205.05 174.837 205.05 175.493 204.555 175.741 203.959 175.391 L185.884 164.931 C185.288 164.581 184.793 163.764 184.793 163.107 184.793 162.451 185.288 162.203 185.884 162.553 Z" fill="#ffffff" fill-opacity="1" stroke="none"/>
 <defs>
  <linearGradient id="linear-gradient-11" gradientUnits="userSpaceOnUse" x1="373.282" y1="319.582" x2="32.289" y2="319.582">
   <stop offset="0" stop-color="#42ffff" stop-opacity="1"/>
   <stop offset="0.151" stop-color="#43faff" stop-opacity="1"/>
   <stop offset="0.329" stop-color="#45ecff" stop-opacity="1"/>
   <stop offset="0.52" stop-color="#49d4ff" stop-opacity="1"/>
   <stop offset="0.721" stop-color="#4eb3ff" stop-opacity="1"/>
   <stop offset="0.927" stop-color="#5489ff" stop-opacity="1"/>
   <stop offset="1" stop-color="#5778ff" stop-opacity="1"/>
  </linearGradient>
 </defs>
 <path id="Path-132" d="M245.099 419.491 C241.811 419.491 238.522 418.645 235.582 416.938 L34.627 300.636 C33.157 299.789 32.284 298.272 32.284 296.58 32.284 294.888 33.157 293.37 34.627 292.524 L160.477 219.682 161.452 220.251 370.949 341.513 C372.419 342.36 373.292 343.877 373.292 345.569 373.292 347.261 372.419 348.779 370.949 349.625 L254.617 416.952 C251.677 418.645 248.388 419.491 245.099 419.491 Z M160.477 224.19 L36.592 295.894 C36.257 296.084 36.199 296.39 36.199 296.565 36.199 296.726 36.242 297.047 36.592 297.236 L237.547 413.553 C242.218 416.252 248.01 416.252 252.681 413.553 L369.014 346.226 C369.348 346.036 369.407 345.73 369.407 345.555 369.407 345.394 369.363 345.073 369.014 344.883 Z" fill-opacity="1" fill="url(#linear-gradient-11)" stroke="none"/>
 <defs>
  <linearGradient id="linear-gradient-12" gradientUnits="userSpaceOnUse" x1="373.282" y1="335.647" x2="32.289" y2="335.647">
   <stop offset="0" stop-color="#42ffff" stop-opacity="1"/>
   <stop offset="0.151" stop-color="#43faff" stop-opacity="1"/>
   <stop offset="0.329" stop-color="#45ecff" stop-opacity="1"/>
   <stop offset="0.52" stop-color="#49d4ff" stop-opacity="1"/>
   <stop offset="0.721" stop-color="#4eb3ff" stop-opacity="1"/>
   <stop offset="0.927" stop-color="#5489ff" stop-opacity="1"/>
   <stop offset="1" stop-color="#5778ff" stop-opacity="1"/>
  </linearGradient>
 </defs>
 <path id="Path-133" d="M245.099 435.553 C241.811 435.553 238.522 434.706 235.582 433 L34.627 316.698 C33.157 315.851 32.284 314.334 32.284 312.642 32.284 310.95 33.157 309.432 34.627 308.586 L160.477 235.744 161.452 236.313 370.949 357.575 C372.419 358.422 373.292 359.939 373.292 361.631 373.292 363.323 372.419 364.841 370.949 365.687 L254.617 433.014 C251.677 434.707 248.388 435.553 245.099 435.553 Z M160.477 240.267 L36.592 311.971 C36.257 312.16 36.199 312.467 36.199 312.642 36.199 312.802 36.242 313.123 36.592 313.313 L237.547 429.63 C242.218 432.329 248.01 432.329 252.681 429.63 L369.014 362.302 C369.348 362.113 369.407 361.806 369.407 361.631 369.407 361.471 369.363 361.15 369.014 360.96 Z" fill-opacity="1" fill="url(#linear-gradient-12)" stroke="none"/>
 <g id="group-10">
  <defs>
   <linearGradient id="linear-gradient-13" gradientUnits="userSpaceOnUse" x1="384.011" y1="296.65" x2="18.96" y2="296.65">
    <stop offset="0" stop-color="#5778ff" stop-opacity="1"/>
    <stop offset="0.178" stop-color="#5c7dff" stop-opacity="1"/>
    <stop offset="0.388" stop-color="#6a8aff" stop-opacity="1"/>
    <stop offset="0.613" stop-color="#82a0ff" stop-opacity="1"/>
    <stop offset="0.849" stop-color="#a3beff" stop-opacity="1"/>
    <stop offset="1" stop-color="#bcd5ff" stop-opacity="1"/>
   </linearGradient>
  </defs>
  <path id="Path-134" d="M18.955 258.795 L31.164 265.185 153.609 194.312 C155.66 193.131 159.24 193.276 161.598 194.648 L372.783 316.873 C374.806 315.735 384.018 311.3 384.018 311.3 L379.55 322.971 379.536 322.957 C379.346 323.482 378.954 323.963 378.284 324.343 L249.335 398.979 C247.283 400.161 243.703 400.015 241.345 398.643 L25.241 273.573 C24.266 273.004 23.67 272.333 23.422 271.648 L23.408 271.662 Z" fill-opacity="1" fill="url(#linear-gradient-13)" stroke="none"/>
  <path id="Path-135" d="M20.846 260.808 L242.32 389 C244.75 390.4 248.418 390.561 250.513 389.335 L382.679 312.846 C384.774 311.635 384.512 309.505 382.097 308.105 L160.608 179.913 C158.178 178.512 154.511 178.352 152.415 179.577 L20.25 256.066 C18.154 257.277 18.416 259.393 20.846 260.808 Z" fill="#d2e0ff" fill-opacity="1" stroke="none"/>
  <path id="Path-136" d="M309.116 361.252 L309.116 358.815 C309.116 358.582 308.971 358.48 308.811 358.582 L300.239 363.542 C300.065 363.644 299.934 363.907 299.934 364.14 L299.934 366.577 C299.934 366.81 300.079 366.912 300.239 366.81 L308.811 361.85 C308.985 361.762 309.116 361.485 309.116 361.252 Z" fill="#2859cb" fill-opacity="1" stroke="none"/>
  <path id="Path-137" d="M296.31 368.678 L296.31 366.241 C296.31 366.008 296.165 365.906 296.004 366.008 L287.433 370.968 C287.258 371.07 287.127 371.333 287.127 371.566 L287.127 374.002 C287.127 374.236 287.273 374.338 287.433 374.236 L296.004 369.276 C296.165 369.174 296.31 368.896 296.31 368.678 Z" fill="#2859cb" fill-opacity="1" stroke="none"/>
  <path id="Path-138" d="M348.219 305.668 L164.173 199.141 C162.951 198.426 161.438 198.426 160.215 199.141 L94.671 237.159 C93.725 237.699 93.725 239.07 94.671 239.61 L278.629 346.079 C279.851 346.794 281.364 346.794 282.587 346.079 L348.219 308.119 C349.164 307.579 349.164 306.208 348.219 305.668 Z" fill="#adc8ff" fill-opacity="1" stroke="none"/>
  <path id="Path-139" d="M348.219 308.119 L347.564 308.498 164.173 202.35 C162.951 201.635 161.438 201.635 160.215 202.35 L95.326 239.989 94.671 239.61 C93.725 239.07 93.725 237.699 94.671 237.159 L160.215 199.141 C161.438 198.426 162.951 198.426 164.173 199.141 L348.219 305.668 C349.164 306.208 349.164 307.579 348.219 308.119 Z" fill="#91afff" fill-opacity="1" stroke="none"/>
  <path id="Path-140" d="M157.13 211.512 L314.501 302.591 C314.894 302.809 315.359 302.809 315.752 302.591 L320.365 299.921 C321.195 299.439 321.195 298.228 320.365 297.747 L162.995 206.669 C162.602 206.45 162.136 206.45 161.744 206.669 L157.13 209.339 C156.301 209.82 156.301 211.031 157.13 211.512 Z" fill="#5d75c1" fill-opacity="1" stroke="none"/>
  <path id="Path-141" d="M139.711 221.608 L287.157 306.952 C287.549 307.171 288.015 307.171 288.408 306.952 L293.021 304.283 C293.851 303.801 293.851 302.59 293.021 302.109 L145.576 216.764 C145.183 216.545 144.717 216.545 144.324 216.764 L139.711 219.434 C138.881 219.915 138.881 221.126 139.711 221.608 Z" fill="#5d75c1" fill-opacity="1" stroke="none"/>
  <path id="Path-142" d="M128.36 228.173 L302.407 328.909 C302.8 329.128 303.266 329.128 303.659 328.909 L308.272 326.239 C309.102 325.758 309.102 324.547 308.272 324.066 L134.225 223.33 C133.832 223.111 133.366 223.111 132.973 223.33 L128.36 225.999 C127.53 226.481 127.53 227.692 128.36 228.173 Z" fill="#5d75c1" fill-opacity="1" stroke="none"/>
  <path id="Path-143" d="M117.009 234.738 L291.056 335.474 C291.449 335.693 291.915 335.693 292.308 335.474 L296.921 332.804 C297.75 332.323 297.75 331.112 296.921 330.631 L122.873 229.895 C122.481 229.676 122.015 229.676 121.622 229.895 L117.009 232.564 C116.179 233.046 116.179 234.257 117.009 234.738 Z" fill="#5d75c1" fill-opacity="1" stroke="none"/>
  <path id="Path-144" d="M105.658 241.318 L279.706 342.054 C280.099 342.272 280.564 342.272 280.957 342.054 L285.57 339.384 C286.4 338.902 286.4 337.691 285.57 337.21 L111.523 236.474 C111.13 236.255 110.664 236.255 110.271 236.474 L105.658 239.144 C104.829 239.625 104.829 240.822 105.658 241.318 Z" fill="#5d75c1" fill-opacity="1" stroke="none"/>
  <path id="Path-145" d="M326.666 309.637 L331.279 312.307 C331.672 312.526 332.138 312.526 332.531 312.307 L337.144 309.637 C337.973 309.156 337.973 307.945 337.144 307.463 L332.531 304.794 C332.138 304.575 331.672 304.575 331.279 304.794 L326.666 307.463 C325.837 307.945 325.837 309.156 326.666 309.637 Z" fill="#5d75c1" fill-opacity="1" stroke="none"/>
  <path id="Path-146" d="M301.592 315.297 L313.846 322.387 C314.238 322.606 314.704 322.606 315.097 322.387 L319.71 319.718 C320.54 319.236 320.54 318.025 319.71 317.544 L307.457 310.454 C307.064 310.235 306.598 310.235 306.206 310.454 L301.592 313.123 C300.763 313.605 300.763 314.816 301.592 315.297 Z" fill="#5d75c1" fill-opacity="1" stroke="none"/>
  <path id="Path-147" d="M157.13 209.864 L314.501 300.942 C314.894 301.16 315.359 301.16 315.752 300.942 L320.365 298.272 C321.195 297.79 321.195 296.58 320.365 296.098 L162.995 205.02 C162.602 204.801 162.136 204.801 161.744 205.02 L157.13 207.69 C156.301 208.171 156.301 209.382 157.13 209.864 Z" fill="#29346d" fill-opacity="1" stroke="none"/>
  <path id="Path-148" d="M139.711 219.944 L287.157 305.289 C287.549 305.508 288.015 305.508 288.408 305.289 L293.021 302.619 C293.851 302.138 293.851 300.927 293.021 300.445 L145.576 215.101 C145.183 214.882 144.717 214.882 144.324 215.101 L139.711 217.77 C138.881 218.252 138.881 219.463 139.711 219.944 Z" fill="#29346d" fill-opacity="1" stroke="none"/>
  <path id="Path-149" d="M128.36 226.524 L302.407 327.26 C302.8 327.479 303.266 327.479 303.659 327.26 L308.272 324.59 C309.102 324.109 309.102 322.898 308.272 322.417 L134.225 221.681 C133.832 221.462 133.366 221.462 132.973 221.681 L128.36 224.35 C127.53 224.832 127.53 226.028 128.36 226.524 Z" fill="#29346d" fill-opacity="1" stroke="none"/>
  <path id="Path-150" d="M117.009 233.089 L291.056 333.825 C291.449 334.043 291.915 334.043 292.308 333.825 L296.921 331.155 C297.75 330.673 297.75 329.462 296.921 328.981 L122.873 228.245 C122.481 228.026 122.015 228.026 121.622 228.245 L117.009 230.915 C116.179 231.396 116.179 232.607 117.009 233.089 Z" fill="#29346d" fill-opacity="1" stroke="none"/>
  <path id="Path-151" d="M105.658 239.654 L279.706 340.39 C280.099 340.609 280.564 340.609 280.957 340.39 L285.57 337.72 C286.4 337.239 286.4 336.028 285.57 335.546 L111.523 234.811 C111.13 234.592 110.664 234.592 110.271 234.811 L105.658 237.48 C104.829 237.962 104.829 239.173 105.658 239.654 Z" fill="#29346d" fill-opacity="1" stroke="none"/>
  <path id="Path-152" d="M326.666 307.988 L331.279 310.658 C331.672 310.877 332.138 310.877 332.531 310.658 L337.144 307.988 C337.973 307.507 337.973 306.296 337.144 305.814 L332.531 303.145 C332.138 302.926 331.672 302.926 331.279 303.145 L326.666 305.814 C325.837 306.296 325.837 307.507 326.666 307.988 Z" fill="#29346d" fill-opacity="1" stroke="none"/>
  <path id="Path-153" d="M301.592 313.649 L313.846 320.739 C314.238 320.958 314.704 320.958 315.097 320.739 L319.71 318.069 C320.54 317.588 320.54 316.377 319.71 315.895 L307.457 308.805 C307.064 308.586 306.598 308.586 306.206 308.805 L301.592 311.475 C300.763 311.956 300.763 313.167 301.592 313.649 Z" fill="#29346d" fill-opacity="1" stroke="none"/>
  <path id="Path-154" d="M157.086 331.447 L107.462 302.722 C105.527 301.598 105.527 299.775 107.462 298.651 L141.399 279.015 C143.334 277.892 146.478 277.892 148.428 279.015 L198.052 307.74 C199.987 308.864 199.987 310.687 198.052 311.811 L164.115 331.447 C162.165 332.571 159.022 332.571 157.086 331.447 Z" fill="#adc8ff" fill-opacity="1" stroke="none"/>
  <path id="Path-155" d="M198.037 309.403 L148.413 280.678 C146.478 279.555 143.334 279.555 141.384 280.678 L107.448 300.315 C106.851 300.665 106.458 301.073 106.225 301.511 105.716 300.533 106.109 299.425 107.448 298.651 L141.384 279.015 C143.32 277.892 146.463 277.892 148.413 279.015 L198.037 307.74 C199.376 308.514 199.769 309.622 199.259 310.6 199.027 310.162 198.648 309.754 198.037 309.403 Z" fill="#91afff" fill-opacity="1" stroke="none"/>
 </g>
 <g id="group-11">
  <path id="Path-156" d="M3.029 303.882 L3.544 306.271 -11.448 306.31 -11.963 303.921 Z" fill="#7280ff" fill-opacity="1" stroke="none"/>
  <path id="Path-157" d="M31.448 319.742 L31.963 322.131 16.971 322.17 16.456 319.781 Z" fill="#7280ff" fill-opacity="1" stroke="none"/>
  <path id="Path-158" d="M27.113 325.728 L23.365 325.738 21.306 316.183 25.054 316.173 Z" fill="#7280ff" fill-opacity="1" stroke="none"/>
  <path id="Path-159" d="M15.283 331.735 L15.798 334.124 0.806 334.163 0.291 331.774 Z" fill="#7280ff" fill-opacity="1" stroke="none"/>
  <path id="Path-160" d="M10.947 337.721 L7.199 337.731 5.14 328.176 8.888 328.166 Z" fill="#7280ff" fill-opacity="1" stroke="none"/>
  <path id="Path-161" d="M-0.884 343.729 L-0.369 346.118 -15.361 346.157 -15.876 343.768 Z" fill="#7280ff" fill-opacity="1" stroke="none"/>
  <path id="Path-162" d="M59.868 335.602 L60.383 337.991 45.391 338.03 44.876 335.641 Z" fill="#7280ff" fill-opacity="1" stroke="none"/>
  <path id="Path-163" d="M55.532 341.588 L51.784 341.598 49.725 332.043 53.473 332.033 Z" fill="#7280ff" fill-opacity="1" stroke="none"/>
  <path id="Path-164" d="M43.702 347.596 L44.217 349.985 29.225 350.024 28.71 347.635 Z" fill="#7280ff" fill-opacity="1" stroke="none"/>
  <path id="Path-165" d="M39.366 353.582 L35.618 353.592 33.559 344.037 37.307 344.027 Z" fill="#7280ff" fill-opacity="1" stroke="none"/>
  <path id="Path-166" d="M27.535 359.589 L28.05 361.978 13.058 362.017 12.543 359.628 Z" fill="#7280ff" fill-opacity="1" stroke="none"/>
  <path id="Path-167" d="M23.2 365.575 L19.452 365.585 17.393 356.03 21.141 356.02 Z" fill="#7280ff" fill-opacity="1" stroke="none"/>
  <path id="Path-168" d="M11.369 371.583 L11.884 373.972 -3.108 374.011 -3.623 371.622 Z" fill="#7280ff" fill-opacity="1" stroke="none"/>
  <path id="Path-169" d="M7.034 377.568 L3.286 377.578 1.227 368.023 4.975 368.013 Z" fill="#7280ff" fill-opacity="1" stroke="none"/>
  <path id="Path-170" d="M88.287 351.462 L88.802 353.851 73.81 353.89 73.295 351.501 Z" fill="#7280ff" fill-opacity="1" stroke="none"/>
  <path id="Path-171" d="M83.951 357.448 L80.203 357.458 78.144 347.903 81.892 347.893 Z" fill="#7280ff" fill-opacity="1" stroke="none"/>
  <path id="Path-172" d="M72.122 363.456 L72.637 365.845 57.645 365.884 57.13 363.495 Z" fill="#7280ff" fill-opacity="1" stroke="none"/>
  <path id="Path-173" d="M67.787 369.442 L64.039 369.452 61.98 359.897 65.728 359.887 Z" fill="#7280ff" fill-opacity="1" stroke="none"/>
  <path id="Path-174" d="M55.956 375.449 L56.471 377.838 41.479 377.877 40.964 375.488 Z" fill="#7280ff" fill-opacity="1" stroke="none"/>
  <path id="Path-175" d="M51.62 381.435 L47.872 381.445 45.813 371.89 49.561 371.88 Z" fill="#7280ff" fill-opacity="1" stroke="none"/>
  <path id="Path-176" d="M39.789 387.441 L40.304 389.83 25.312 389.869 24.797 387.48 Z" fill="#7280ff" fill-opacity="1" stroke="none"/>
  <path id="Path-177" d="M35.453 393.427 L31.705 393.437 29.646 383.882 33.394 383.872 Z" fill="#7280ff" fill-opacity="1" stroke="none"/>
  <path id="Path-178" d="M23.622 399.436 L24.137 401.825 9.145 401.864 8.63 399.475 Z" fill="#7280ff" fill-opacity="1" stroke="none"/>
  <path id="Path-179" d="M19.286 405.422 L15.538 405.432 13.479 395.877 17.227 395.867 Z" fill="#7280ff" fill-opacity="1" stroke="none"/>
  <path id="Path-180" d="M7.457 411.429 L7.972 413.818 -7.02 413.857 -7.535 411.468 Z" fill="#7280ff" fill-opacity="1" stroke="none"/>
  <path id="Path-181" d="M3.122 417.415 L-0.626 417.425 -2.685 407.87 1.063 407.86 Z" fill="#7280ff" fill-opacity="1" stroke="none"/>
  <path id="Path-182" d="M116.708 367.321 L117.223 369.71 102.23 369.749 101.716 367.36 Z" fill="#7280ff" fill-opacity="1" stroke="none"/>
  <path id="Path-183" d="M112.372 373.307 L108.624 373.317 106.565 363.762 110.313 363.752 Z" fill="#7280ff" fill-opacity="1" stroke="none"/>
  <path id="Path-184" d="M100.541 379.316 L101.056 381.705 86.064 381.744 85.549 379.355 Z" fill="#7280ff" fill-opacity="1" stroke="none"/>
  <path id="Path-185" d="M96.206 385.302 L92.458 385.312 90.399 375.757 94.147 375.747 Z" fill="#7280ff" fill-opacity="1" stroke="none"/>
  <path id="Path-186" d="M84.375 391.309 L84.89 393.698 69.898 393.737 69.383 391.348 Z" fill="#7280ff" fill-opacity="1" stroke="none"/>
  <path id="Path-187" d="M80.04 397.294 L76.292 397.304 74.233 387.749 77.981 387.739 Z" fill="#7280ff" fill-opacity="1" stroke="none"/>
  <path id="Path-188" d="M68.208 403.303 L68.723 405.692 53.73 405.731 53.216 403.342 Z" fill="#7280ff" fill-opacity="1" stroke="none"/>
  <path id="Path-189" d="M63.872 409.289 L60.124 409.299 58.065 399.744 61.813 399.734 Z" fill="#7280ff" fill-opacity="1" stroke="none"/>
  <path id="Path-190" d="M52.043 415.295 L52.558 417.684 37.566 417.723 37.051 415.334 Z" fill="#7280ff" fill-opacity="1" stroke="none"/>
  <path id="Path-191" d="M47.708 421.281 L43.96 421.291 41.901 411.736 45.649 411.726 Z" fill="#7280ff" fill-opacity="1" stroke="none"/>
  <path id="Path-192" d="M35.876 427.289 L36.391 429.678 21.399 429.717 20.884 427.328 Z" fill="#7280ff" fill-opacity="1" stroke="none"/>
  <path id="Path-193" d="M31.541 433.275 L27.793 433.285 25.734 423.73 29.482 423.72 Z" fill="#7280ff" fill-opacity="1" stroke="none"/>
  <path id="Path-194" d="M145.127 383.181 L145.642 385.57 130.65 385.609 130.135 383.22 Z" fill="#7280ff" fill-opacity="1" stroke="none"/>
  <path id="Path-195" d="M140.792 389.167 L137.044 389.177 134.984 379.622 138.733 379.612 Z" fill="#7280ff" fill-opacity="1" stroke="none"/>
  <path id="Path-196" d="M128.96 395.175 L129.475 397.564 114.482 397.603 113.968 395.214 Z" fill="#7280ff" fill-opacity="1" stroke="none"/>
  <path id="Path-197" d="M124.625 401.161 L120.877 401.171 118.818 391.616 122.566 391.606 Z" fill="#7280ff" fill-opacity="1" stroke="none"/>
  <path id="Path-198" d="M112.795 407.168 L113.31 409.557 98.318 409.596 97.803 407.207 Z" fill="#7280ff" fill-opacity="1" stroke="none"/>
  <path id="Path-199" d="M108.46 413.154 L104.712 413.164 102.653 403.609 106.401 403.599 Z" fill="#7280ff" fill-opacity="1" stroke="none"/>
  <path id="Path-200" d="M96.628 419.163 L97.143 421.552 82.151 421.591 81.636 419.202 Z" fill="#7280ff" fill-opacity="1" stroke="none"/>
  <path id="Path-201" d="M92.293 425.148 L88.545 425.158 86.486 415.603 90.234 415.593 Z" fill="#7280ff" fill-opacity="1" stroke="none"/>
  <path id="Path-202" d="M80.462 431.156 L80.977 433.545 65.985 433.584 65.47 431.195 Z" fill="#7280ff" fill-opacity="1" stroke="none"/>
  <path id="Path-203" d="M76.127 437.142 L72.379 437.152 70.32 427.597 74.068 427.587 Z" fill="#7280ff" fill-opacity="1" stroke="none"/>
  <path id="Path-204" d="M64.294 443.148 L64.809 445.537 49.817 445.576 49.302 443.187 Z" fill="#7280ff" fill-opacity="1" stroke="none"/>
  <path id="Path-205" d="M59.959 449.134 L56.211 449.144 54.152 439.589 57.9 439.579 Z" fill="#7280ff" fill-opacity="1" stroke="none"/>
  <path id="Path-206" d="M173.547 399.041 L174.062 401.43 159.07 401.469 158.555 399.08 Z" fill="#7280ff" fill-opacity="1" stroke="none"/>
  <path id="Path-207" d="M169.211 405.026 L165.463 405.036 163.404 395.481 167.152 395.471 Z" fill="#7280ff" fill-opacity="1" stroke="none"/>
  <path id="Path-208" d="M157.382 411.036 L157.897 413.425 142.905 413.464 142.39 411.075 Z" fill="#7280ff" fill-opacity="1" stroke="none"/>
  <path id="Path-209" d="M153.046 417.021 L149.298 417.031 147.238 407.476 150.987 407.466 Z" fill="#7280ff" fill-opacity="1" stroke="none"/>
  <path id="Path-210" d="M141.214 423.028 L141.729 425.417 126.737 425.456 126.222 423.067 Z" fill="#7280ff" fill-opacity="1" stroke="none"/>
  <path id="Path-211" d="M136.879 429.014 L133.131 429.024 131.072 419.469 134.82 419.459 Z" fill="#7280ff" fill-opacity="1" stroke="none"/>
  <path id="Path-212" d="M125.048 435.022 L125.563 437.411 110.571 437.45 110.056 435.061 Z" fill="#7280ff" fill-opacity="1" stroke="none"/>
  <path id="Path-213" d="M120.713 441.008 L116.965 441.018 114.906 431.463 118.654 431.453 Z" fill="#7280ff" fill-opacity="1" stroke="none"/>
  <path id="Path-214" d="M104.547 453 L100.799 453.01 98.74 443.455 102.488 443.445 Z" fill="#7280ff" fill-opacity="1" stroke="none"/>
 </g>
 <g id="group-12">
  <path id="Path-215" d="M200.817 418.299 L201.332 420.688 186.34 420.727 185.825 418.338 Z" fill="#7280ff" fill-opacity="1" stroke="none"/>
  <path id="Path-216" d="M196.481 424.285 L192.733 424.295 190.673 414.74 194.422 414.73 Z" fill="#7280ff" fill-opacity="1" stroke="none"/>
  <path id="Path-217" d="M184.65 430.293 L185.165 432.682 170.173 432.721 169.658 430.332 Z" fill="#7280ff" fill-opacity="1" stroke="none"/>
  <path id="Path-218" d="M180.315 436.279 L176.567 436.289 174.508 426.734 178.256 426.724 Z" fill="#7280ff" fill-opacity="1" stroke="none"/>
  <path id="Path-219" d="M168.485 442.286 L169 444.675 154.008 444.714 153.493 442.325 Z" fill="#7280ff" fill-opacity="1" stroke="none"/>
  <path id="Path-220" d="M164.149 448.271 L160.401 448.281 158.341 438.726 162.09 438.716 Z" fill="#7280ff" fill-opacity="1" stroke="none"/>
  <path id="Path-221" d="M229.238 434.159 L229.753 436.548 214.761 436.587 214.246 434.198 Z" fill="#7280ff" fill-opacity="1" stroke="none"/>
  <path id="Path-222" d="M224.902 440.145 L221.154 440.155 219.095 430.6 222.843 430.59 Z" fill="#7280ff" fill-opacity="1" stroke="none"/>
  <path id="Path-223" d="M208.736 452.138 L204.988 452.148 202.928 442.593 206.677 442.583 Z" fill="#7280ff" fill-opacity="1" stroke="none"/>
 </g>
</svg>
