<svg width="56" height="56" viewBox="0 0 56 56" fill="none" xmlns="http://www.w3.org/2000/svg">
<path d="M51.134 27.2158C49.1215 18.118 46.1366 12.3146 41.3526 10.9003C40.426 10.63 39.4652 10.4952 38.5001 10.5C35.559 10.5 33.238 12.25 28.0001 12.25C22.7621 12.25 20.4368 10.5 17.5001 10.5C16.4946 10.4948 15.4934 10.6295 14.5251 10.9003C9.73445 12.3146 6.77476 18.1235 4.73929 27.2158C2.66117 36.5028 3.03742 43.8408 7.09961 45.2496C9.94336 46.2339 12.4863 44.1985 14.8948 41.2027C17.6291 37.7902 20.9968 36.7402 28.0001 36.7402C35.0034 36.7402 38.2398 37.7902 40.9785 41.2027C43.3848 44.2007 46.0218 46.211 48.7901 45.2671C53.2766 43.7347 53.2132 36.6122 51.134 27.2158Z" stroke="#5845CF" stroke-width="4" stroke-miterlimit="10"/>
<path d="M31.9375 26.6875C33.1456 26.6875 34.125 25.7081 34.125 24.5C34.125 23.2919 33.1456 22.3125 31.9375 22.3125C30.7294 22.3125 29.75 23.2919 29.75 24.5C29.75 25.7081 30.7294 26.6875 31.9375 26.6875Z" fill="#5845CF"/>
<path d="M36.75 31.5C36.3171 31.5 35.894 31.3716 35.5341 31.131C35.1743 30.8904 34.8939 30.5484 34.7285 30.1484C34.5631 29.7483 34.5201 29.3082 34.6049 28.8837C34.6898 28.4592 34.8987 28.0695 35.2051 27.7638C35.5116 27.4581 35.9019 27.2502 36.3266 27.1664C36.7513 27.0826 37.1913 27.1267 37.5909 27.2931C37.9905 27.4595 38.3318 27.7407 38.5715 28.1012C38.8112 28.4616 38.9386 28.8851 38.9375 29.318C38.9361 29.8972 38.7049 30.4522 38.2949 30.8612C37.8848 31.2703 37.3292 31.5 36.75 31.5Z" fill="#5845CF"/>
<path d="M36.75 21.875C37.9581 21.875 38.9375 20.8956 38.9375 19.6875C38.9375 18.4794 37.9581 17.5 36.75 17.5C35.5419 17.5 34.5625 18.4794 34.5625 19.6875C34.5625 20.8956 35.5419 21.875 36.75 21.875Z" fill="#5845CF"/>
<path d="M41.5625 26.6875C42.7706 26.6875 43.75 25.7081 43.75 24.5C43.75 23.2919 42.7706 22.3125 41.5625 22.3125C40.3544 22.3125 39.375 23.2919 39.375 24.5C39.375 25.7081 40.3544 26.6875 41.5625 26.6875Z" fill="#5845CF"/>
<path d="M17.5 19.25V29.75" stroke="#5845CF" stroke-width="3" stroke-linecap="round" stroke-linejoin="round"/>
<path d="M22.75 24.5H12.25" stroke="#5845CF" stroke-width="3" stroke-linecap="round" stroke-linejoin="round"/>
</svg>
