<svg width="44" height="44" viewBox="0 0 44 44" fill="none" xmlns="http://www.w3.org/2000/svg">
<path d="M38.1319 4.08547C37.2895 4.08717 36.4684 4.35001 35.7816 4.83779C35.0948 5.32556 34.5761 6.01428 34.297 6.80908H29.7677C29.4714 5.64032 28.7939 4.60372 27.8424 3.86326C26.8908 3.1228 25.7195 2.72076 24.5138 2.72076C23.3081 2.72076 22.1368 3.1228 21.1853 3.86326C20.2337 4.60372 19.5562 5.64032 19.26 6.80908H13.426C13.1879 5.87978 12.7081 5.03006 12.0353 4.34617C11.3626 3.66229 10.5208 3.1686 9.59557 2.91524C8.67031 2.66189 7.69449 2.65788 6.76718 2.90364C5.83988 3.14939 4.99411 3.63615 4.31577 4.31449C3.63743 4.99283 3.15067 5.8386 2.90492 6.7659C2.65917 7.69321 2.66317 8.66903 2.91653 9.59429C3.16988 10.5195 3.66357 11.3613 4.34745 12.034C5.03134 12.7068 5.88107 13.1866 6.81036 13.4247V19.2587C5.64161 19.5549 4.605 20.2324 3.86454 21.184C3.12408 22.1355 2.72205 23.3068 2.72205 24.5125C2.72205 25.7183 3.12408 26.8895 3.86454 27.8411C4.605 28.7927 5.64161 29.4702 6.81036 29.7664V34.2958C5.90174 34.617 5.13595 35.2491 4.64831 36.0804C4.16068 36.9116 3.98261 37.8885 4.14558 38.8384C4.30855 39.7882 4.80206 40.6499 5.5389 41.2711C6.27573 41.8922 7.20843 42.2329 8.17216 42.2329C9.1359 42.2329 10.0686 41.8922 10.8054 41.2711C11.5423 40.6499 12.0358 39.7882 12.1987 38.8384C12.3617 37.8885 12.1836 36.9116 11.696 36.0804C11.2084 35.2491 10.4426 34.617 9.53397 34.2958V29.7664C10.3816 29.5467 11.1634 29.1247 11.8123 28.5367L16.3934 30.8272C16.3664 30.9908 16.3496 31.1559 16.343 31.3216C16.3393 32.268 16.6629 33.1865 17.259 33.9216C17.8552 34.6566 18.6872 35.1629 19.614 35.3545C20.5408 35.5462 21.5053 35.4115 22.3441 34.9733C23.1829 34.535 23.8444 33.8202 24.2164 32.95C24.5883 32.0797 24.648 31.1076 24.3851 30.1985C24.1222 29.2893 23.553 28.499 22.7741 27.9616C21.9951 27.4242 21.0542 27.1726 20.1109 27.2496C19.1677 27.3266 18.2801 27.7275 17.5986 28.3842L13.3116 26.2407C13.5081 25.6854 13.6121 25.1016 13.6194 24.5125C13.6158 23.3082 13.2128 22.139 12.4735 21.1883C11.7342 20.2375 10.7003 19.5589 9.53397 19.2587V13.4247C10.4702 13.1807 11.3244 12.6913 12.0085 12.0072C12.6926 11.3231 13.1819 10.4689 13.426 9.53269H19.26C19.4281 10.219 19.7302 10.8653 20.149 11.4345C20.5677 12.0036 21.0948 12.4844 21.7 12.8491C22.3052 13.2138 22.9765 13.4553 23.6754 13.5597C24.3742 13.6641 25.0868 13.6294 25.7721 13.4574L28.2384 17.7743C27.5968 18.5152 27.2383 19.4594 27.2266 20.4393C27.2149 21.4193 27.5506 22.3718 28.1743 23.1278C28.798 23.8838 29.6693 24.3945 30.6337 24.5692C31.598 24.7439 32.5931 24.5715 33.4424 24.0824C34.2917 23.5933 34.9403 22.8192 35.2732 21.8974C35.6061 20.9756 35.6017 19.9657 35.2608 19.0468C34.92 18.1279 34.2647 17.3595 33.4112 16.8778C32.5577 16.396 31.5612 16.2322 30.5984 16.4153L28.1757 12.1746C28.9508 11.4665 29.5038 10.5488 29.7677 9.53269H34.297C34.5479 10.237 34.9876 10.8588 35.5679 11.3301C36.1483 11.8014 36.847 12.1042 37.5878 12.2052C38.3286 12.3063 39.0829 12.2018 39.7683 11.9032C40.4537 11.6046 41.0438 11.1233 41.4742 10.5119C41.9046 9.9006 42.1587 9.18272 42.2086 8.43676C42.2586 7.69079 42.1026 6.94544 41.7576 6.28214C41.4127 5.61885 40.892 5.06313 40.2526 4.67573C39.6131 4.28832 38.8795 4.08413 38.1319 4.08547ZM10.8958 24.5125C10.8958 25.0512 10.736 25.5778 10.4368 26.0257C10.1375 26.4736 9.71212 26.8227 9.21445 27.0288C8.71677 27.235 8.16914 27.2889 7.64081 27.1838C7.11249 27.0787 6.62718 26.8193 6.24628 26.4384C5.86538 26.0575 5.60598 25.5722 5.50089 25.0439C5.3958 24.5156 5.44973 23.9679 5.65588 23.4703C5.86202 22.9726 6.21111 22.5472 6.65901 22.2479C7.1069 21.9487 7.63348 21.7889 8.17216 21.7889C8.89429 21.7897 9.58663 22.0768 10.0973 22.5875C10.6079 23.0981 10.8951 23.7904 10.8958 24.5125ZM8.17216 10.8945C7.63348 10.8945 7.1069 10.7348 6.65901 10.4355C6.21111 10.1362 5.86202 9.71084 5.65588 9.21316C5.44973 8.71549 5.3958 8.16786 5.50089 7.63953C5.60598 7.1112 5.86538 6.6259 6.24628 6.245C6.62718 5.86409 7.11249 5.6047 7.64081 5.4996C8.16914 5.39451 8.71677 5.44845 9.21445 5.65459C9.71212 5.86074 10.1375 6.20983 10.4368 6.65773C10.736 7.10562 10.8958 7.6322 10.8958 8.17088C10.8951 8.89301 10.6079 9.58535 10.0973 10.096C9.58663 10.6066 8.89429 10.8938 8.17216 10.8945ZM21.7902 8.17088C21.7902 7.6322 21.95 7.10562 22.2492 6.65773C22.5485 6.20983 22.9739 5.86074 23.4715 5.65459C23.9692 5.44845 24.5169 5.39451 25.0452 5.4996C25.5735 5.6047 26.0588 5.86409 26.4397 6.245C26.8206 6.6259 27.08 7.1112 27.1851 7.63953C27.2902 8.16786 27.2363 8.71549 27.0301 9.21316C26.824 9.71084 26.4749 10.1362 26.027 10.4355C25.5791 10.7348 25.0525 10.8945 24.5138 10.8945C23.7917 10.8938 23.0994 10.6066 22.5887 10.096C22.0781 9.58535 21.7909 8.89301 21.7902 8.17088Z" fill="#5845CF"/>
</svg>
