<svg width="232" height="135" viewBox="0 0 232 135" fill="none" xmlns="http://www.w3.org/2000/svg">
<path d="M66.8162 97.9274H42.7759C32.279 97.9274 32.2905 82.0889 42.7759 82.0889H66.8219C75.3183 82.0889 74.7607 91.5484 74.7607 90.011C74.7549 94.3822 71.2023 97.9274 66.8162 97.9274Z" fill="white"/>
<path d="M66.8163 98.255H42.776C37.1424 98.255 34.5786 93.9812 34.5786 90.0116C34.5786 86.0419 37.1424 81.7625 42.776 81.7625H66.822C70.8977 81.7625 72.9155 83.9079 73.8927 85.7034C75.0769 87.8776 75.0884 90.1034 75.0884 90.1263C75.0884 90.1665 75.0827 90.2009 75.0769 90.2353C74.9562 94.6811 71.2944 98.255 66.8163 98.255ZM42.776 82.4164C37.5908 82.4164 35.2339 86.3574 35.2339 90.0116C35.2339 93.6657 37.5965 97.601 42.776 97.601H66.822C71.0185 97.601 74.4331 94.1935 74.4331 90.0058C74.4043 89.3461 74.1457 86.4951 72.2084 84.4701C70.8977 83.1048 69.087 82.4107 66.822 82.4107H42.776V82.4164Z" fill="#EEE4D9"/>
<path d="M40.2179 91.4802C38.6313 91.4802 38.7405 89.6847 38.7405 90.0059C38.7405 88.4226 40.5398 88.5316 40.2179 88.5316C41.8045 88.5316 41.6953 90.3272 41.6953 90.0059C41.6953 91.5949 39.896 91.4802 40.2179 91.4802Z" fill="#D6723A"/>
<path d="M61.8265 91.4806C44.512 91.4806 43.552 92.0255 43.552 90.0063C43.552 89.1917 44.213 88.532 45.0293 88.532H61.8265C63.7868 88.5377 63.7638 91.4806 61.8265 91.4806Z" fill="#CC882A"/>
<path d="M69.3745 91.4803H65.8852C63.9307 91.4803 63.9479 88.5375 65.8852 88.5375C68.8974 88.5375 70.8519 88.1589 70.8519 90.0118C70.8461 90.8206 70.1908 91.4803 69.3745 91.4803Z" fill="#CC882A"/>
<path d="M179.976 55.1733C110.286 55.1733 111.126 56.3264 111.126 52.3567C111.126 2.32276 110.062 1.95562 113.948 1.95562C183.638 1.95562 182.798 0.802577 182.798 4.77225C182.798 54.8119 183.862 55.1733 179.976 55.1733Z" fill="white"/>
<path d="M128.199 55.6553C115.65 55.6553 112.379 55.4144 111.298 54.3416C110.798 53.8483 110.804 53.223 110.804 52.5002V52.3625C110.804 41.6238 110.758 33.2485 110.718 26.5195C110.608 7.93893 110.585 3.52755 111.931 2.17947C112.471 1.6345 113.195 1.6345 113.954 1.6345C129.671 1.6345 141.587 1.57713 151.159 1.53124C176.038 1.41077 181.218 1.38783 182.632 2.79327C183.132 3.28661 183.126 3.9119 183.126 4.6347V4.77237C183.126 15.5111 183.172 23.8865 183.212 30.6154C183.322 49.196 183.345 53.6074 181.999 54.9554C181.459 55.5004 180.735 55.5004 179.976 55.5004C164.259 55.5004 152.343 55.5578 142.766 55.6037C136.873 55.6324 132.091 55.6553 128.199 55.6553ZM165.674 2.12784C161.77 2.12784 156.993 2.15078 151.159 2.17947C141.582 2.22536 129.665 2.28272 113.948 2.28272C113.195 2.28272 112.718 2.29993 112.385 2.63265C111.235 3.79143 111.264 9.05755 111.362 26.5138C111.402 33.2427 111.448 41.618 111.448 52.3568V52.5002C111.448 53.2058 111.459 53.5902 111.752 53.877C112.977 55.0931 119.283 55.0644 142.76 54.9497C152.337 54.9038 164.254 54.8465 179.97 54.8465C180.723 54.8465 181.2 54.8292 181.534 54.4965C182.683 53.3377 182.655 48.0716 182.557 30.6154C182.517 23.8865 182.471 15.5111 182.471 4.77237V4.62896C182.471 3.92337 182.459 3.53902 182.166 3.25219C181.246 2.34009 177.458 2.12784 165.674 2.12784Z" fill="#EEE4D9"/>
<path d="M182.798 4.60601H111.126C111.126 3.1432 112.31 1.96148 113.776 1.96148C184.379 1.96148 182.798 0.969057 182.798 4.60601Z" fill="#444244"/>
<path d="M183.121 4.92766H110.799V4.60067C110.799 2.96577 112.132 1.62916 113.776 1.62916C128.987 1.62916 140.691 1.58327 150.096 1.54885C176.591 1.44559 181.362 1.42838 182.69 2.75925C183.132 3.2067 183.127 3.76888 183.121 4.37121V4.92766ZM111.471 4.27943H182.471C182.477 3.74593 182.454 3.45337 182.224 3.21817C181.092 2.07661 174.521 2.10529 150.096 2.20281C140.691 2.23723 128.987 2.28312 113.771 2.28312C112.604 2.28312 111.632 3.15507 111.471 4.27943Z" fill="#444244"/>
<path d="M179.706 3.99799C180.505 3.99799 180.867 4.0783 180.867 3.72837C180.867 2.93099 180.947 2.56959 180.597 2.56959C179.798 2.56959 179.435 2.48928 179.435 2.83921C179.441 3.63085 179.361 3.99799 179.706 3.99799Z" fill="#BEC0C2"/>
<path d="M179.735 3.86102C179.695 3.86102 179.649 3.84381 179.62 3.81513C179.557 3.75203 179.557 3.64877 179.62 3.58566L180.454 2.75387C180.517 2.69077 180.62 2.69077 180.684 2.75387C180.747 2.81697 180.747 2.92023 180.684 2.98333L179.85 3.81513C179.821 3.84381 179.781 3.86102 179.735 3.86102Z" fill="white"/>
<path d="M180.569 3.86102C180.528 3.86102 180.488 3.84381 180.454 3.81513L179.62 2.98333C179.557 2.92023 179.557 2.81697 179.62 2.75387C179.683 2.69077 179.787 2.69077 179.85 2.75387L180.684 3.58566C180.747 3.64877 180.747 3.75203 180.684 3.81513C180.655 3.84381 180.615 3.86102 180.569 3.86102Z" fill="white"/>
<path d="M121.921 9.02327H114.857C114.765 9.02327 114.696 8.9487 114.696 8.86265C114.696 8.77086 114.77 8.70203 114.857 8.70203H121.921C122.013 8.70203 122.082 8.7766 122.082 8.86265C122.088 8.95443 122.013 9.02327 121.921 9.02327Z" fill="#EEE4D9"/>
<path d="M121.921 48.4333H114.856C114.765 48.4333 114.696 48.3587 114.696 48.2727C114.696 48.1809 114.77 48.1121 114.856 48.1121H121.921C122.013 48.1121 122.082 48.1866 122.082 48.2727C122.088 48.3645 122.013 48.4333 121.921 48.4333Z" fill="#EEE4D9"/>
<path d="M114.857 48.4332C114.765 48.4332 114.696 48.3586 114.696 48.2725V8.86265C114.696 8.77087 114.77 8.70203 114.857 8.70203C114.948 8.70203 115.017 8.7766 115.017 8.86265V48.2725C115.023 48.3643 114.948 48.4332 114.857 48.4332Z" fill="#EEE4D9"/>
<path d="M124.808 12.6317H119.036C118.944 12.6317 118.875 12.5571 118.875 12.4711C118.875 12.3793 118.95 12.3104 119.036 12.3104H124.808C124.9 12.3104 124.968 12.385 124.968 12.4711C124.974 12.5628 124.9 12.6317 124.808 12.6317Z" fill="#EEE4D9"/>
<path d="M124.807 44.8249H119.036C118.944 44.8249 118.875 44.7503 118.875 44.6643C118.875 44.5725 118.95 44.5037 119.036 44.5037H124.807C124.899 44.5037 124.968 44.5782 124.968 44.6643C124.974 44.7561 124.899 44.8249 124.807 44.8249Z" fill="#EEE4D9"/>
<path d="M119.036 44.825C118.944 44.825 118.875 44.7504 118.875 44.6644V12.471C118.875 12.3793 118.95 12.3104 119.036 12.3104C119.122 12.3104 119.197 12.385 119.197 12.471V44.6644C119.203 44.7562 119.128 44.825 119.036 44.825Z" fill="#EEE4D9"/>
<path d="M128.354 17.4287H124.301C124.21 17.4287 124.141 17.3541 124.141 17.268C124.141 17.1763 124.215 17.1074 124.301 17.1074H128.354C128.446 17.1074 128.515 17.182 128.515 17.268C128.515 17.3541 128.446 17.4287 128.354 17.4287Z" fill="#EEE4D9"/>
<path d="M128.354 40.035H124.301C124.209 40.035 124.14 39.9604 124.14 39.8744C124.14 39.7826 124.215 39.7137 124.301 39.7137H128.354C128.446 39.7137 128.515 39.7883 128.515 39.8744C128.515 39.9604 128.446 40.035 128.354 40.035Z" fill="#EEE4D9"/>
<path d="M124.302 40.0351C124.21 40.0351 124.141 39.9605 124.141 39.8744V17.2611C124.141 17.1693 124.215 17.1005 124.302 17.1005C124.393 17.1005 124.462 17.175 124.462 17.2611V39.8687C124.462 39.9605 124.393 40.0351 124.302 40.0351Z" fill="#EEE4D9"/>
<path d="M128.923 40.035C128.831 40.035 128.762 39.9605 128.762 39.8744V23.227C128.762 23.1352 128.837 23.0664 128.923 23.0664C129.015 23.0664 129.084 23.141 129.084 23.227V39.8744C129.09 39.9605 129.015 40.035 128.923 40.035Z" fill="#EEE4D9"/>
<path d="M130.033 10.1598C116.018 10.1598 116.42 10.3261 116.42 9.7697C116.42 8.02006 116.305 7.56687 116.811 7.56687C130.826 7.56687 130.423 7.40051 130.423 7.95696C130.423 9.70659 130.538 10.1598 130.033 10.1598Z" fill="#9EBFD8"/>
<path d="M135.54 13.8879C121.525 13.8879 121.927 14.0543 121.927 13.4978C121.927 11.7482 121.812 11.295 122.318 11.295C136.333 11.295 135.931 11.1287 135.931 11.6851C135.925 13.4405 136.04 13.8879 135.54 13.8879Z" fill="#CC882A"/>
<path d="M130.032 18.5572C126.261 18.5572 125.957 18.6892 125.957 18.1672C125.957 16.4175 125.842 15.9643 126.348 15.9643C130.119 15.9643 130.423 15.8324 130.423 16.3544C130.423 18.1041 130.538 18.5572 130.032 18.5572Z" fill="#D6723A"/>
<path d="M143.363 13.8874C139.592 13.8874 139.288 14.0194 139.288 13.4974C139.288 11.7477 139.173 11.2945 139.679 11.2945C143.45 11.2945 143.754 11.1626 143.754 11.6846C143.748 13.44 143.863 13.8874 143.363 13.8874Z" fill="#D6723A"/>
<path d="M154.176 29.7435C150.405 29.7435 150.101 29.8755 150.101 29.3534C150.101 27.6038 149.986 27.1506 150.491 27.1506C154.262 27.1506 154.567 27.0187 154.567 27.5407C154.567 29.2903 154.682 29.7435 154.176 29.7435Z" fill="#D6723A"/>
<path d="M160.672 29.7435C156.901 29.7435 156.596 29.8755 156.596 29.3534C156.596 27.6038 156.481 27.1506 156.987 27.1506C160.758 27.1506 161.063 27.0187 161.063 27.5407V29.3534C161.057 29.5714 160.885 29.7435 160.672 29.7435Z" fill="#D6723A"/>
<path d="M166.881 29.7435C163.11 29.7435 162.805 29.8755 162.805 29.3534C162.805 27.6038 162.69 27.1506 163.196 27.1506C166.967 27.1506 167.271 27.0187 167.271 27.5407C167.266 29.2903 167.381 29.7435 166.881 29.7435Z" fill="#D6723A"/>
<path d="M141.127 45.9607C137.356 45.9607 137.052 46.0926 137.052 45.5706C137.052 43.821 136.937 43.3678 137.442 43.3678C141.213 43.3678 141.518 43.2358 141.518 43.7579C141.518 45.5075 141.633 45.9607 141.127 45.9607Z" fill="#D6723A"/>
<path d="M130.768 41.1711C126.997 41.1711 126.693 41.3031 126.693 40.7811C126.693 39.0314 126.578 38.5782 127.084 38.5782C130.855 38.5782 131.159 38.4463 131.159 38.9683C131.159 40.718 131.274 41.1711 130.768 41.1711Z" fill="#D6723A"/>
<path d="M130.768 35.6178C126.997 35.6178 126.693 35.7497 126.693 35.2277C126.693 33.4781 126.578 33.0249 127.084 33.0249C130.855 33.0249 131.159 32.8929 131.159 33.415C131.159 35.1646 131.274 35.6178 130.768 35.6178Z" fill="#D6723A"/>
<path d="M130.768 29.7435C126.997 29.7435 126.693 29.8755 126.693 29.3534C126.693 27.6038 126.578 27.1506 127.084 27.1506C130.855 27.1506 131.159 27.0187 131.159 27.5407C131.159 29.2903 131.274 29.7435 130.768 29.7435Z" fill="#D6723A"/>
<path d="M130.768 24.5175C126.997 24.5175 126.693 24.6494 126.693 24.1274C126.693 22.3777 126.578 21.9245 127.084 21.9245C130.855 21.9245 131.159 21.7926 131.159 22.3146C131.159 24.07 131.274 24.5175 130.768 24.5175Z" fill="#D6723A"/>
<path d="M132.568 45.8917C121.703 45.8917 121.921 46.0581 121.921 45.5016C121.921 43.752 121.806 43.2988 122.312 43.2988C133.177 43.2988 132.958 43.1324 132.958 43.6889C132.958 45.4385 133.073 45.8917 132.568 45.8917Z" fill="#CC882A"/>
<path d="M123.91 49.5685C117.437 49.5685 117.299 49.7176 117.299 49.1784C117.299 47.4288 117.184 46.9756 117.69 46.9756C124.163 46.9756 124.301 46.8264 124.301 47.3657C124.301 49.1153 124.416 49.5685 123.91 49.5685Z" fill="#9EBFD8"/>
<path d="M157.177 10.159C131.498 10.159 132.757 10.3368 132.757 9.76887C132.757 8.01923 132.642 7.56604 133.148 7.56604C158.827 7.56604 157.568 7.38821 157.568 7.95613C157.568 9.70577 157.683 10.159 157.177 10.159Z" fill="#CC882A"/>
<path d="M157.384 35.6174C131.705 35.6174 132.964 35.7953 132.964 35.2274C132.964 33.4777 132.849 33.0245 133.355 33.0245C159.034 33.0245 157.775 32.8467 157.775 33.4146C157.769 35.1643 157.884 35.6174 157.384 35.6174Z" fill="#9EBFD8"/>
<path d="M146.956 29.7435C132.372 29.7435 132.959 29.9099 132.959 29.3534C132.959 27.6038 132.844 27.1506 133.35 27.1506C147.934 27.1506 147.347 26.9843 147.347 27.5407C147.347 29.2903 147.462 29.7435 146.956 29.7435Z" fill="#9EBFD8"/>
<path d="M157.384 24.5176C131.705 24.5176 132.964 24.6954 132.964 24.1275C132.964 22.3779 132.849 21.9247 133.355 21.9247C159.034 21.9247 157.775 21.7469 157.775 22.3148C157.769 24.0701 157.884 24.5176 157.384 24.5176Z" fill="#9EBFD8"/>
<path d="M178.671 10.1589C161.534 10.1589 162.109 10.331 162.109 9.76878C162.109 8.01914 161.994 7.56596 162.5 7.56596C179.637 7.56596 179.062 7.39386 179.062 7.95604C179.062 9.70568 179.177 10.1589 178.671 10.1589Z" fill="#CC882A"/>
<path d="M222.745 77.9473C161.92 77.9473 163.11 78.8767 163.11 75.7273C163.11 40.2756 162.27 39.6676 165.334 39.6676C226.16 39.6676 224.97 38.7382 224.97 41.8876C224.97 77.345 225.809 77.9473 222.745 77.9473Z" fill="white"/>
<path d="M177.314 78.4004C166.524 78.4004 164.041 78.2054 163.173 77.3334C162.776 76.9376 162.776 76.4328 162.782 75.8993V75.7215C162.782 68.1263 162.742 62.1775 162.713 57.399C162.627 44.0444 162.61 40.8721 163.673 39.8051C164.098 39.3749 164.656 39.3405 165.334 39.3405C179.252 39.3405 189.702 39.2946 198.101 39.2544C219.848 39.1569 223.768 39.1397 224.906 40.2755C225.303 40.6713 225.303 41.1761 225.297 41.7096V41.8875C225.297 49.4826 225.337 55.4314 225.366 60.2157C225.452 73.5645 225.47 76.7368 224.406 77.8096C223.981 78.2398 223.423 78.2742 222.745 78.2742C208.828 78.2742 198.377 78.3201 189.978 78.3603C184.822 78.3832 180.671 78.4004 177.314 78.4004ZM210.61 39.8682C207.258 39.8682 203.148 39.8854 198.101 39.9084C189.702 39.9485 179.252 39.9944 165.334 39.9944C164.691 39.9944 164.369 40.0346 164.139 40.264C163.265 41.1417 163.288 45.2376 163.368 57.399C163.397 62.1775 163.437 68.1321 163.437 75.7272V75.905C163.432 76.4041 163.443 76.6737 163.639 76.8745C164.587 77.821 169.968 77.7981 189.978 77.7063C198.377 77.6661 208.828 77.6203 222.745 77.6203C223.389 77.6203 223.711 77.5801 223.941 77.3506C224.814 76.4729 224.786 72.3771 224.711 60.2214C224.682 55.4429 224.642 49.4884 224.642 41.8932V41.7154C224.648 41.2163 224.636 40.9467 224.441 40.7459C223.734 40.0346 220.549 39.8682 210.61 39.8682Z" fill="#EEE4D9"/>
<path d="M224.969 41.578H163.11C163.11 40.5282 163.966 39.6734 165.018 39.6734C226.901 39.6734 224.969 38.8588 224.969 41.578Z" fill="#444244"/>
<path d="M225.298 41.8996H162.783V41.5727C162.783 40.345 163.783 39.3469 165.013 39.3469C179.396 39.3469 190.52 39.301 198.642 39.2723C220.119 39.1863 223.988 39.169 224.982 40.1787C225.315 40.5171 225.304 40.9416 225.298 41.3489C225.298 41.4235 225.292 41.4981 225.292 41.5784V41.8996H225.298ZM163.467 41.2514H224.649C224.654 40.9302 224.643 40.7581 224.516 40.6319C223.717 39.823 218.406 39.8402 198.648 39.9205C190.525 39.955 179.396 40.0008 165.013 40.0008C164.255 40.0008 163.622 40.5343 163.467 41.2514Z" fill="#444244"/>
<path d="M222.279 41.1359C222.814 41.1359 223.302 41.2449 223.302 40.9237C223.302 40.5394 223.394 40.1091 223.09 40.1091C222.555 40.1091 222.067 40.0001 222.067 40.3214C222.072 40.7115 221.98 41.1359 222.279 41.1359Z" fill="#BEC0C2"/>
<path d="M222.326 41.0859C222.28 41.0859 222.234 41.0687 222.2 41.0286C222.142 40.9597 222.154 40.8565 222.223 40.7991L222.941 40.2025C223.01 40.1451 223.114 40.1566 223.171 40.2254C223.229 40.2943 223.217 40.3975 223.148 40.4549L222.43 41.0515C222.401 41.0745 222.367 41.0859 222.326 41.0859Z" fill="white"/>
<path d="M223.049 41.0853C223.014 41.0853 222.974 41.0738 222.945 41.0452L222.227 40.4486C222.158 40.3912 222.146 40.2879 222.204 40.2191C222.261 40.1503 222.365 40.1388 222.434 40.1962L223.152 40.7927C223.221 40.8501 223.233 40.9534 223.175 41.0222C223.141 41.0681 223.095 41.0853 223.049 41.0853Z" fill="white"/>
<path d="M169.41 46.2933C168.352 46.2933 167.858 46.3966 167.858 45.9319V44.7445C167.858 44.5437 168.019 44.3831 168.22 44.3831H169.41C169.611 44.3831 169.772 44.5437 169.772 44.7445V45.9319C169.772 46.1327 169.611 46.2933 169.41 46.2933Z" fill="#D6723A"/>
<path d="M169.41 50.4918C168.353 50.4918 167.858 50.5951 167.858 50.1304C167.858 49.0749 167.755 48.5815 168.22 48.5815H169.41C169.611 48.5815 169.772 48.7422 169.772 48.9429V50.1304C169.772 50.3255 169.611 50.4918 169.41 50.4918Z" fill="#D6723A"/>
<path d="M169.41 54.9549C168.353 54.9549 167.858 55.0582 167.858 54.5935C167.858 53.538 167.755 53.0447 168.22 53.0447H169.41C169.611 53.0447 169.772 53.2053 169.772 53.4061V54.5935C169.772 54.7943 169.611 54.9549 169.41 54.9549Z" fill="#D6723A"/>
<path d="M169.41 58.6151C168.353 58.6151 167.858 58.7183 167.858 58.2537C167.858 57.1982 167.755 56.7048 168.22 56.7048H169.41C169.611 56.7048 169.772 56.8655 169.772 57.0662V58.2537C169.772 58.4545 169.611 58.6151 169.41 58.6151Z" fill="#D6723A"/>
<path d="M169.41 62.9C168.353 62.9 167.858 63.0033 167.858 62.5386C167.858 61.4831 167.755 60.9897 168.22 60.9897H169.41C169.611 60.9897 169.772 61.1504 169.772 61.3511V62.5386C169.772 62.7394 169.611 62.9 169.41 62.9Z" fill="#D6723A"/>
<path d="M175.883 45.4841H170.882C170.801 45.4841 170.738 45.421 170.738 45.3407C170.738 45.2604 170.801 45.1973 170.882 45.1973H175.883C175.963 45.1973 176.027 45.2604 176.027 45.3407C176.027 45.421 175.963 45.4841 175.883 45.4841Z" fill="#EEE4D9"/>
<path d="M175.883 73.3747H170.882C170.801 73.3747 170.738 73.3116 170.738 73.2313C170.738 73.151 170.801 73.0879 170.882 73.0879H175.883C175.963 73.0879 176.027 73.151 176.027 73.2313C176.027 73.3116 175.963 73.3747 175.883 73.3747Z" fill="#EEE4D9"/>
<path d="M170.882 73.375C170.801 73.375 170.738 73.3119 170.738 73.2316V45.3407C170.738 45.2604 170.801 45.1973 170.882 45.1973C170.962 45.1973 171.025 45.2604 171.025 45.3407V73.2374C171.025 73.3119 170.962 73.375 170.882 73.375Z" fill="#EEE4D9"/>
<path d="M182.448 46.2932H175.153C174.837 46.2932 174.578 46.035 174.578 45.7195V44.9566C174.578 44.6411 174.837 44.3829 175.153 44.3829H182.448C182.764 44.3829 183.023 44.6411 183.023 44.9566V45.7195C183.023 46.0408 182.764 46.2932 182.448 46.2932Z" fill="#9EBFD8"/>
<path opacity="0.8" d="M210.644 46.2932C184.345 46.2932 185.23 46.5513 185.23 45.7195V44.9566C185.23 44.6411 185.489 44.3829 185.805 44.3829H210.65C210.966 44.3829 211.225 44.6411 211.225 44.9566V45.7195C211.219 46.0408 210.961 46.2932 210.644 46.2932Z" fill="#B5B5B5"/>
<path opacity="0.8" d="M210.644 54.6856H185.799C185.483 54.6856 185.224 54.4274 185.224 54.1119V53.3489C185.224 53.0334 185.483 52.7753 185.799 52.7753C212.099 52.7753 211.214 52.5171 211.214 53.3489C211.219 53.9283 211.334 54.6856 210.644 54.6856Z" fill="#B5B5B5"/>
<path opacity="0.8" d="M210.644 63.0724H185.799C185.483 63.0724 185.224 62.8142 185.224 62.4987V61.7358C185.224 61.4203 185.483 61.1621 185.799 61.1621C212.099 61.1621 211.214 60.904 211.214 61.7358C211.219 62.3152 211.334 63.0724 210.644 63.0724Z" fill="#B5B5B5"/>
<path opacity="0.8" d="M210.644 71.4649C184.345 71.4649 185.23 71.7231 185.23 70.8913C185.23 70.3119 185.115 69.5547 185.805 69.5547C212.105 69.5547 211.219 69.2966 211.219 70.1284C211.219 70.7077 211.334 71.4649 210.644 71.4649Z" fill="#B5B5B5"/>
<path d="M182.448 50.4922H175.153C174.837 50.4922 174.578 50.234 174.578 49.9185V49.1556C174.578 48.8401 174.837 48.5819 175.153 48.5819H182.448C182.764 48.5819 183.023 48.8401 183.023 49.1556V49.9185C183.023 50.234 182.764 50.4922 182.448 50.4922Z" fill="#9EBFD8"/>
<path d="M182.448 54.6856H175.153C174.837 54.6856 174.578 54.4275 174.578 54.112V53.349C174.578 53.0335 174.837 52.7754 175.153 52.7754C182.758 52.7754 183.017 52.5688 183.017 53.349V54.112C183.023 54.4275 182.764 54.6856 182.448 54.6856Z" fill="#9EBFD8"/>
<path d="M182.448 58.8793H175.153C174.837 58.8793 174.578 58.6211 174.578 58.3056V57.5426C174.578 57.2271 174.837 56.969 175.153 56.969H182.448C182.764 56.969 183.023 57.2271 183.023 57.5426V58.3056C183.023 58.6269 182.764 58.8793 182.448 58.8793Z" fill="#9EBFD8"/>
<path d="M182.448 63.0722H175.153C174.837 63.0722 174.578 62.8141 174.578 62.4986V61.7356C174.578 61.4201 174.837 61.162 175.153 61.162H182.448C182.764 61.162 183.023 61.4201 183.023 61.7356V62.4986C183.023 62.8198 182.764 63.0722 182.448 63.0722Z" fill="#9EBFD8"/>
<path d="M182.448 67.2714H175.153C174.837 67.2714 174.578 67.0132 174.578 66.6977V65.9347C174.578 65.6192 174.837 65.3611 175.153 65.3611H182.448C182.764 65.3611 183.023 65.6192 183.023 65.9347V66.6977C183.023 67.0132 182.764 67.2714 182.448 67.2714Z" fill="#9EBFD8"/>
<path d="M182.448 71.4649C174.843 71.4649 174.584 71.6714 174.584 70.8913C174.584 70.3119 174.469 69.5547 175.159 69.5547C182.764 69.5547 183.023 69.3481 183.023 70.1283C183.023 70.7077 183.138 71.4649 182.448 71.4649Z" fill="#9EBFD8"/>
<path d="M219.647 50.4923C212.041 50.4923 211.783 50.6988 211.783 49.9186C211.783 49.3392 211.668 48.582 212.357 48.582C219.963 48.582 220.221 48.3755 220.221 49.1557C220.216 49.7293 220.336 50.4923 219.647 50.4923Z" fill="#9EBFD8"/>
<path d="M219.647 58.8789C212.041 58.8789 211.783 59.0854 211.783 58.3052C211.783 57.7258 211.668 56.9686 212.357 56.9686C219.963 56.9686 220.221 56.7621 220.221 57.5422C220.216 58.1216 220.336 58.8789 219.647 58.8789Z" fill="#9EBFD8"/>
<path d="M219.647 67.2717C212.041 67.2717 211.783 67.4782 211.783 66.698C211.783 66.1186 211.668 65.3614 212.357 65.3614C219.963 65.3614 220.221 65.1549 220.221 65.9351C220.216 66.5087 220.336 67.2717 219.647 67.2717Z" fill="#9EBFD8"/>
<path d="M185.282 110.738C114.621 110.738 116.035 111.805 116.035 108.162C116.035 67.0486 115.069 66.2914 118.616 66.2914H185.282C186.707 66.2914 187.863 67.4444 187.863 68.8671C187.863 109.981 188.829 110.738 185.282 110.738Z" fill="white"/>
<path d="M132.602 111.208C120.03 111.208 117.139 110.985 116.144 109.986C115.702 109.539 115.702 108.971 115.707 108.369V108.162C115.707 99.3968 115.661 92.513 115.627 86.983C115.529 71.4198 115.506 67.7197 116.731 66.4864C117.213 65.9988 117.84 65.9644 118.61 65.9644H185.276C186.88 65.9644 188.185 67.2665 188.185 68.867C188.185 77.6324 188.231 84.5163 188.265 90.0405C188.363 105.604 188.386 109.304 187.162 110.537C186.679 111.025 186.052 111.059 185.282 111.059C169.192 111.059 157.085 111.111 147.359 111.157C141.346 111.185 136.505 111.208 132.602 111.208ZM118.616 66.6126C117.863 66.6126 117.478 66.6585 117.196 66.9453C116.161 67.9836 116.19 72.3893 116.282 86.9772C116.317 92.5072 116.363 99.391 116.363 108.156V108.369C116.357 108.96 116.368 109.281 116.61 109.522C117.725 110.635 124.002 110.612 147.359 110.503C157.085 110.457 169.197 110.405 185.287 110.405C186.041 110.405 186.426 110.359 186.707 110.072C187.742 109.034 187.713 104.628 187.621 90.0405C187.587 84.5105 187.541 77.6267 187.541 68.8613C187.541 67.6222 186.529 66.6068 185.282 66.6068H118.616V66.6126Z" fill="#EEE4D9"/>
<path d="M187.863 68.4997H116.029C116.029 67.2836 117.018 66.2912 118.243 66.2912C190.111 66.2912 187.863 65.3447 187.863 68.4997Z" fill="#444244"/>
<path d="M188.191 68.8208H115.708V68.4939C115.708 67.0941 116.846 65.9583 118.249 65.9583C134.943 65.9583 147.859 65.9067 157.287 65.8665C182.218 65.7633 186.714 65.746 187.846 66.8991C188.22 67.2777 188.208 67.7309 188.197 68.2185C188.197 68.3045 188.191 68.3963 188.191 68.4881V68.8208ZM116.386 68.1726H187.542C187.553 67.7596 187.542 67.5301 187.375 67.3638C186.432 66.4057 180.258 66.4344 157.281 66.5262C147.848 66.5664 134.931 66.618 118.237 66.618C117.318 66.6123 116.542 67.2892 116.386 68.1726Z" fill="#444244"/>
<path d="M184.741 67.989H185.684C185.822 67.989 185.931 67.88 185.931 67.7423V67.0424C185.931 66.9048 185.822 66.7958 185.684 66.7958H184.741C184.603 66.7958 184.494 66.9048 184.494 67.0424V67.7423C184.494 67.88 184.603 67.989 184.741 67.989Z" fill="#BEC0C2"/>
<path d="M184.794 67.9045C184.748 67.9045 184.702 67.8873 184.667 67.8472C184.61 67.7783 184.621 67.6751 184.69 67.6177L185.524 66.9236C185.593 66.8662 185.696 66.8777 185.754 66.9465C185.811 67.0154 185.8 67.1186 185.731 67.176L184.897 67.8701C184.868 67.8931 184.834 67.9045 184.794 67.9045Z" fill="white"/>
<path d="M185.633 67.9033C185.599 67.9033 185.559 67.8918 185.53 67.8631L184.696 67.169C184.627 67.1117 184.616 67.0084 184.673 66.9396C184.731 66.8707 184.834 66.8592 184.903 66.9166L185.737 67.6107C185.806 67.6681 185.817 67.7714 185.76 67.8402C185.725 67.8861 185.679 67.9033 185.633 67.9033Z" fill="white"/>
<path d="M144.122 78.3836C125.175 78.3836 125.739 78.5844 125.739 77.9304C125.739 76.3758 125.606 75.7907 126.193 75.7907C145.14 75.7907 144.577 75.5899 144.577 76.2438C144.571 77.7985 144.703 78.3836 144.122 78.3836Z" fill="#9EBFD8"/>
<path d="M158.281 101.221C124.296 101.221 125.739 101.496 125.739 100.624C125.739 99.54 125.56 98.6279 126.336 98.6279H158.281C158.614 98.6279 158.879 98.8975 158.879 99.2245V100.619C158.879 100.951 158.609 101.221 158.281 101.221Z" fill="#9EBFD8"/>
<path d="M123.341 78.4136C121.887 78.4136 121.209 78.557 121.209 77.9203C121.209 76.4689 121.065 75.792 121.703 75.792C123.158 75.792 123.836 75.6486 123.836 76.2854C123.836 77.7367 123.985 78.4136 123.341 78.4136Z" fill="#D6723A"/>
<path d="M123.341 84.1776C121.887 84.1776 121.209 84.321 121.209 83.6843C121.209 82.233 121.065 81.5561 121.703 81.5561C123.158 81.5561 123.836 81.4127 123.836 82.0494C123.836 83.5007 123.985 84.1776 123.341 84.1776Z" fill="#D6723A"/>
<path d="M123.341 90.3157C121.887 90.3157 121.209 90.4591 121.209 89.8224C121.209 88.3768 121.065 87.6941 121.703 87.6941C123.158 87.6941 123.836 87.5507 123.836 88.1875C123.836 89.6388 123.985 90.3157 123.341 90.3157Z" fill="#D6723A"/>
<path d="M123.341 95.3465C121.887 95.3465 121.209 95.4899 121.209 94.8531C121.209 93.4018 121.065 92.7249 121.703 92.7249C123.158 92.7249 123.836 92.5815 123.836 93.2182C123.836 94.6696 123.985 95.3465 123.341 95.3465Z" fill="#D6723A"/>
<path d="M123.341 101.232C121.887 101.232 121.209 101.376 121.209 100.739C121.209 99.2932 121.065 98.6105 121.703 98.6105C123.158 98.6105 123.836 98.4671 123.836 99.1039C123.836 100.555 123.985 101.232 123.341 101.232Z" fill="#D6723A"/>
<path opacity="0.8" d="M181.89 78.424C145.841 78.424 147.008 78.7854 147.008 77.6381C147.008 76.8063 146.847 75.7737 147.796 75.7737H181.89C182.327 75.7737 182.678 76.1293 182.678 76.5596V77.6323C182.683 78.074 182.327 78.424 181.89 78.424Z" fill="#BEC0C2"/>
<path d="M144.122 84.1489C125.175 84.1489 125.739 84.3497 125.739 83.6957C125.739 82.1412 125.606 81.556 126.193 81.556C145.14 81.556 144.577 81.3553 144.577 82.0092V83.7015C144.571 83.9481 144.37 84.1489 144.122 84.1489Z" fill="#9EBFD8"/>
<path opacity="0.8" d="M178.337 84.1948C145.91 84.1948 147.008 84.5218 147.008 83.4491C147.008 82.5427 146.847 81.5446 147.755 81.5446H178.337C178.751 81.5446 179.085 81.8773 179.085 82.2903V83.4433C179.085 83.8564 178.751 84.1948 178.337 84.1948Z" fill="#BEC0C2"/>
<path d="M144.122 90.287C125.175 90.287 125.739 90.4878 125.739 89.8338C125.739 88.2792 125.606 87.6941 126.193 87.6941C145.14 87.6941 144.577 87.4933 144.577 88.1473C144.571 89.7019 144.703 90.287 144.122 90.287Z" fill="#9EBFD8"/>
<path opacity="0.8" d="M172.411 90.3329C146.261 90.3329 147.008 90.6255 147.008 89.656C147.008 88.6291 146.836 87.6769 147.686 87.6769H172.411C172.785 87.6769 173.089 87.9809 173.089 88.3538V89.656C173.083 90.0289 172.785 90.3329 172.411 90.3329Z" fill="#BEC0C2"/>
<path opacity="0.8" d="M172.411 96.6718C146.261 96.6718 147.008 96.9643 147.008 95.9949C147.008 94.968 146.836 94.0157 147.686 94.0157H172.411C172.785 94.0157 173.089 94.3198 173.089 94.6927V95.9949C173.083 96.3735 172.785 96.6718 172.411 96.6718Z" fill="#BEC0C2"/>
<path d="M144.122 96.4305C125.175 96.4305 125.739 96.6313 125.739 95.9774C125.739 94.4228 125.606 93.8377 126.193 93.8377C145.14 93.8377 144.577 93.6369 144.577 94.2908C144.571 95.8397 144.703 96.4305 144.122 96.4305Z" fill="#9EBFD8"/>
<path opacity="0.8" d="M182.051 101.25C159.385 101.25 160.051 101.519 160.051 100.618C160.051 99.4769 159.891 98.5935 160.684 98.5935H182.057C182.402 98.5935 182.689 98.8746 182.689 99.2245V100.618C182.678 100.968 182.396 101.25 182.051 101.25Z" fill="#BEC0C2"/>
<path d="M99.4736 133.701C46.1617 133.701 46.2365 117.799 99.4736 117.799C152.785 117.799 152.705 133.701 99.4736 133.701Z" fill="#E0DFEA"/>
<path d="M75.9047 125.532C74.7953 125.108 74.9907 125.693 81.3946 103.688L85.4358 105.11L77.0717 125.039C76.675 125.968 75.5771 125.406 75.9047 125.532Z" fill="#9E653B"/>
<path d="M121.887 125.142L116.443 104.233L112.368 105.541L120.163 125.699C120.576 126.76 122.175 126.226 121.887 125.142Z" fill="#9E653B"/>
<path d="M73.6746 106.235C55.9232 98.4164 56.6475 77.9714 67.0121 75.7399C72.6226 74.5295 77.3249 79.6121 82.0215 82.9048C90.535 88.8708 102.59 89.3068 111.523 83.9776C116.099 81.247 128.498 71.1335 136.374 78.3558C145.083 86.3353 133.057 109.258 113.627 108.037C100.44 107.199 86.2409 111.765 73.6746 106.235Z" fill="#739086"/>
<path d="M89.0745 109.109C83.7974 109.109 78.572 108.489 73.6397 106.321C62.982 101.628 58.9465 92.3349 59.6708 85.2102C60.1824 80.1678 62.9935 76.5021 66.9944 75.6417C71.507 74.6665 75.4275 77.7183 79.2101 80.6611C80.1528 81.3954 81.1243 82.1526 82.0786 82.8181C90.5289 88.7381 102.612 89.1741 111.471 83.885C112.08 83.5236 112.822 83.0303 113.684 82.4624C119.231 78.7968 129.55 71.9646 136.437 78.2747C139.765 81.3266 140.271 86.8738 137.759 92.7594C135.908 97.0848 132.712 101.003 128.745 103.785C124.227 106.957 118.996 108.46 113.621 108.122C109.039 107.835 104.251 108.202 99.6173 108.564C96.128 108.833 92.5869 109.109 89.0745 109.109ZM68.719 75.6474C68.1671 75.6474 67.6095 75.7048 67.0404 75.8252C63.1199 76.6685 60.3721 80.271 59.8663 85.2274C59.1477 92.2833 63.1487 101.49 73.7202 106.143C81.8946 109.74 90.8968 109.045 99.6116 108.374C104.251 108.013 109.051 107.646 113.644 107.933C125.307 108.667 134.235 100.544 137.592 92.6849C140.075 86.8795 139.587 81.4126 136.322 78.4181C129.55 72.2112 119.312 78.9861 113.81 82.623C112.948 83.1967 112.201 83.69 111.586 84.0514C102.664 89.3806 90.4887 88.9389 81.9808 82.9729C81.0266 82.3018 80.0493 81.5445 79.1066 80.8103C75.8242 78.269 72.4555 75.6474 68.719 75.6474Z" fill="#457373"/>
<path d="M80.239 100.406C67.0059 94.5779 67.5463 79.3302 75.2723 77.6666C79.4572 76.766 82.9638 80.5521 86.4647 83.0073C92.8111 87.4531 101.802 87.7801 108.459 83.8047C111.873 81.7682 121.111 74.2304 126.986 79.6113C133.476 85.56 124.514 102.655 110.028 101.743C100.192 101.129 89.6091 104.536 80.239 100.406Z" fill="#457373"/>
<path d="M70.5415 65.5744C68.0696 59.7633 65.5518 53.4245 67.1211 47.3094C70.9036 32.5608 99.2669 24.1281 121.646 35.6241C150.912 50.648 121.243 75.556 115.8 87.2642C114.035 91.0618 113.305 92.5361 107.78 92.7541C76.2268 93.9989 79.5609 86.7823 70.5415 65.5744Z" fill="#739086"/>
<path d="M101.554 92.9888C92.2131 92.9888 86.6141 91.9103 82.9063 89.501C78.4397 86.5983 76.6691 81.8427 73.9961 74.6549C73.0073 71.9931 71.8806 68.97 70.455 65.6141C68.3165 60.5832 65.3848 53.6936 67.0288 47.2917C68.4142 41.8936 73.082 37.161 80.1815 33.9772C92.65 28.3841 108.941 28.9979 121.692 35.5433C128.665 39.1229 132.821 43.5916 134.057 48.8233C136.356 58.5811 128.44 69.3314 122.077 77.9706C119.398 81.6133 117.081 84.7569 115.891 87.3153C114.138 91.0842 113.414 92.6388 107.792 92.8626C105.538 92.9429 103.469 92.9888 101.554 92.9888ZM70.6332 65.5338C72.0646 68.8954 73.1855 71.9128 74.18 74.5803C79.4974 88.8814 81.2909 93.7058 107.78 92.656C113.287 92.4381 113.948 91.0211 115.713 87.2178C116.909 84.6421 119.231 81.4928 121.922 77.8386C128.262 69.2338 136.149 58.5238 133.867 48.852C132.648 43.6777 128.521 39.2548 121.605 35.6982C108.907 29.1815 92.6845 28.5677 80.262 34.1378C73.22 37.2986 68.5867 41.9796 67.2185 47.3203C65.586 53.6764 68.5005 60.5315 70.6332 65.5338Z" fill="#457373"/>
<path d="M76.514 64.7765C74.5365 60.1242 72.5188 55.0474 73.7719 50.1542C76.8014 38.3427 99.5081 31.5965 117.432 40.7979C140.863 52.8274 117.11 72.7732 112.753 82.1467C111.339 85.1871 110.758 86.3688 106.332 86.5466C81.0611 87.539 83.7341 81.7566 76.514 64.7765Z" fill="#457373"/>
<path d="M106.205 39.2888C106.711 39.5584 106.843 40.2181 106.498 40.677C102.658 45.6965 93.6389 43.7403 90.7129 40.7975C89.2585 39.0134 94.1447 39.3978 94.1217 37.9063C94.0413 31.5158 93.4032 31.2691 95.2312 31.1544C96.8753 31.0512 99.4564 31.4126 101.014 30.8561C101.313 30.7471 101.486 29.9727 101.635 30.6955C102.302 33.9768 103.256 37.7399 106.205 39.2888Z" fill="#FBA789"/>
<path d="M95.4899 36.3285C100.255 34.1773 102.773 30.2077 103.411 25.2054C104.239 18.7346 101.75 17.0137 97.7261 16.5031C84.6195 14.8395 89.5632 39.0017 95.4899 36.3285Z" fill="#FBA789"/>
<path d="M97.7664 14.2256C98.8069 12.7226 103.055 12.889 104.791 16.3825C106.82 20.4726 101.675 31.6187 101.635 30.7697C101.537 28.7447 101.29 22.9451 99.3588 18.614C98.9219 17.6445 97.0191 15.3155 97.7664 14.2256Z" fill="#95563A"/>
<path d="M102.451 26.4159C104.044 21.7177 100.238 20.0197 101.123 27.5805C101.365 29.6456 102.21 27.1158 102.451 26.4159Z" fill="#FBA789"/>
<path d="M96.1739 27.454C96.651 27.4598 97.0534 25.6585 95.898 25.6413C95.2829 25.6298 95.3979 27.4368 96.1739 27.454Z" fill="#382823"/>
<path d="M91.6557 27.3622C92.1328 27.368 92.5352 25.5667 91.3798 25.5495C90.7647 25.538 90.8796 27.345 91.6557 27.3622Z" fill="#382823"/>
<path d="M95.3002 24.4882C95.1105 24.5857 95.1507 24.8726 95.3634 24.9127C101.192 26.0485 98.755 22.7214 95.3002 24.4882Z" fill="#95563A"/>
<path d="M92.9549 24.649C93.1159 24.7866 93.0066 25.0563 92.7939 25.0448C86.8557 24.7293 90.0347 22.0962 92.9549 24.649Z" fill="#95563A"/>
<path d="M95.6509 21.081C95.0416 21.1957 94.4322 20.9032 93.8114 20.8802C92.5295 20.8286 90.0058 22.6586 89.0976 21.0007C88.6837 20.2377 89.2183 19.3314 89.3275 18.4766C89.6207 16.2566 88.563 16.7901 93.0353 13.6694C96.0073 11.5985 96.4097 13.2679 97.4502 13.5375C98.4964 13.8071 99.8473 12.5565 100.353 15.1495C100.48 15.7862 101.486 18.7749 101.141 19.2396C100.848 19.6297 100.497 19.1937 100.072 18.9642C97.5594 17.6219 97.7434 20.7368 95.6509 21.081Z" fill="#95563A"/>
<path d="M99.054 17.9542C99.0252 17.9542 98.9965 17.9484 98.9735 17.9312C97.6514 17.1568 97.0305 15.4244 97.5651 13.9902C97.5939 13.9042 97.6916 13.864 97.7721 13.8927C97.8583 13.9214 97.8985 14.0189 97.8698 14.0992C97.3984 15.3727 97.9675 16.9618 99.1402 17.6501C99.2149 17.696 99.2437 17.7936 99.1977 17.8739C99.1632 17.9255 99.1115 17.9542 99.054 17.9542Z" fill="#7D3B1A"/>
<path d="M103.02 15.7114C102.969 15.7114 102.917 15.6827 102.882 15.6368C101.71 13.847 99.3701 14.1338 98.4388 14.6788C98.3641 14.7247 98.2606 14.696 98.2146 14.6214C98.1686 14.5411 98.1974 14.4436 98.2721 14.3977C99.508 13.6749 101.963 13.6405 103.153 15.459C103.204 15.5336 103.181 15.6368 103.107 15.6827C103.078 15.6999 103.049 15.7114 103.02 15.7114Z" fill="#7D3B1A"/>
<path d="M100.905 16.2677C100.865 16.2677 100.819 16.2505 100.79 16.2218C100.497 15.9235 99.9566 15.7228 99.4679 15.7285C99.2438 15.7342 98.9391 15.7801 98.7436 15.9981C98.6804 16.067 98.5769 16.067 98.5137 16.0096C98.4447 15.9465 98.4447 15.8432 98.5022 15.7801C98.7206 15.5449 99.0541 15.413 99.4622 15.4073C100.037 15.3958 100.664 15.6367 101.026 15.9981C101.089 16.0612 101.089 16.1645 101.026 16.2276C100.991 16.2563 100.945 16.2677 100.905 16.2677Z" fill="#7D3B1A"/>
<path d="M102.411 20.6564C102.336 20.6564 102.267 20.599 102.25 20.5245C102.078 19.5607 101.215 17.8111 100.319 17.3579C100.054 17.226 99.8186 17.2145 99.5886 17.3292C99.5082 17.3694 99.4104 17.335 99.3702 17.2547C99.33 17.1743 99.3644 17.0768 99.4449 17.0367C99.7668 16.8818 100.112 16.8875 100.462 17.0653C101.537 17.6046 102.405 19.5665 102.566 20.4614C102.584 20.5474 102.526 20.6335 102.434 20.6507C102.428 20.6564 102.423 20.6564 102.411 20.6564Z" fill="#7D3B1A"/>
<path d="M103.693 24.0984C103.682 24.0984 103.664 24.0984 103.653 24.0927C103.567 24.0697 103.515 23.9837 103.538 23.8919C103.958 22.3144 104.268 20.6967 104.458 19.0732C104.469 18.9814 104.55 18.9183 104.636 18.9298C104.728 18.9413 104.791 19.0216 104.78 19.1076C104.584 20.7426 104.274 22.3775 103.854 23.9665C103.831 24.0525 103.768 24.0984 103.693 24.0984Z" fill="#7D3B1A"/>
<path d="M102.038 29.7372C102.009 29.7372 101.98 29.7314 101.951 29.7142C101.877 29.6683 101.848 29.5651 101.9 29.4905C102.17 29.043 102.681 27.6146 102.825 26.9836C102.842 26.8976 102.934 26.8402 103.021 26.8574C103.107 26.8746 103.164 26.9664 103.147 27.0525C102.998 27.7179 102.474 29.175 102.181 29.6568C102.147 29.7085 102.089 29.7372 102.038 29.7372Z" fill="#7D3B1A"/>
<path d="M92.1845 15.5508C92.104 15.5508 92.0351 15.4935 92.0236 15.4074C92.0121 15.3156 92.0753 15.2353 92.1673 15.2239C92.5984 15.1722 92.9721 14.8051 93.3745 14.4207C94.1678 13.652 95.1565 12.6998 96.9271 14.1511C96.996 14.2085 97.0075 14.3118 96.9501 14.3806C96.8926 14.4494 96.7891 14.4609 96.7201 14.4035C95.168 13.1358 94.4092 13.8758 93.5987 14.6559C93.1618 15.0804 92.7421 15.482 92.2075 15.5508C92.196 15.5508 92.1903 15.5508 92.1845 15.5508Z" fill="#7D3B1A"/>
<path d="M94.7829 16.8071C94.7081 16.8071 94.6276 16.8014 94.5472 16.7842C94.4609 16.767 94.3977 16.6809 94.415 16.5949C94.4322 16.5088 94.5127 16.4457 94.6047 16.463C95.0588 16.5433 95.2887 16.3195 95.5589 16.0499C95.9211 15.6943 96.3292 15.2927 97.2375 15.8033C97.318 15.8491 97.341 15.9467 97.3007 16.027C97.2547 16.1073 97.157 16.1302 97.0765 16.0901C96.381 15.7 96.1338 15.9467 95.7831 16.2851C95.5474 16.5261 95.2542 16.8071 94.7829 16.8071Z" fill="#7D3B1A"/>
<path d="M94.9495 19.8358C94.8633 19.8358 94.7771 19.8244 94.6851 19.79C94.5989 19.7613 94.5529 19.6695 94.5816 19.5834C94.6104 19.4974 94.7023 19.4515 94.7886 19.4802C95.2829 19.6465 95.8405 18.9639 96.3349 18.3558C96.812 17.7764 97.2604 17.2315 97.7318 17.2888C97.8238 17.3003 97.887 17.3806 97.8755 17.4724C97.864 17.5584 97.7835 17.6215 97.6916 17.6158C97.3984 17.5757 96.9845 18.0805 96.5878 18.5681C96.0992 19.1647 95.5474 19.8358 94.9495 19.8358Z" fill="#7D3B1A"/>
<path d="M91.052 20.5414C90.8221 20.5414 90.5806 20.4726 90.3737 20.3292C90.0403 20.1112 89.8333 19.767 89.8218 19.4056C89.8103 19.0155 89.977 18.7 90.1495 18.3616C90.3622 17.9543 90.6094 17.4896 90.6151 16.7496C90.6151 16.6578 90.6841 16.5775 90.7818 16.589C90.8738 16.589 90.9428 16.6636 90.9428 16.7553C90.937 17.5699 90.6611 18.0977 90.4427 18.5165C90.276 18.8377 90.138 19.0901 90.1495 19.3941C90.1552 19.6466 90.3104 19.8932 90.5576 20.0538C90.8048 20.2145 91.0922 20.2546 91.3279 20.1628C91.4142 20.1284 91.5061 20.1686 91.5406 20.2546C91.5751 20.3407 91.5349 20.4325 91.4487 20.4669C91.3164 20.5128 91.1842 20.5414 91.052 20.5414Z" fill="#7D3B1A"/>
<path d="M101.123 23.0714C101.049 23.0714 100.985 23.0197 100.962 22.9451C100.825 22.36 101.095 21.7003 101.595 21.3791C101.67 21.3332 101.773 21.3504 101.819 21.425C101.865 21.4995 101.848 21.6028 101.773 21.6487C101.382 21.9011 101.175 22.4117 101.279 22.8706C101.302 22.9566 101.244 23.0427 101.158 23.0656C101.146 23.0714 101.135 23.0714 101.123 23.0714Z" fill="#7D3B1A"/>
<path d="M93.7309 38.6117C93.4033 38.8068 94.5587 40.3958 94.9324 40.4704C95.2715 40.5392 95.6912 39.7074 95.8349 39.3919C96.8179 37.1776 100.164 35.0781 101.497 31.0568C99.6289 34.5274 96.0936 36.0475 94.0931 36.3975C94.0873 37.7111 94.3058 38.2733 93.7309 38.6117Z" fill="#EC795C"/>
<path d="M92.1904 32.5137H95.398C95.9786 32.5137 93.616 35.3647 92.0812 32.6972C92.0294 32.6169 92.0927 32.5137 92.1904 32.5137Z" fill="white"/>
<path d="M94.0873 30.3971C94.0758 30.3971 94.0701 30.3971 94.0586 30.3971L93.7942 30.357C93.3745 30.2939 93.1446 30.2594 93.0239 30.0759C92.8916 29.8808 92.9549 29.6112 93.0871 29.0261C93.1906 28.5786 93.3343 27.9648 93.4722 27.0527C93.4837 26.9667 93.5642 26.9036 93.6562 26.915C93.7424 26.9265 93.8056 27.0126 93.7942 27.0986C93.6504 28.0165 93.501 28.6647 93.4033 29.0949C93.3055 29.5137 93.2365 29.812 93.294 29.8923C93.3343 29.9554 93.5585 29.9898 93.8459 30.03L94.1161 30.0701C94.2023 30.0873 94.2655 30.1677 94.2483 30.2594C94.231 30.3455 94.1621 30.3971 94.0873 30.3971Z" fill="#EC795C"/>
<path d="M101.491 26.9033C101.399 26.9033 101.33 26.8287 101.33 26.7426C101.33 26.5189 101.463 26.2722 101.601 26.0141C101.859 25.5208 102.129 25.0102 101.675 24.5111C101.612 24.4423 101.618 24.3448 101.687 24.2817C101.756 24.2243 101.853 24.2243 101.917 24.2932C102.526 24.9586 102.158 25.6584 101.888 26.169C101.767 26.3927 101.658 26.605 101.658 26.7484C101.652 26.8287 101.578 26.9033 101.491 26.9033Z" fill="#EC795C"/>
<path d="M86.2185 40.4768C92.174 38.8476 87.4429 55.6671 86.115 66.5493C84.9136 66.4804 81.269 65.2069 80.3952 64.2547C80.3952 64.2547 80.3722 42.0716 86.2185 40.4768Z" fill="#BE8F62"/>
<path d="M86.2579 66.7205L86.1027 66.709C84.9415 66.6402 81.1992 65.3724 80.2737 64.3628L80.2334 64.3169V64.2538C80.2334 63.3417 80.2794 41.9273 86.1717 40.3153C87.0167 40.0858 87.7008 40.2006 88.2124 40.6595C90.3221 42.5697 89.0114 50.0674 87.6318 58.0067C87.1202 60.9266 86.5971 63.944 86.2751 66.5599L86.2579 66.7205ZM80.5611 64.1907C81.4176 65.0397 84.6655 66.2157 85.9762 66.3706C86.2981 63.7777 86.8155 60.8176 87.3156 57.9551C88.6263 50.4517 89.9772 42.6959 87.9997 40.9062C87.5743 40.5218 87.0052 40.43 86.2636 40.6308C80.7565 42.1395 80.5668 62.8656 80.5611 64.1907Z" fill="#AD7446"/>
<path d="M93.7319 38.6127C96.8074 41.9514 103.838 40.3738 104.775 38.2169C107.77 39.565 108.023 39.8346 110.966 41.0163C112.748 52.5926 116.226 67.3068 112.553 77.7702C102.498 80.2885 86.391 78.5217 84.4423 77.3342C83.2868 78.057 83.1201 50.7684 86.2186 40.4714C86.2186 40.4771 92.197 38.7275 93.7319 38.6127Z" fill="#BE8F62"/>
<path d="M99.8819 79.2089C92.5755 79.2089 85.8095 78.2624 84.4184 77.5109C84.3609 77.5167 84.2976 77.4995 84.2459 77.4593C83.0272 76.53 83.1077 50.2338 86.0624 40.4244L86.0854 40.3383L86.1717 40.3154C86.4188 40.2465 92.1846 38.56 93.7195 38.4453L93.7999 38.4395L93.8517 38.4969C95.2831 40.0515 97.8239 40.6997 100.646 40.2236C102.63 39.8909 104.228 39.0591 104.624 38.147L104.688 37.9978L104.837 38.0666C105.987 38.5887 106.734 38.9443 107.389 39.2598C108.413 39.7532 109.217 40.1375 111.023 40.8661L111.109 40.9005L111.12 40.9923C111.39 42.7591 111.701 44.5719 112.023 46.4878C113.805 57.0029 115.823 68.9176 112.701 77.8264L112.672 77.9068L112.586 77.9297C108.855 78.8705 104.268 79.2089 99.8819 79.2089ZM84.4413 77.1495L84.5276 77.2012C86.4533 78.3771 102.44 80.1096 112.425 77.6371C115.478 68.8201 113.471 56.9857 111.707 46.5452C111.385 44.6579 111.086 42.8738 110.816 41.1357C109.062 40.4244 108.257 40.04 107.246 39.5524C106.619 39.2541 105.912 38.9099 104.843 38.428C104.308 39.3746 102.681 40.2121 100.698 40.5448C97.8009 41.0324 95.1796 40.3727 93.662 38.778C92.1559 38.9271 87.0684 40.3957 86.3441 40.6022C83.3664 50.6353 83.5158 75.7441 84.4069 77.161L84.4413 77.1495Z" fill="#AD7446"/>
<path d="M113.823 62.2584C106.655 64.2433 100.601 67.232 99.216 68.2129L100.659 74.2994C123.503 70.2322 123.067 68.1728 123.176 65.2644C123.348 60.6981 116.053 42.3642 110.96 41.0218C109.713 40.6891 113.403 61.1226 113.823 62.2584Z" fill="#BE8F62"/>
<path d="M100.531 74.4879L99.0254 68.1433L99.1173 68.0802C100.422 67.1624 106.424 64.1622 113.615 62.1487C113.023 59.9573 109.764 42.002 110.724 40.9465C110.798 40.8662 110.896 40.8375 110.994 40.8662C114.224 41.7209 117.8 48.8457 119.185 51.8688C121.634 57.221 123.422 62.9805 123.33 65.2751L123.324 65.4644C123.227 68.3671 123.152 70.4666 100.675 74.465L100.531 74.4879ZM99.399 68.281L100.779 74.1093C122.847 70.1683 122.91 68.1892 123.002 65.4414L123.008 65.2521C123.186 60.5597 115.846 42.5527 110.948 41.1817C110.298 42.22 113.322 60.4564 113.972 62.2003L114.035 62.3667L113.862 62.4126C106.797 64.3745 100.865 67.3001 99.399 68.281Z" fill="#AD7446"/>
<path d="M77.9971 51.2839L74.2778 53.045C72.7717 47.7502 72.9039 47.6182 72.0589 47.3257C69.6675 46.4996 61.2689 42.1857 63.7868 41.9046C65.908 41.6637 67.7303 44.2681 71.1219 44.4517C73.6282 44.5893 74.64 45.3351 75.2148 46.0407C75.485 46.3619 75.4678 46.4021 77.9971 51.2839Z" fill="#FBA789"/>
<path d="M71.53 47.0042C71.507 47.0042 71.4898 46.9984 71.4668 46.9927C68.9892 45.9544 67.3623 44.8472 67.3221 44.1646C67.3106 44.004 67.3853 43.8778 67.5233 43.7975C68.1154 43.4647 69.8227 44.1187 71.6852 45.3865C71.76 45.4381 71.7772 45.5356 71.7255 45.6102C71.6738 45.6848 71.576 45.702 71.5013 45.6503C69.2364 44.1072 67.9487 43.9237 67.6785 44.0728C67.644 44.09 67.6383 44.1072 67.6383 44.1359C67.6613 44.4916 68.7477 45.5012 71.5818 46.6886C71.6623 46.7231 71.7025 46.8206 71.668 46.9009C71.6508 46.964 71.5933 47.0042 71.53 47.0042Z" fill="#EF7952"/>
<path d="M85.2985 68.5287C87.8624 65.8842 84.442 59.4478 76.555 47.1774L72.577 49.3228C73.1231 51.8584 80.5272 73.4449 85.2985 68.5287Z" fill="#BE8F62"/>
<path d="M83.7745 69.4169C83.5733 69.4169 83.3721 69.3882 83.1594 69.3251C78.4226 67.977 72.8867 51.5304 72.4154 49.3562L72.3924 49.2358L76.6118 46.9641L76.6923 47.0903C84.6942 59.5386 88.0399 65.9348 85.4185 68.6424L85.3036 68.5277L85.4185 68.6424C84.9127 69.153 84.3608 69.4169 83.7745 69.4169ZM72.7603 49.4021C73.3696 51.9033 78.8077 67.7475 83.2513 69.0096C83.9642 69.2103 84.5965 69.0153 85.1828 68.4072C87.6432 65.866 84.3493 59.6017 76.5026 47.3829L72.7603 49.4021Z" fill="#AD7446"/>
<path d="M90.8048 101.415C90.753 99.7058 89.9195 97.4514 88.9135 96.4532C90.4081 95.9599 92.5983 95.2371 93.8572 94.3536C108.608 84.091 105.699 86.4373 109.66 80.5688C111.522 77.8095 112.534 74.5971 112.523 71.2412C118.955 74.5512 129.469 75.0675 133.735 81.7907C141.225 93.5849 111.994 90.0168 90.8048 101.415Z" fill="#514342"/>
<path d="M90.661 101.656L90.6553 101.415C90.6036 99.7173 89.7585 97.4915 88.81 96.5564L88.6376 96.3843L88.8675 96.3098C90.3276 95.8279 92.5293 95.1051 93.771 94.2274C95.1794 93.2522 96.4211 92.386 97.5305 91.6173C106.303 85.5366 106.303 85.5366 108.154 82.6052C108.51 82.043 108.953 81.3432 109.533 80.477C111.402 77.7062 112.385 74.511 112.373 71.2297V70.983L112.592 71.0978C114.719 72.1934 117.265 72.9736 119.961 73.7939C125.382 75.4518 130.987 77.1613 133.867 81.6989C135.068 83.5919 135.379 85.158 134.815 86.4831C133.436 89.7414 126.825 91.1182 118.455 92.8621C110.12 94.6003 99.7495 96.7572 90.8737 101.53L90.661 101.656ZM89.1779 96.522C90.0747 97.5431 90.8277 99.5222 90.937 101.174C99.8012 96.4589 110.103 94.3135 118.392 92.5868C126.676 90.8601 133.217 89.5005 134.54 86.3798C135.063 85.1465 134.758 83.6722 133.614 81.8652C130.792 77.4194 125.244 75.7214 119.875 74.0808C117.259 73.2834 114.782 72.5262 112.672 71.4706C112.638 74.7232 111.637 77.8898 109.781 80.6433C109.2 81.5038 108.757 82.2037 108.401 82.7658C106.515 85.7488 106.515 85.7488 97.6915 91.864C96.5878 92.6327 95.3403 93.4931 93.932 94.4741C92.7248 95.3288 90.6495 96.0344 89.1779 96.522Z" fill="#463C3A"/>
<path d="M90.805 101.415C88.0687 102.895 84.3379 107.576 80.3024 111.425C79.808 110.697 78.8423 109.899 77.9225 109.71C80.8198 105.367 79.7391 106.434 80.8658 102.465C84.7518 102.465 86.965 101.013 86.8155 97.1413C87.5168 96.9003 88.2239 96.6766 88.9137 96.4471C89.9197 97.4453 90.7532 99.7055 90.805 101.415Z" fill="#FEAE65"/>
<path d="M80.3024 111.426C78.7273 112.923 77.3534 114.03 76.4682 114.191C74.6689 114.523 76.3072 112.126 77.9225 109.705C78.8423 109.9 79.8081 110.697 80.3024 111.426Z" fill="#D16A4B"/>
<path d="M95.1048 99.4419C93.8631 99.9581 91.9834 100.784 90.8049 101.415C90.7532 99.7057 89.9196 97.4513 88.9136 96.4531C90.5577 95.9139 92.1041 95.3747 93.2653 94.7207C94.2713 95.673 94.8864 98.2945 95.1048 99.4419Z" fill="#FCBDA9"/>
<path d="M95.1048 99.4419C93.8631 99.9581 91.9834 100.784 90.8049 101.415C90.7532 99.7057 89.9196 97.4513 88.9136 96.4531C90.5577 95.9139 92.1041 95.3747 93.2653 94.7207C94.2713 95.673 94.8864 98.2945 95.1048 99.4419Z" fill="#FBA789"/>
<path d="M80.8657 102.465C81.8947 98.8224 83.4986 98.2774 86.8155 97.1416C86.9592 100.945 84.6023 102.545 80.8657 102.465Z" fill="#D16A4B"/>
<path d="M109.96 101.003C100.078 96.2069 57.9413 97.3084 62.1205 84.3496C63.6496 79.594 80.9642 76.175 84.2466 74.2935L89.3915 77.9247L79.3546 83.3916C89.7652 83.8448 108.465 94.9793 111.472 95.4669C111.656 97.4575 111.242 99.494 109.96 101.003Z" fill="#514342"/>
<path d="M109.999 101.191L109.896 101.14C106.602 99.5393 99.5369 98.5813 92.0638 97.5659C79.7562 95.8908 65.8046 93.992 62.4417 88.6686C61.6196 87.3664 61.4644 85.9035 61.9818 84.3088C63.0625 80.9529 71.6968 78.2854 77.9972 76.3408C80.7737 75.486 83.1709 74.746 84.1769 74.1724L84.2573 74.1265L89.6724 77.947L79.8827 83.282C87.0569 83.8155 97.6974 88.9554 104.791 92.3858C108.022 93.9462 110.574 95.1795 111.494 95.3287L111.609 95.3459L111.62 95.4606C111.827 97.6806 111.275 99.6884 110.074 101.105L109.999 101.191ZM84.2343 74.4764C83.1594 75.0615 80.8025 75.7901 78.0834 76.6276C71.8405 78.5551 63.2925 81.1939 62.2635 84.4006C61.7691 85.9265 61.9128 87.2688 62.6946 88.5079C65.9828 93.7167 79.8597 95.604 92.1041 97.2676C99.5254 98.2772 106.544 99.2295 109.925 100.819C111.005 99.4934 111.505 97.6462 111.339 95.5925C110.304 95.3688 107.918 94.2158 104.665 92.644C97.4157 89.139 86.459 83.8499 79.3538 83.5401L78.8192 83.5172L89.1148 77.9068L84.2343 74.4764Z" fill="#463C3A"/>
<path opacity="0.4" d="M78.3652 77.8326C76.1348 80.7009 71.214 82.0891 70.6162 82.0834C70.6162 82.0834 75.4507 82.5309 78.1525 83.9765C80.8543 85.4163 78.3652 77.8326 78.3652 77.8326Z" fill="#463C3A"/>
<path d="M121.174 107.41C120.163 107.553 118.668 108.024 118.668 109.033C114.788 104.645 115.07 103.486 109.959 101.002C111.241 99.4876 111.655 97.4511 111.471 95.4663C112.144 95.581 112.638 95.5868 113.414 95.5409C114.817 99.8375 116.65 99.9465 119.019 99.7572C119.835 103.343 119.076 102.712 121.174 107.41Z" fill="#FEAE65"/>
<path d="M119.019 99.7573C116.662 99.9466 114.817 99.8491 113.414 95.541C115.926 95.3976 117.84 94.5142 119.019 99.7573Z" fill="#D16A4B"/>
<path d="M109.959 101.002C108.47 100.279 106.861 99.6767 106.234 99.5046C107.476 98.3287 108.148 95.7702 108.269 94.2328C110.413 95.2711 110.54 95.317 111.477 95.4661C111.655 97.4567 111.241 99.4932 109.959 101.002Z" fill="#FBA789"/>
<path d="M122.244 111.901C121.243 111.901 119.341 109.785 118.685 109.033C118.685 108.023 120.18 107.547 121.192 107.41C122.261 109.796 123.273 111.901 122.244 111.901Z" fill="#D16A4B"/>
<path opacity="0.4" d="M114.661 74.4423C117.087 77.127 124.503 79.0889 124.503 79.0889C118.685 79.7428 118.156 79.9723 115.265 81.1827L114.661 74.4423Z" fill="#463C3A"/>
<path d="M115.547 88.8522C76.0773 88.8522 77.6064 89.3168 77.6064 87.7737C77.6064 62.9001 77.181 63.0952 78.6871 63.0952C118.156 63.0952 116.627 62.6305 116.627 64.1737V87.7737C116.627 88.3703 116.144 88.8522 115.547 88.8522Z" fill="#9C9FA0"/>
<path d="M97.1169 78.2852C93.8804 78.2852 93.8747 73.3977 97.1169 73.3977C100.353 73.3977 100.359 78.2852 97.1169 78.2852Z" fill="#72787A"/>
<path d="M165.196 132.582C138.219 132.582 138.253 124.534 165.196 124.534C192.18 124.539 192.14 132.582 165.196 132.582Z" fill="#E0DFEA"/>
<path d="M156.303 101.455C156.562 99.8951 172.629 99.7746 174.026 101.329C175.71 103.165 155.131 103.205 156.303 101.455Z" fill="#FEAE65"/>
<path d="M165.185 114.398C158.442 114.398 153.889 107.594 156.298 101.456C156.556 99.913 172.623 99.7753 174.02 101.33C174.049 101.387 174.072 101.456 174.095 101.519C176.463 107.726 171.853 114.398 165.185 114.398Z" fill="#FEAE65"/>
<path d="M165.472 102.62C157.436 102.62 157.35 100.716 165.472 100.716C173.509 100.716 173.595 102.62 165.472 102.62Z" fill="#9E653B"/>
<path d="M166.087 97.01C163.098 93.7918 161.46 91.0153 161.195 84.0627C160.954 77.6206 166.938 73.4788 168.985 82.0147C171.042 90.5794 166.133 97.423 166.087 97.01Z" fill="#76A699"/>
<path d="M171.301 89.937C171.537 87.4531 173.233 81.751 175.929 78.5099C178.625 75.263 186.828 73.8633 181.936 81.2577C177.044 88.6521 171.301 89.937 171.301 89.937Z" fill="#76A699"/>
<path d="M169.72 96.66C174.998 85.6401 188.949 87.7512 185.684 92.7419C183.373 96.2814 169.72 96.66 169.72 96.66Z" fill="#76A699"/>
<path d="M162.311 97.6067C160.287 83.0646 146.289 80.007 149.813 88.6405C152.797 95.9718 164.006 97.9968 162.311 97.6067Z" fill="#76A699"/>
<path d="M165.737 101.742C165.737 101.742 166.978 96.8721 165.127 84.7394C165.081 84.4354 165.535 84.3723 165.581 84.6706C165.604 84.8025 167.576 97.9334 166.035 101.616C165.989 101.731 165.857 101.788 165.737 101.742Z" fill="#58857A"/>
<path d="M165.771 101.731C164.202 101.14 172.641 86.0072 177.757 80.6895C177.964 80.4715 178.303 80.787 178.09 81.005C177.429 81.6934 168.45 93.0345 166.375 100.32C171.157 93.5565 176.607 92.1625 176.716 92.9484C176.734 93.0746 176.647 93.1893 176.521 93.2065C170.755 93.9982 166.099 101.559 166.053 101.633C165.995 101.725 165.88 101.771 165.771 101.731Z" fill="#58857A"/>
<path d="M164.041 101.599C163.621 100.005 159.884 92.834 153.331 89.1511C153.222 89.088 153.182 88.9504 153.245 88.8356C153.849 87.7629 163.029 95.903 164.489 101.479C164.524 101.599 164.449 101.726 164.322 101.76C164.19 101.8 164.069 101.72 164.041 101.599Z" fill="#58857A"/>
<path d="M174.986 110.887C176.532 110.21 175.521 108.644 174.486 109.108C168.737 111.695 162.15 111.695 156.401 109.108C155.941 108.902 155.395 109.103 155.188 109.567C154.757 110.52 155.844 110.858 156.183 111.007C148.779 128.526 148.462 128.383 149.629 128.876C150.796 129.37 150.474 129.232 157.901 111.661C160.109 112.395 162.397 112.797 164.691 112.866V129.863C164.691 131.073 166.524 131.073 166.524 129.863V112.86C168.812 112.757 171.083 112.321 173.273 111.558C180.93 129.679 180.367 128.951 181.229 128.951C181.35 128.951 181.47 128.928 181.585 128.876C182.752 128.383 182.442 128.526 174.986 110.887Z" fill="#9E653B"/>
<path d="M163.064 101.817C162.776 101.76 162.483 101.828 162.425 101.874C162.322 101.949 162.178 101.932 162.104 101.834C161.753 101.381 163.092 101.1 163.656 101.605C164.064 101.352 165.093 100.876 166.208 101.524C167.26 100.945 168.272 101.674 167.99 101.989C167.904 102.087 167.76 102.092 167.662 102.006C167.059 101.479 166.369 101.955 166.34 101.978C166.266 102.035 166.162 102.035 166.082 101.983C164.869 101.192 163.771 102.075 163.759 102.087C163.529 102.27 163.38 101.88 163.064 101.817Z" fill="#7F5030"/>
<path d="M157.482 101.949C157.217 101.8 157.436 101.398 157.706 101.547C160.695 103.188 170.134 103.171 173.244 101.519C173.359 101.461 173.497 101.502 173.555 101.616C173.612 101.731 173.572 101.869 173.457 101.926C170.261 103.618 160.551 103.635 157.482 101.949Z" fill="#D16A4B"/>
<path d="M18.9022 8.54138H66.1034C71.7714 8.54138 76.3702 13.1306 76.3702 18.7868V24.3512C76.3702 29.5198 72.1681 33.7132 66.9886 33.7132C66.569 33.7132 66.2931 34.1377 66.4598 34.5221C67.2128 36.266 67.9429 38.0443 68.7822 39.6792C70.0928 42.2205 62.7922 38.3483 60.2686 36.9027C53.2727 32.8872 50.8353 33.719 18.908 33.719C14.4241 33.719 10.7853 30.0877 10.7853 25.6133V16.6471C10.7796 12.1726 14.4184 8.54138 18.9022 8.54138Z" fill="white"/>
<path d="M68.4604 40.8205C66.6611 40.8205 62.16 38.3595 60.102 37.1835C54.3535 33.885 51.8816 33.8965 32.6241 33.9998C28.6978 34.0227 24.2542 34.0399 18.9081 34.0399C14.2518 34.0399 10.4578 30.2596 10.4578 25.6072V16.6468C10.4578 12.0002 14.246 8.21411 18.9081 8.21411H66.1092C71.9497 8.21411 76.698 12.9582 76.698 18.7808V24.3452C76.698 29.6859 72.3406 34.0342 66.9888 34.0342C66.868 34.0342 66.7991 34.1145 66.7761 34.1489C66.7531 34.1833 66.7071 34.2751 66.7531 34.3899L67.144 35.3077C67.7476 36.7246 68.3742 38.1932 69.064 39.5298C69.3169 40.0288 69.3227 40.4017 69.064 40.6427C68.9375 40.7689 68.7306 40.8205 68.4604 40.8205ZM40.0627 33.3229C52.5312 33.3229 55.394 33.7416 60.4239 36.6214C64.3617 38.8815 68.104 40.4992 68.6156 40.1723C68.6098 40.1665 68.6098 40.069 68.4834 39.8281C67.7821 38.4685 67.1555 36.9942 66.5461 35.5658L66.1552 34.6537C66.0345 34.3726 66.0632 34.0514 66.23 33.799C66.3967 33.5466 66.6783 33.3917 66.983 33.3917C71.9785 33.3917 76.0427 29.336 76.0427 24.3509V18.7865C76.0427 13.3196 71.5818 8.86807 66.1035 8.86807H18.9023C14.6025 8.86807 11.1073 12.3559 11.1073 16.6468V25.6072C11.1073 29.8982 14.6025 33.386 18.9023 33.386C24.2485 33.386 28.6921 33.363 32.6183 33.3458C35.4294 33.3343 37.8955 33.3229 40.0627 33.3229Z" fill="#EEE4D9"/>
<path d="M69.0179 15.0698C69.8457 15.0698 70.2308 15.1501 70.2308 14.7887C70.2308 13.9626 70.3113 13.5783 69.9491 13.5783C69.1214 13.5783 68.7362 13.498 68.7362 13.8594C68.7362 14.6854 68.65 15.0698 69.0179 15.0698Z" fill="#444244"/>
<path d="M57.975 15.0695H64.3214C65.3158 15.0695 65.3044 13.5723 64.3214 13.5723H57.975C57.107 13.5723 57.2277 14.645 57.2277 14.318C57.2277 14.7368 57.5611 15.0695 57.975 15.0695Z" fill="#CC882A"/>
<path d="M34.7625 15.0695H52.8819C53.8764 15.0695 53.8649 13.5723 52.8819 13.5723H34.7625C33.8945 13.5723 34.0152 14.645 34.0152 14.318C34.0152 14.7368 34.3487 15.0695 34.7625 15.0695Z" fill="#9EBFD8"/>
<path d="M28.9162 15.0698C29.7498 15.0698 30.2326 15.1846 30.2326 14.8863C30.2326 14.0545 30.3476 13.5726 30.0487 13.5726C29.2152 13.5726 28.7323 13.4579 28.7323 13.7562C28.7323 14.588 28.6173 15.0698 28.9162 15.0698Z" fill="#444244"/>
<path d="M18.9252 15.0695H24.8174C25.8119 15.0695 25.8004 13.5723 24.8174 13.5723H18.9252C18.0571 13.5723 18.1779 14.645 18.1779 14.318C18.1779 14.7368 18.5113 15.0695 18.9252 15.0695Z" fill="#D6723A"/>
<path d="M68.6386 18.7009C69.4664 18.7009 69.8515 18.7812 69.8515 18.4198C69.8515 17.5937 69.932 17.2094 69.5699 17.2094C68.7421 17.2094 68.3569 17.1291 68.3569 17.4905C68.3569 18.3108 68.2707 18.7009 68.6386 18.7009Z" fill="#444244"/>
<path d="M57.5955 18.7011H63.9419C64.9364 18.7011 64.9249 17.2039 63.9419 17.2039H57.5955C56.7275 17.2039 56.8482 18.2766 56.8482 17.9496C56.8425 18.3626 57.1816 18.7011 57.5955 18.7011Z" fill="#CC882A"/>
<path d="M34.3831 18.7011H52.5024C53.4969 18.7011 53.4854 17.2039 52.5024 17.2039H34.3831C33.515 17.2039 33.6358 18.2766 33.6358 17.9496C33.6358 18.3626 33.9692 18.7011 34.3831 18.7011Z" fill="#9EBFD8"/>
<path d="M28.5368 18.7009C29.3703 18.7009 29.8532 18.8157 29.8532 18.5174C29.8532 17.6856 29.9682 17.2037 29.6693 17.2037C28.8357 17.2037 28.3528 17.089 28.3528 17.3873C28.3528 18.2191 28.2379 18.7009 28.5368 18.7009Z" fill="#444244"/>
<path d="M18.5459 18.7011H24.4382C25.4327 18.7011 25.4212 17.2039 24.4382 17.2039H18.5459C17.6779 17.2039 17.7986 18.2766 17.7986 17.9496C17.7986 18.3626 18.132 18.7011 18.5459 18.7011Z" fill="#D6723A"/>
<path d="M68.2533 22.3261C69.0811 22.3261 69.4662 22.4064 69.4662 22.045C69.4662 21.219 69.5467 20.8346 69.1845 20.8346C68.3568 20.8346 67.9716 20.7543 67.9716 21.1157C67.9716 21.936 67.8911 22.3261 68.2533 22.3261Z" fill="#444244"/>
<path d="M57.2105 22.3263H63.5569C64.5514 22.3263 64.5399 20.8291 63.5569 20.8291H57.2105C56.3425 20.8291 56.4632 21.9018 56.4632 21.5748C56.4632 21.9936 56.7966 22.3263 57.2105 22.3263Z" fill="#CC882A"/>
<path d="M34.0036 22.3263H52.123C53.1175 22.3263 53.106 20.8291 52.123 20.8291H34.0036C33.1356 20.8291 33.2563 21.9018 33.2563 21.5748C33.2505 21.9936 33.5897 22.3263 34.0036 22.3263Z" fill="#9EBFD8"/>
<path d="M28.1517 22.3263C28.9852 22.3263 29.4681 22.441 29.4681 22.1427C29.4681 21.3109 29.5831 20.8291 29.2841 20.8291C28.4506 20.8291 27.9677 20.7143 27.9677 21.0126C27.9735 21.8444 27.8528 22.3263 28.1517 22.3263Z" fill="#444244"/>
<path d="M18.1665 22.3263H24.0587C25.0532 22.3263 25.0417 20.8291 24.0587 20.8291H18.1665C17.2985 20.8291 17.4192 21.9018 17.4192 21.5748C17.4134 21.9936 17.7526 22.3263 18.1665 22.3263Z" fill="#D6723A"/>
<path d="M67.8739 25.9517C68.7017 25.9517 69.0868 26.032 69.0868 25.6706C69.0868 24.8446 69.1673 24.4602 68.8052 24.4602C67.9774 24.4602 67.5922 24.3799 67.5922 24.7413C67.5922 25.5674 67.506 25.9517 67.8739 25.9517Z" fill="#444244"/>
<path d="M56.831 25.9519H63.1774C64.1719 25.9519 64.1604 24.4547 63.1774 24.4547H56.831C55.963 24.4547 56.0837 25.5274 56.0837 25.2005C56.0837 25.6192 56.4171 25.9519 56.831 25.9519Z" fill="#CC882A"/>
<path d="M33.6185 25.9519H51.7379C52.7324 25.9519 52.7209 24.4547 51.7379 24.4547H33.6185C32.7505 24.4547 32.8712 25.5274 32.8712 25.2005C32.8712 25.6192 33.2047 25.9519 33.6185 25.9519Z" fill="#9EBFD8"/>
<path d="M27.7723 25.9519C28.6058 25.9519 29.0887 26.0666 29.0887 25.7683C29.0887 24.9365 29.2037 24.4547 28.9047 24.4547C28.0712 24.4547 27.5883 24.3399 27.5883 24.6382C27.5883 25.47 27.4734 25.9519 27.7723 25.9519Z" fill="#444244"/>
<path d="M17.7814 25.9519H23.6736C24.6681 25.9519 24.6566 24.4547 23.6736 24.4547H17.7814C16.9134 24.4547 17.0341 25.5274 17.0341 25.2005C17.0341 25.6192 17.3675 25.9519 17.7814 25.9519Z" fill="#D6723A"/>
<path d="M67.4947 29.5828C68.3224 29.5828 68.7076 29.6631 68.7076 29.3017C68.7076 28.4757 68.7881 28.0913 68.4259 28.0913C67.5981 28.0913 67.213 28.011 67.213 28.3724C67.213 29.1928 67.1267 29.5828 67.4947 29.5828Z" fill="#444244"/>
<path d="M56.4518 29.583H62.7981C63.7926 29.583 63.7811 28.0858 62.7981 28.0858H56.4518C55.5837 28.0858 55.7045 29.1585 55.7045 28.8316C55.6987 29.2446 56.0379 29.583 56.4518 29.583Z" fill="#CC882A"/>
<path d="M33.2391 29.583H51.3584C52.3529 29.583 52.3414 28.0858 51.3584 28.0858H33.2391C32.3711 28.0858 32.4918 29.1585 32.4918 28.8316C32.4918 29.2446 32.8252 29.583 33.2391 29.583Z" fill="#9EBFD8"/>
<path d="M27.3928 29.583C28.2264 29.583 28.7092 29.6977 28.7092 29.3994C28.7092 28.5676 28.8242 28.0858 28.5253 28.0858C27.6917 28.0858 27.2089 27.971 27.2089 28.2693C27.2089 29.0954 27.0939 29.583 27.3928 29.583Z" fill="#444244"/>
<path d="M17.402 29.583H23.2942C24.2887 29.583 24.2772 28.0858 23.2942 28.0858H17.402C16.5339 28.0858 16.6546 29.1585 16.6546 28.8316C16.6546 29.2446 16.9881 29.583 17.402 29.583Z" fill="#D6723A"/>
<path d="M18.3677 88.8523C13.7689 88.8523 11.7627 89.2768 11.7627 87.3321C11.7627 82.7429 11.3373 80.7409 13.286 80.7409C17.8849 80.7409 19.8911 80.3164 19.8911 82.261C19.8911 86.8503 20.3107 88.8523 18.3677 88.8523Z" fill="#D2E8EF"/>
<path d="M14.8956 89.214C13.3895 89.214 12.418 89.1164 11.8834 88.5887C11.5845 88.2904 11.435 87.8831 11.435 87.3324C11.435 86.5694 11.4235 85.8753 11.412 85.2558C11.3718 82.9439 11.3488 81.55 12.0214 80.8673C12.3203 80.569 12.7284 80.4199 13.2803 80.4199C14.0449 80.4199 14.7404 80.4084 15.3613 80.3969C17.6779 80.3568 19.0748 80.3338 19.7589 81.005C20.0578 81.3033 20.2073 81.7106 20.2073 82.2613C20.2073 83.0243 20.2188 83.7184 20.2303 84.3379C20.2705 86.6497 20.2935 88.0437 19.6209 88.7264C19.322 89.0247 18.9139 89.1738 18.362 89.1738C17.5974 89.1738 16.9019 89.1853 16.281 89.1968C15.7809 89.2082 15.3153 89.214 14.8956 89.214ZM16.7639 81.0279C16.3443 81.0279 15.8844 81.0337 15.3785 81.0452C14.7519 81.0566 14.0564 81.0681 13.2861 81.0681C12.7974 81.0681 12.5962 81.2115 12.4928 81.3205C12.0099 81.8138 12.0329 83.1734 12.0674 85.2443C12.0789 85.8696 12.0904 86.5637 12.0904 87.3324C12.0904 87.82 12.2341 88.0208 12.3433 88.124C12.8377 88.6059 14.2001 88.583 16.2753 88.5485C16.9019 88.5371 17.5974 88.5256 18.3678 88.5256C18.8564 88.5256 19.0576 88.3822 19.161 88.2732C19.6439 87.7798 19.6209 86.4145 19.5864 84.3494C19.5749 83.7241 19.5634 83.03 19.5634 82.2613C19.5634 81.7737 19.4197 81.5729 19.3105 81.4697C18.9369 81.1025 18.0631 81.0279 16.7639 81.0279Z" fill="#9EBFD8"/>
<path d="M18.1953 87.4471C18.1205 87.4471 18.0458 87.4184 17.9941 87.3611L13.2573 82.6342C13.1481 82.5194 13.1481 82.3416 13.2573 82.2269C13.3665 82.1179 13.5505 82.1179 13.6654 82.2269L18.4022 86.9538C18.5114 87.0685 18.5114 87.2463 18.4022 87.3611C18.3447 87.4184 18.27 87.4471 18.1953 87.4471Z" fill="#FEFFFF"/>
<path d="M13.4585 87.4471C13.3838 87.4471 13.309 87.4184 13.2573 87.3611C13.1481 87.2463 13.1481 87.0685 13.2573 86.9538L17.9941 82.2269C18.109 82.1179 18.2872 82.1179 18.4022 82.2269C18.5114 82.3416 18.5114 82.5194 18.4022 82.6342L13.6654 87.3611C13.6022 87.4184 13.5275 87.4471 13.4585 87.4471Z" fill="#FEFFFF"/>
<path d="M13.8091 85.6001C9.21032 85.6001 7.20408 86.0246 7.20408 84.0799C7.20408 79.4907 6.77869 77.4887 8.72744 77.4887C13.3263 77.4887 15.3325 77.0642 15.3325 79.0088C15.3267 83.6038 15.7521 85.6001 13.8091 85.6001Z" fill="#9EBFD8"/>
<path d="M10.337 85.9674C8.8309 85.9674 7.8594 85.8698 7.32479 85.3421C7.02587 85.0438 6.8764 84.6365 6.8764 84.0858C6.8764 83.3228 6.86491 82.6287 6.85341 82.0092C6.81317 79.6974 6.79018 78.3034 7.46275 77.6207C7.76168 77.3224 8.16982 77.1733 8.72168 77.1733C9.48623 77.1733 10.1818 77.1618 10.8026 77.1503C13.1193 77.1102 14.5162 77.0872 15.2003 77.7584C15.4992 78.0567 15.6487 78.464 15.6487 79.0147C15.6487 79.7777 15.6602 80.4718 15.6716 81.0913C15.7119 83.4031 15.7349 84.7971 15.0623 85.4798C14.7634 85.7781 14.3552 85.9272 13.8034 85.9272C13.0388 85.9272 12.3433 85.9387 11.7224 85.9502C11.2223 85.9559 10.7567 85.9674 10.337 85.9674ZM12.2053 77.7814C11.7856 77.7814 11.3258 77.7871 10.8199 77.7986C10.1933 77.81 9.49773 77.8215 8.72743 77.8215C8.2388 77.8215 8.03761 77.9649 7.93413 78.0739C7.45126 78.5673 7.47425 79.9325 7.50874 81.9977C7.52024 82.623 7.53174 83.3171 7.53174 84.0858C7.53174 84.5734 7.67545 84.7742 7.78467 84.8774C8.27904 85.3593 9.64145 85.3364 11.7167 85.3019C12.3433 85.2905 13.0388 85.279 13.8091 85.279C14.2978 85.279 14.4989 85.1356 14.6024 85.0266C15.0853 84.5332 15.0623 83.1679 15.0278 81.1028C15.0163 80.4775 15.0048 79.7834 15.0048 79.0147C15.0048 78.5271 14.8611 78.3263 14.7519 78.2231C14.3782 77.8559 13.5045 77.7814 12.2053 77.7814Z" fill="#D2E8EF"/>
<path d="M11.3316 83.0414C11.2798 83.0127 9.9117 83.7814 9.96344 83.7528C9.73924 83.8732 10.1244 82.0031 10.0899 82.2154C10.1014 82.158 8.94595 81.0967 8.98619 81.1369C8.80223 80.9648 10.6992 80.7468 10.4923 80.7812C10.5498 80.7698 11.2051 79.3471 11.1821 79.3987C11.2913 79.1693 12.0846 80.9074 11.9869 80.7181C12.0157 80.7698 13.5735 80.9533 13.516 80.9476C13.769 80.982 12.3606 82.267 12.51 82.1178C12.4698 82.158 12.7745 83.6954 12.7687 83.638C12.8032 83.8847 11.1419 82.9439 11.3316 83.0414Z" fill="#FEFFFF"/>
<path d="M203.654 100.928C208.253 100.928 210.259 101.353 210.259 99.4079C210.259 94.8187 210.685 92.8167 208.736 92.8167C204.137 92.8167 202.131 92.3922 202.131 94.3369C202.131 98.9261 201.711 100.928 203.654 100.928Z" fill="#D2E8EF"/>
<path d="M207.121 101.29C206.701 101.29 206.241 101.284 205.735 101.272C205.109 101.261 204.419 101.249 203.654 101.249C203.102 101.249 202.694 101.1 202.395 100.802C201.723 100.119 201.746 98.7253 201.786 96.4135C201.797 95.7882 201.809 95.0998 201.809 94.3369C201.809 93.7862 201.953 93.3789 202.257 93.0806C202.941 92.4094 204.338 92.4323 206.655 92.4725C207.282 92.484 207.971 92.4954 208.736 92.4954C209.288 92.4954 209.696 92.6446 209.995 92.9429C210.667 93.6255 210.644 95.0195 210.604 97.3313C210.593 97.9566 210.581 98.645 210.581 99.4079C210.581 99.9587 210.432 100.366 210.133 100.664C209.598 101.192 208.627 101.29 207.121 101.29ZM205.258 93.1035C203.959 93.1035 203.085 93.1781 202.711 93.5452C202.602 93.6542 202.459 93.8493 202.459 94.3369C202.459 95.1056 202.447 95.7997 202.436 96.425C202.401 98.4901 202.378 99.8554 202.861 100.349C202.97 100.458 203.166 100.601 203.654 100.601C204.425 100.601 205.12 100.613 205.747 100.624C207.816 100.659 209.184 100.681 209.679 100.2C209.788 100.091 209.932 99.8956 209.932 99.4079C209.932 98.6393 209.943 97.9451 209.955 97.3199C209.989 95.2547 210.012 93.8894 209.529 93.3961C209.42 93.2871 209.225 93.1437 208.736 93.1437C207.966 93.1437 207.27 93.1322 206.643 93.1207C206.138 93.115 205.678 93.1035 205.258 93.1035Z" fill="#9EBFD8"/>
<path d="M203.827 99.5227C203.752 99.5227 203.677 99.494 203.626 99.4366C203.516 99.3219 203.516 99.1441 203.626 99.0293L208.362 94.3024C208.472 94.1935 208.655 94.1935 208.77 94.3024C208.88 94.4172 208.88 94.595 208.77 94.7097L204.034 99.4366C203.97 99.494 203.901 99.5227 203.827 99.5227Z" fill="#FEFFFF"/>
<path d="M208.563 99.5227C208.489 99.5227 208.414 99.494 208.362 99.4366L203.626 94.7097C203.516 94.595 203.516 94.4172 203.626 94.3024C203.735 94.1935 203.919 94.1935 204.034 94.3024L208.77 99.0293C208.88 99.1441 208.88 99.3219 208.77 99.4366C208.713 99.494 208.638 99.5227 208.563 99.5227Z" fill="#FEFFFF"/>
<path d="M208.213 97.6752C212.812 97.6752 214.818 98.0997 214.818 96.155C214.818 91.5658 215.243 89.5637 213.294 89.5637C208.696 89.5637 206.689 89.1392 206.689 91.0839C206.689 95.6789 206.27 97.6752 208.213 97.6752Z" fill="#9EBFD8"/>
<path d="M211.685 98.0424C211.265 98.0424 210.805 98.0367 210.299 98.0252C209.673 98.0137 208.983 98.0023 208.219 98.0023C207.667 98.0023 207.259 97.8531 206.96 97.5548C206.287 96.8722 206.31 95.4782 206.35 93.1664C206.362 92.5411 206.373 91.8527 206.373 91.0898C206.373 90.5391 206.517 90.1318 206.822 89.8335C207.506 89.1623 208.903 89.1853 211.219 89.2254C211.846 89.2369 212.536 89.2484 213.3 89.2484C213.852 89.2484 214.26 89.3975 214.559 89.6958C215.232 90.3785 215.209 91.7724 215.168 94.0842C215.157 94.7095 215.145 95.3979 215.145 96.1609C215.145 96.7116 214.996 97.1189 214.697 97.4171C214.157 97.9392 213.185 98.0424 211.685 98.0424ZM209.817 89.8564C208.517 89.8564 207.644 89.931 207.27 90.2981C207.161 90.4071 207.017 90.6022 207.017 91.0898C207.017 91.8585 207.006 92.5526 206.994 93.1779C206.96 95.243 206.937 96.6083 207.419 97.1016C207.529 97.2106 207.724 97.354 208.213 97.354C208.983 97.354 209.679 97.3655 210.305 97.377C212.375 97.4114 213.743 97.4344 214.237 96.9525C214.346 96.8435 214.49 96.6485 214.49 96.1609C214.49 95.3922 214.502 94.698 214.513 94.0728C214.548 92.0076 214.571 90.6423 214.088 90.149C213.979 90.04 213.783 89.8966 213.294 89.8966C212.524 89.8966 211.829 89.8851 211.202 89.8736C210.696 89.8622 210.236 89.8564 209.817 89.8564Z" fill="#D2E8EF"/>
<path d="M210.69 95.1168C210.742 95.0881 212.11 95.8568 212.058 95.8281C212.283 95.9486 211.898 94.0784 211.932 94.2907C211.921 94.2333 213.076 93.1721 213.036 93.2122C213.22 93.0401 211.323 92.8221 211.53 92.8566C211.472 92.8451 210.817 91.4224 210.84 91.474C210.731 91.2446 209.937 92.9828 210.035 92.7935C210.006 92.8451 208.448 93.0286 208.506 93.0229C208.253 93.0573 209.661 94.3423 209.512 94.1932C209.552 94.2333 209.247 95.7707 209.253 95.7134C209.219 95.96 210.88 95.0192 210.69 95.1168Z" fill="#FEFFFF"/>
<path d="M56.2619 74.93C14.7058 74.93 16.4419 75.3946 16.4419 73.8515C16.4419 39.8627 15.982 40.8551 17.5226 40.8551C59.0787 40.8551 57.3426 40.3904 57.3426 41.9335C57.3426 75.9224 57.8083 74.93 56.2619 74.93Z" fill="white"/>
<path d="M25.3809 75.32C18.0113 75.32 16.7696 75.2168 16.3097 74.7349C16.0912 74.5055 16.1027 74.2358 16.1142 74.0179C16.1142 73.9662 16.12 73.9146 16.12 73.8572C16.12 65.981 16.097 59.8773 16.074 55.4201C16.0223 43.2357 16.0165 41.3598 16.6316 40.7575C16.8673 40.5281 17.1547 40.5338 17.4077 40.5338H17.5284C27.2146 40.5338 34.6647 40.5108 40.1028 40.4879C54.98 40.4363 56.8885 40.4305 57.4864 41.0558C57.7048 41.2853 57.6933 41.5549 57.6818 41.7729C57.6818 41.8245 57.6761 41.8761 57.6761 41.9335C57.6761 49.804 57.6991 55.9077 57.7221 60.3649C57.7738 72.555 57.7796 74.4309 57.1645 75.0332C56.9288 75.2627 56.6413 75.2569 56.3884 75.2569H56.2677C46.5814 75.2569 39.1313 75.2799 33.6932 75.3028C30.2901 75.3086 27.5653 75.32 25.3809 75.32ZM17.2927 41.1763C17.1777 41.1763 17.1145 41.182 17.0857 41.2107C16.6661 41.6237 16.6833 44.819 16.7236 55.4086C16.7408 59.8659 16.7696 65.9753 16.7696 73.8458C16.7696 73.9146 16.7638 73.9777 16.7638 74.0408C16.7581 74.1727 16.7523 74.2588 16.7753 74.2817C17.1777 74.7062 21.0062 74.689 33.6875 74.6489C39.1256 74.6317 46.5757 74.603 56.2619 74.603H56.3942C56.5781 74.6087 56.6643 74.603 56.6988 74.5686C57.1185 74.1555 57.1012 70.9603 57.061 60.3707C57.0437 55.9134 57.015 49.8097 57.015 41.9335C57.015 41.8647 57.0207 41.8016 57.0207 41.7385C57.0265 41.6123 57.0322 41.5205 57.0093 41.4975C56.6069 41.073 52.7783 41.0902 40.0971 41.1304C34.659 41.1476 27.2089 41.1763 17.5226 41.1763H17.3904C17.3559 41.1763 17.3214 41.1763 17.2927 41.1763Z" fill="#EEE4D9"/>
<path d="M21.3627 48.1001C19.7761 48.1001 19.8853 46.3045 19.8853 46.6258C19.8853 45.0425 21.6846 45.1515 21.3627 45.1515C22.9492 45.1515 22.84 46.947 22.84 46.6258C22.84 48.2091 21.0407 48.1001 21.3627 48.1001Z" fill="#9EBFD8"/>
<path d="M42.9714 48.1004H26.1742C24.2197 48.1004 24.2369 45.1576 26.1742 45.1576H42.9714C44.558 45.1576 44.4488 46.9531 44.4488 46.6319C44.4488 47.4407 43.7877 48.1004 42.9714 48.1004Z" fill="#E4E4E4"/>
<path d="M50.5194 48.1004H47.03C45.0755 48.1004 45.0928 45.1576 47.03 45.1576H50.5194C52.106 45.1576 51.9967 46.9531 51.9967 46.6319C51.991 47.4407 51.3299 48.1004 50.5194 48.1004Z" fill="#E4E4E4"/>
<path d="M50.5193 52.7697C51.3352 52.7697 51.9966 52.1097 51.9966 51.2954C51.9966 50.4812 51.3352 49.8212 50.5193 49.8212C49.7033 49.8212 49.0419 50.4812 49.0419 51.2954C49.0419 52.1097 49.7033 52.7697 50.5193 52.7697Z" fill="#9EBFD8"/>
<path d="M28.9105 52.764H45.7077C47.6622 52.764 47.6449 49.8212 45.7077 49.8212H28.9105C27.3239 49.8212 27.4331 51.6167 27.4331 51.2955C27.4331 52.11 28.0942 52.764 28.9105 52.764Z" fill="#E4E4E4"/>
<path d="M21.3628 52.764H24.8521C26.8066 52.764 26.7894 49.8212 24.8521 49.8212H21.3628C19.7762 49.8212 19.8854 51.6167 19.8854 51.2955C19.8912 52.11 20.5522 52.764 21.3628 52.764Z" fill="#E4E4E4"/>
<path d="M21.3628 57.0323C22.1788 57.0323 22.8402 56.3723 22.8402 55.558C22.8402 54.7438 22.1788 54.0837 21.3628 54.0837C20.5469 54.0837 19.8855 54.7438 19.8855 55.558C19.8855 56.3723 20.5469 57.0323 21.3628 57.0323Z" fill="#9EBFD8"/>
<path d="M42.9714 57.0322H26.1742C24.2197 57.0322 24.2369 54.0894 26.1742 54.0894H42.9714C44.558 54.0894 44.4488 55.8849 44.4488 55.5636C44.4488 56.3725 43.7877 57.0322 42.9714 57.0322Z" fill="#E4E4E4"/>
<path d="M50.5194 57.0322H47.03C45.0755 57.0322 45.0928 54.0894 47.03 54.0894H50.5194C52.106 54.0894 51.9967 55.8849 51.9967 55.5636C51.991 56.3725 51.3299 57.0322 50.5194 57.0322Z" fill="#E4E4E4"/>
<path d="M50.5192 61.6958C52.1058 61.6958 51.9966 59.9002 51.9966 60.2215C51.9966 58.6382 50.1973 58.7472 50.5192 58.7472C48.9326 58.7472 49.0419 60.5427 49.0419 60.2215C49.0419 61.8048 50.8412 61.6958 50.5192 61.6958Z" fill="#9EBFD8"/>
<path d="M28.9105 61.696H45.7077C47.6622 61.696 47.6449 58.7532 45.7077 58.7532H28.9105C27.3239 58.7532 27.4331 60.5487 27.4331 60.2275C27.4331 61.0363 28.0942 61.696 28.9105 61.696Z" fill="#E4E4E4"/>
<path d="M21.3628 61.696H24.8521C26.8066 61.696 26.7894 58.7532 24.8521 58.7532H21.3628C19.7762 58.7532 19.8854 60.5487 19.8854 60.2275C19.8912 61.0363 20.5522 61.696 21.3628 61.696Z" fill="#E4E4E4"/>
<path d="M21.3628 65.958C22.1788 65.958 22.8402 65.2979 22.8402 64.4837C22.8402 63.6695 22.1788 63.0094 21.3628 63.0094C20.5469 63.0094 19.8855 63.6695 19.8855 64.4837C19.8855 65.2979 20.5469 65.958 21.3628 65.958Z" fill="#9EBFD8"/>
<path d="M42.9714 65.9583H26.1742C24.2197 65.9583 24.2369 63.0155 26.1742 63.0155H42.9714C44.558 63.0155 44.4488 64.811 44.4488 64.4898C44.4488 65.2986 43.7877 65.9583 42.9714 65.9583Z" fill="#E4E4E4"/>
<path d="M50.5192 65.958C47.507 65.958 45.5525 66.3366 45.5525 64.4837C45.5525 63.6691 46.2136 63.0094 47.0299 63.0094H50.5192C52.4737 63.0151 52.4565 65.958 50.5192 65.958Z" fill="#E4E4E4"/>
<path d="M50.5192 70.6222C52.1058 70.6222 51.9966 68.8266 51.9966 69.1479C51.9966 67.5646 50.1973 67.6736 50.5192 67.6736C48.9326 67.6736 49.0419 69.4691 49.0419 69.1479C49.0419 70.7312 50.8412 70.6222 50.5192 70.6222Z" fill="#9EBFD8"/>
<path d="M28.9105 70.622H45.7077C47.6622 70.622 47.645 67.6792 45.7077 67.6792C28.3932 67.6792 27.4332 67.1342 27.4332 69.1534C27.4332 69.9623 28.0942 70.622 28.9105 70.622Z" fill="#E4E4E4"/>
<path d="M21.3628 70.6219H24.8521C26.8066 70.6219 26.7894 67.6791 24.8521 67.6791H21.3628C19.7762 67.6791 19.8854 69.4746 19.8854 69.1533C19.8912 69.9622 20.5522 70.6219 21.3628 70.6219Z" fill="#E4E4E4"/>
</svg>
