<?xml version="1.0" encoding="UTF-8"?>
<svg width="55px" height="56px" viewBox="0 0 55 56" xmlns="http://www.w3.org/2000/svg" xmlns:xlink="http://www.w3.org/1999/xlink" version="1.1">
 <!-- Generated by Pixelmator Pro 1.8 -->
 <path id="Path" d="M30.243 44.762 L30.243 36.042 C33.424 34.891 35.727 31.874 35.727 28.31 35.727 24.745 33.424 21.729 30.243 20.577 L30.243 11.857 C30.243 10.953 30.517 6.373 35.727 6.373 L38.469 6.373 C43.487 6.373 43.953 10.596 43.953 11.857 L43.953 39.772 C40.772 40.923 38.469 43.94 38.469 47.504 38.469 49.686 39.336 51.778 40.878 53.321 42.421 54.864 44.514 55.73 46.695 55.73 48.877 55.73 50.969 54.864 52.512 53.321 54.055 51.778 54.921 49.686 54.921 47.504 54.921 43.94 52.618 40.923 49.437 39.772 L49.437 11.857 C49.437 7.443 46.531 0.889 38.469 0.889 L35.727 0.889 C27.665 0.889 24.759 7.443 24.759 11.857 L24.759 20.577 C21.578 21.729 19.274 24.745 19.274 28.31 19.274 31.874 21.578 34.891 24.759 36.042 L24.759 44.762 C24.759 45.667 24.484 50.246 19.274 50.246 L16.532 50.246 C11.514 50.246 11.048 46.024 11.048 44.762 L11.048 16.848 C14.229 15.696 16.532 12.68 16.532 9.115 16.532 6.934 15.666 4.841 14.123 3.299 12.58 1.756 10.488 0.889 8.306 0.889 6.125 0.889 4.032 1.756 2.489 3.299 0.947 4.841 0.08 6.934 0.08 9.115 0.08 12.68 2.383 15.696 5.564 16.848 L5.564 44.762 C5.564 49.177 8.498 55.73 16.532 55.73 L19.274 55.73 C27.309 55.73 30.243 49.177 30.243 44.762 Z M49.437 47.504 C49.437 48.232 49.148 48.929 48.634 49.443 48.12 49.958 47.422 50.246 46.695 50.246 45.968 50.246 45.271 49.958 44.756 49.443 44.242 48.929 43.953 48.232 43.953 47.504 43.953 46.777 44.242 46.08 44.756 45.565 45.271 45.051 45.968 44.762 46.695 44.762 47.422 44.762 48.12 45.051 48.634 45.565 49.148 46.08 49.437 46.777 49.437 47.504 Z M5.564 9.115 C5.564 8.388 5.853 7.691 6.367 7.176 6.882 6.662 7.579 6.373 8.306 6.373 9.033 6.373 9.731 6.662 10.245 7.176 10.759 7.691 11.048 8.388 11.048 9.115 11.048 9.843 10.759 10.54 10.245 11.054 9.731 11.569 9.033 11.857 8.306 11.857 7.579 11.857 6.882 11.569 6.367 11.054 5.853 10.54 5.564 9.843 5.564 9.115 Z" fill="#5845cf" fill-opacity="1" stroke="none"/>
</svg>
