<svg width="74" height="74" viewBox="0 0 74 74" fill="none" xmlns="http://www.w3.org/2000/svg">
<circle cx="37" cy="37" r="37" fill="#5845CF"/>
<g clip-path="url(#clip0)">
<path d="M18.4183 25.1368C17.2219 25.1368 16.5436 26.1698 17.3514 27.269L21.2627 34.0569V46.1744C21.2627 49.2778 23.5243 51.8632 26.5953 51.8632H48.3112C49.8125 51.8393 51.2457 51.2323 52.3074 50.1706C53.3691 49.1089 53.9761 47.6757 53.9999 46.1744V30.858C53.9949 29.3538 53.3995 27.9117 52.3419 26.842C51.2844 25.7724 49.8492 25.1606 48.3451 25.1384L18.4183 25.1368ZM27.3384 30.8564H47.9874C48.8924 30.8564 49.765 31.4068 49.765 32.2794C49.765 33.152 48.8924 33.7008 47.9874 33.7008H27.3384C26.4334 33.7008 25.5608 33.152 25.5608 32.2794C25.5608 31.4068 26.4334 30.8564 27.3384 30.8564ZM27.3384 36.5452H47.9874C48.8924 36.5452 49.765 37.094 49.765 37.9666C49.765 38.8392 48.8924 39.388 47.9874 39.388H27.3384C26.4334 39.388 25.5608 38.8392 25.5608 37.9666C25.5608 37.094 26.4334 36.5452 27.3384 36.5452ZM27.306 42.2648H42.2679C43.1728 42.2648 44.0454 42.8136 44.0454 43.6862C44.0454 44.5588 43.1728 45.1091 42.2679 45.1091H27.306C26.401 45.1091 25.5284 44.5588 25.5284 43.6862C25.5284 42.8136 26.401 42.2648 27.306 42.2648Z" fill="white"/>
</g>
<defs>
<clipPath id="clip0">
<rect width="37" height="37" fill="white" transform="translate(17 20)"/>
</clipPath>
</defs>
</svg>
