<?xml version="1.0" encoding="UTF-8"?>
<svg width="52px" height="56px" viewBox="0 0 52 56" xmlns="http://www.w3.org/2000/svg" xmlns:xlink="http://www.w3.org/1999/xlink" version="1.1">
 <!-- Generated by Pixelmator Pro 1.8 -->
 <path id="Path" d="M42.077 2.883 L42.6 2.897 C44.855 3.025 46.983 3.979 48.579 5.575 50.176 7.172 51.129 9.3 51.257 11.554 L51.272 12.077 51.272 44.612 51.257 45.133 C51.125 47.478 50.099 49.683 48.392 51.296 46.685 52.909 44.426 53.807 42.077 53.807 L9.539 53.807 C7.191 53.807 4.931 52.909 3.224 51.296 1.517 49.683 0.492 47.478 0.359 45.133 L0.345 44.612 0.345 12.077 C0.345 9.729 1.243 7.469 2.856 5.762 4.469 4.055 6.674 3.03 9.019 2.897 L9.539 2.883 Z M47.025 17.028 L4.591 17.028 4.588 44.612 C4.588 45.855 5.056 47.052 5.897 47.966 6.739 48.88 7.894 49.444 9.132 49.546 L9.539 49.563 42.077 49.563 42.484 49.546 C43.65 49.45 44.743 48.945 45.572 48.12 46.4 47.296 46.91 46.204 47.011 45.04 L47.028 44.612 Z M20.856 21.272 C21.369 21.272 21.864 21.458 22.25 21.795 22.637 22.132 22.888 22.597 22.958 23.105 L22.978 23.394 22.978 43.198 C22.978 43.71 22.792 44.206 22.455 44.592 22.118 44.979 21.652 45.23 21.144 45.3 L20.856 45.32 10.954 45.32 C10.441 45.32 9.946 45.134 9.559 44.797 9.173 44.46 8.922 43.994 8.852 43.486 L8.832 43.198 8.832 23.394 C8.832 22.881 9.018 22.386 9.355 21.999 9.692 21.613 10.157 21.362 10.665 21.292 L10.954 21.272 Z M18.734 25.516 L13.076 25.516 13.076 41.076 18.734 41.076 Z M37.831 29.768 C38.368 29.768 38.886 29.972 39.278 30.339 39.671 30.706 39.91 31.209 39.947 31.745 39.983 32.282 39.815 32.812 39.476 33.229 39.137 33.646 38.652 33.919 38.119 33.992 L37.831 34.012 27.94 34.012 C27.403 34.011 26.886 33.806 26.493 33.439 26.101 33.072 25.863 32.569 25.826 32.033 25.79 31.497 25.959 30.967 26.298 30.55 26.637 30.133 27.122 29.861 27.654 29.788 L27.94 29.768 Z M40.66 21.272 C41.197 21.272 41.715 21.477 42.108 21.843 42.5 22.21 42.739 22.713 42.776 23.249 42.813 23.786 42.644 24.316 42.305 24.733 41.966 25.15 41.481 25.423 40.948 25.496 L40.66 25.516 27.94 25.516 C27.403 25.515 26.886 25.31 26.493 24.943 26.101 24.576 25.863 24.073 25.826 23.537 25.79 23.001 25.959 22.471 26.298 22.054 26.637 21.638 27.122 21.365 27.654 21.292 L27.94 21.272 Z" fill="#5845cf" fill-opacity="1" stroke="none"/>
</svg>
