<svg width="24" height="24" viewBox="0 0 24 24" fill="none" xmlns="http://www.w3.org/2000/svg">
<path d="M21.625 2.375H2.375C1.91103 2.37552 1.46621 2.56006 1.13814 2.88814C0.810063 3.21621 0.625521 3.66103 0.625 4.125V19.8751C0.625014 20.1049 0.670294 20.3325 0.758253 20.5448C0.846212 20.7571 0.975128 20.95 1.13764 21.1125C1.30015 21.275 1.49308 21.4039 1.70541 21.4918C1.91773 21.5798 2.1453 21.625 2.37511 21.625L3.83964 21.6249C4.00509 21.6248 4.16715 21.5779 4.307 21.4895C4.44685 21.4011 4.55877 21.2748 4.62977 21.1254C5.05589 20.2276 5.72795 19.4691 6.5679 18.938C7.40785 18.407 8.38123 18.125 9.375 18.125C10.3688 18.125 11.3421 18.407 12.1821 18.938C13.0221 19.4691 13.6941 20.2276 14.1202 21.1254C14.1912 21.2748 14.3032 21.4011 14.443 21.4895C14.5829 21.5779 14.745 21.6249 14.9105 21.6249L21.625 21.625C22.089 21.6245 22.5338 21.4399 22.8619 21.1119C23.1899 20.7838 23.3745 20.339 23.375 19.875V4.125C23.3745 3.66103 23.1899 3.21621 22.8619 2.88814C22.5338 2.56006 22.089 2.37552 21.625 2.375ZM6.75 13.75C6.75 13.2308 6.90395 12.7233 7.19239 12.2916C7.48083 11.86 7.8908 11.5235 8.37046 11.3248C8.85011 11.1261 9.37791 11.0742 9.88711 11.1754C10.3963 11.2767 10.864 11.5267 11.2312 11.8938C11.5983 12.261 11.8483 12.7287 11.9496 13.2379C12.0508 13.7471 11.9989 14.2749 11.8002 14.7545C11.6015 15.2342 11.2651 15.6442 10.8334 15.9326C10.4017 16.221 9.89418 16.375 9.375 16.375C8.67905 16.3742 8.01182 16.0974 7.51971 15.6053C7.02759 15.1132 6.75078 14.446 6.75 13.75ZM21.625 19.875L15.4381 19.8749C14.7072 18.6186 13.6055 17.6193 12.2842 17.014C12.9466 16.4242 13.4141 15.6471 13.6248 14.7856C13.8355 13.924 13.7793 13.0188 13.4638 12.1899C13.1483 11.3611 12.5883 10.6476 11.8581 10.1443C11.1279 9.64089 10.2619 9.37133 9.375 9.37133C8.48809 9.37133 7.62213 9.64089 6.89192 10.1443C6.1617 10.6476 5.60172 11.3611 5.2862 12.1899C4.97069 13.0188 4.91455 13.924 5.12522 14.7856C5.33589 15.6471 5.80342 16.4242 6.46584 17.014C5.14449 17.6193 4.0428 18.6187 3.31191 19.875H2.375V4.125H21.625V19.875ZM4.125 8.5V6.75C4.125 6.51794 4.21719 6.29538 4.38128 6.13128C4.54538 5.96719 4.76794 5.875 5 5.875H19C19.2321 5.875 19.4546 5.96719 19.6187 6.13128C19.7828 6.29538 19.875 6.51794 19.875 6.75V17.25C19.875 17.4821 19.7828 17.7046 19.6187 17.8687C19.4546 18.0328 19.2321 18.125 19 18.125H17.25C17.0179 18.125 16.7954 18.0328 16.6313 17.8687C16.4672 17.7046 16.375 17.4821 16.375 17.25C16.375 17.0179 16.4672 16.7954 16.6313 16.6313C16.7954 16.4672 17.0179 16.375 17.25 16.375H18.125V7.625H5.875V8.5C5.875 8.73206 5.78281 8.95462 5.61872 9.11872C5.45462 9.28281 5.23206 9.375 5 9.375C4.76794 9.375 4.54538 9.28281 4.38128 9.11872C4.21719 8.95462 4.125 8.73206 4.125 8.5Z" fill="white"/>
</svg>
