<svg width="53" height="53" viewBox="0 0 53 53" fill="none" xmlns="http://www.w3.org/2000/svg">
<path d="M36.8056 5.88892H16.1944C15.4135 5.88892 14.6646 6.19913 14.1124 6.75132C13.5602 7.30351 13.25 8.05245 13.25 8.83336V44.1667C13.25 44.9476 13.5602 45.6965 14.1124 46.2487C14.6646 46.8009 15.4135 47.1111 16.1944 47.1111H36.8056C37.5865 47.1111 38.3354 46.8009 38.8876 46.2487C39.4398 45.6965 39.75 44.9476 39.75 44.1667V8.83336C39.75 8.05245 39.4398 7.30351 38.8876 6.75132C38.3354 6.19913 37.5865 5.88892 36.8056 5.88892ZM27.9722 44.1667H25.0278V41.2222H27.9722V44.1667ZM16.1944 38.2778V8.83336H36.8056V38.2778H16.1944Z" fill="#5845CF"/>
</svg>
