<?xml version="1.0" encoding="UTF-8"?>
<svg width="58px" height="56px" viewBox="0 0 58 56" xmlns="http://www.w3.org/2000/svg" xmlns:xlink="http://www.w3.org/1999/xlink" version="1.1">
 <!-- Generated by Pixelmator Pro 1.8 -->
 <path id="Path" d="M29.082 1.622 C30.468 1.622 31.796 2.172 32.776 3.152 33.755 4.131 34.305 5.46 34.305 6.845 34.305 8.778 33.261 10.475 31.694 11.363 L31.694 14.68 34.305 14.68 C39.154 14.68 43.803 16.605 47.232 20.034 50.66 23.462 52.586 28.112 52.586 32.96 L55.197 32.96 C55.89 32.96 56.554 33.235 57.044 33.725 57.534 34.215 57.809 34.879 57.809 35.571 L57.809 43.406 C57.809 44.099 57.534 44.763 57.044 45.253 56.554 45.742 55.89 46.017 55.197 46.017 L52.586 46.017 52.586 48.629 C52.586 50.014 52.036 51.343 51.056 52.322 50.077 53.302 48.748 53.852 47.363 53.852 L10.802 53.852 C9.417 53.852 8.088 53.302 7.109 52.322 6.129 51.343 5.579 50.014 5.579 48.629 L5.579 46.017 2.967 46.017 C2.275 46.017 1.611 45.742 1.121 45.253 0.631 44.763 0.356 44.099 0.356 43.406 L0.356 35.571 C0.356 34.879 0.631 34.215 1.121 33.725 1.611 33.235 2.275 32.96 2.967 32.96 L5.579 32.96 C5.579 28.112 7.505 23.462 10.933 20.034 14.361 16.605 19.011 14.68 23.859 14.68 L26.471 14.68 26.471 11.363 C24.904 10.475 23.859 8.778 23.859 6.845 23.859 5.46 24.41 4.131 25.389 3.152 26.369 2.172 27.697 1.622 29.082 1.622 Z M17.331 30.349 C15.599 30.349 13.938 31.036 12.714 32.261 11.49 33.485 10.802 35.146 10.802 36.877 10.802 38.609 11.49 40.269 12.714 41.494 13.938 42.718 15.599 43.406 17.331 43.406 19.062 43.406 20.723 42.718 21.947 41.494 23.172 40.269 23.859 38.609 23.859 36.877 23.859 35.146 23.172 33.485 21.947 32.261 20.723 31.036 19.062 30.349 17.331 30.349 Z M40.834 30.349 C39.103 30.349 37.442 31.036 36.218 32.261 34.993 33.485 34.305 35.146 34.305 36.877 34.305 38.609 34.993 40.269 36.218 41.494 37.442 42.718 39.103 43.406 40.834 43.406 42.566 43.406 44.226 42.718 45.451 41.494 46.675 40.269 47.363 38.609 47.363 36.877 47.363 35.146 46.675 33.485 45.451 32.261 44.226 31.036 42.566 30.349 40.834 30.349 Z" fill="#5845cf" fill-opacity="1" stroke="none"/>
</svg>
