<svg width="27" height="27" viewBox="0 0 27 27" fill="none" xmlns="http://www.w3.org/2000/svg">
<path d="M12.5866 1.04906C12.939 0.258571 14.061 0.258571 14.4134 1.04906L17.5472 8.07951C17.6925 8.40554 18.0006 8.62938 18.3556 8.66685L26.0104 9.47477C26.871 9.56561 27.2178 10.6327 26.5749 11.2121L20.8569 16.3651C20.5917 16.604 20.4741 16.9662 20.5481 17.3154L22.1452 24.8452C22.3248 25.6918 21.417 26.3513 20.6673 25.9189L13.9996 22.0732C13.6904 21.8948 13.3096 21.8948 13.0004 22.0732L6.33267 25.9189C5.58296 26.3513 4.67523 25.6918 4.8548 24.8452L6.45188 17.3154C6.52594 16.9662 6.40826 16.604 6.1431 16.3651L0.425148 11.2121C-0.217765 10.6327 0.128957 9.56561 0.989641 9.47477L8.6444 8.66685C8.99938 8.62938 9.30748 8.40554 9.45281 8.07951L12.5866 1.04906Z" fill="#FFAE12"/>
</svg>
