<svg width="38" height="38" viewBox="0 0 38 38" fill="none" xmlns="http://www.w3.org/2000/svg">
<path d="M36.1 30.3207C36.1 30.5995 35.9942 30.8407 35.7827 31.0444C35.5712 31.2481 35.3207 31.3499 35.0312 31.3499C34.7418 31.3499 34.4913 31.2481 34.2798 31.0444C34.0683 30.8407 33.9625 30.5995 33.9625 30.3207V16.7808L22.1728 22.4733C21.2822 22.9022 20.2246 23.1166 19 23.1166C17.7754 23.1166 16.7178 22.9022 15.8271 22.4733L3.20253 16.3948C2.33417 15.966 1.89999 15.4568 1.89999 14.8672C1.89999 14.2775 2.33417 13.779 3.20253 13.3716L15.8271 7.29313C16.7178 6.86431 17.7754 6.6499 19 6.6499C20.2246 6.6499 21.2822 6.86431 22.1728 7.29313L34.7975 13.3716C35.5545 13.7361 35.9775 14.1864 36.0666 14.7224C36.0889 14.7439 36.1 14.7868 36.1 14.8511V30.3207ZM23.2416 24.5317L29.6875 21.412V25.9468C29.6875 26.8687 28.6466 27.6567 26.5647 28.3106C24.4829 28.9646 21.9613 29.2916 19 29.2916C16.0387 29.2916 13.5171 28.9646 11.4352 28.3106C9.35341 27.6567 8.31249 26.8687 8.31249 25.9468V21.412L14.7584 24.5317C15.649 24.9605 17.0629 25.1749 19 25.1749C20.9371 25.1749 22.351 24.9605 23.2416 24.5317Z" fill="#5845CF"/>
</svg>
