<svg width="53" height="53" viewBox="0 0 53 53" fill="none" xmlns="http://www.w3.org/2000/svg">
<path d="M16.2876 37.058L19.048 33.6086L10.1617 26.5L19.048 19.3914L16.2876 15.942L5.24591 24.7753C4.98719 24.9822 4.77833 25.2446 4.6348 25.5432C4.49127 25.8417 4.41675 26.1687 4.41675 26.5C4.41675 26.8313 4.49127 27.1583 4.6348 27.4568C4.77833 27.7554 4.98719 28.0178 5.24591 28.2247L16.2876 37.058ZM36.7147 15.942L33.9542 19.3914L42.8406 26.5L33.9542 33.6086L36.7147 37.058L47.7563 28.2247C48.015 28.0178 48.2239 27.7554 48.3674 27.4568C48.511 27.1583 48.5855 26.8313 48.5855 26.5C48.5855 26.1687 48.511 25.8417 48.3674 25.5432C48.2239 25.2446 48.015 24.9822 47.7563 24.7753L36.7147 15.942Z" fill="#5845CF"/>
<path d="M33.0717 7.10191L24.2384 46.8519L19.9255 45.8935L28.7589 6.14349L33.0717 7.10191Z" fill="#5845CF"/>
</svg>
