<svg width="53" height="53" viewBox="0 0 53 53" fill="none" xmlns="http://www.w3.org/2000/svg">
<path d="M26.5005 46.375C37.4771 46.375 46.3755 37.4767 46.3755 26.5C46.3755 15.5233 37.4771 6.625 26.5005 6.625C15.5238 6.625 6.62549 15.5233 6.62549 26.5C6.62549 37.4767 15.5238 46.375 26.5005 46.375Z" stroke="#5845CF" stroke-width="3.53333" stroke-linecap="round" stroke-linejoin="round"/>
<path d="M7.95093 19.875H45.0509" stroke="#5845CF" stroke-width="3.53333" stroke-linecap="round" stroke-linejoin="round"/>
<path d="M7.95093 33.125H45.0509" stroke="#5845CF" stroke-width="3.53333" stroke-linecap="round" stroke-linejoin="round"/>
<path d="M25.396 6.625C21.6757 12.5866 19.7034 19.4728 19.7034 26.5C19.7034 33.5272 21.6757 40.4134 25.396 46.375" stroke="#5845CF" stroke-width="3.53333" stroke-linecap="round" stroke-linejoin="round"/>
<path d="M27.605 6.625C31.3253 12.5866 33.2976 19.4728 33.2976 26.5C33.2976 33.5272 31.3253 40.4134 27.605 46.375" stroke="#5845CF" stroke-width="3.53333" stroke-linecap="round" stroke-linejoin="round"/>
</svg>
