<svg width="38" height="38" viewBox="0 0 38 38" fill="none" xmlns="http://www.w3.org/2000/svg">
<path d="M38 23.1165C38 24.0665 36.1 24.6999 33.8833 25.0165C32.4583 22.3249 29.6083 20.2665 26.2833 18.8415C26.6 18.3665 26.9167 18.0499 27.2333 17.5749H28.5C33.4083 17.4165 38 20.4249 38 23.1165ZM10.7667 17.4165H9.5C4.59167 17.4165 0 20.4249 0 23.1165C0 24.0665 1.9 24.6999 4.11667 25.0165C5.54167 22.3249 8.39167 20.2665 11.7167 18.8415L10.7667 17.4165ZM19 18.9999C22.4833 18.9999 25.3333 16.1499 25.3333 12.6665C25.3333 9.18319 22.4833 6.33319 19 6.33319C15.5167 6.33319 12.6667 9.18319 12.6667 12.6665C12.6667 16.1499 15.5167 18.9999 19 18.9999ZM19 20.5832C12.5083 20.5832 6.33333 24.6999 6.33333 28.4999C6.33333 31.6665 19 31.6665 19 31.6665C19 31.6665 31.6667 31.6665 31.6667 28.4999C31.6667 24.6999 25.4917 20.5832 19 20.5832ZM28.025 15.8332H28.5C31.1917 15.8332 33.25 13.7749 33.25 11.0832C33.25 8.39152 31.1917 6.33319 28.5 6.33319C27.7083 6.33319 27.075 6.49152 26.4417 6.80819C27.7083 8.39152 28.5 10.4499 28.5 12.6665C28.5 13.7749 28.3417 14.8832 28.025 15.8332ZM9.5 15.8332H9.975C9.65833 14.8832 9.5 13.7749 9.5 12.6665C9.5 10.4499 10.2917 8.39152 11.5583 6.80819C10.925 6.49152 10.2917 6.33319 9.5 6.33319C6.80833 6.33319 4.75 8.39152 4.75 11.0832C4.75 13.7749 6.80833 15.8332 9.5 15.8332Z" fill="#5845CF"/>
</svg>
